<svg xmlns="http://www.w3.org/2000/svg" width="641.008" height="343.923" viewBox="0 0 641.008 343.923"><defs><style>.a{fill:#f6f5f5;}.b{fill:#dadada;}.c{fill:#fff;}.d{fill:#86a7ff;}.e{fill:#d3dfff;}.f,.m{fill:#1f3c88;}.f{opacity:0.2;}.g{fill:#3a6bea;}.h{fill:#102048;}.i{fill:#e28b6d;}.j{fill:#f9b384;}.k{fill:#fbc343;}.l{fill:#e49b31;}</style></defs><g transform="translate(-110.593 -313)"><g transform="translate(110.593 454.037)"><path class="a" d="M868.356,1072.969c-7.8-42.273-44.387-80.118-87.366-80.95-15.964-.309-32.808,4.042-47.381-2.481-10.778-4.824-18.261-14.794-27.856-21.677-14.639-10.5-33.694-13.3-51.609-11.4s-35.053,8.107-51.985,14.26c-26.048-30.556-66.8-47.97-106.883-45.675S416.695,949.293,394.3,982.623c-44.553-.555-86.853,34.687-94.351,78.608-3.847,22.535,1.724,45.944,13.747,65.333H863.575C869.622,1108.926,871.442,1089.693,868.356,1072.969Z" transform="translate(-255.377 -924.847)"/><g transform="translate(441.177 51.426)"><g transform="translate(98.335)"><path class="b" d="M2474.76,1298.666l-.5-.866c10.074-5.809,19.3-14.555,27.436-25.995a139.111,139.111,0,0,0,18.537-37.609c8.8-27.391,11.909-56.595,14.864-84.868-23.518,7.182-45.656,26.035-60.83,51.838-15.344,26.093-23.371,58.958-22.023,90.166l-1,.043c-1.356-31.4,6.721-64.46,22.16-90.715,15.456-26.282,38.1-45.42,62.126-52.505l.716-.212-.077.743c-2.985,28.557-6.071,58.086-14.985,85.818a140.122,140.122,0,0,1-18.674,37.882C2494.3,1283.943,2484.959,1292.785,2474.76,1298.666Z" transform="translate(-2451.098 -1147.942)"/><path class="b" d="M2462.838,1386.2l-1-.086c.906-10.516,4.189-21.081,10.038-32.3,5.645-10.828,12.923-20.72,18.634-28.127,1.391-1.805,2.822-3.641,4.2-5.417,12.089-15.521,24.59-31.57,30.442-51.138l.958.286c-5.906,19.749-18.466,35.873-30.612,51.466-1.382,1.775-2.812,3.61-4.2,5.413-5.685,7.375-12.93,17.22-18.539,27.979C2466.98,1365.378,2463.733,1375.821,2462.838,1386.2Z" transform="translate(-2459.365 -1241.197)"/><path class="b" d="M2567.136,1496.539a30.871,30.871,0,0,1-4.116-.273l.134-.991a33.07,33.07,0,0,0,18.266-3,41,41,0,0,0,15.448-12.63l.8.6a42.006,42.006,0,0,1-15.828,12.937A35.075,35.075,0,0,1,2567.136,1496.539Z" transform="translate(-2537.221 -1403.185)"/><path class="b" d="M2618.65,1349.747a43.8,43.8,0,0,1,5.72-35.257l.826.563a42.757,42.757,0,0,0-5.584,34.42Z" transform="translate(-2578.885 -1276.099)"/></g><g transform="translate(125.347 88.49)"><path class="b" d="M2700.8,1594.188l-.354-.936c11.335-4.281,21.547-13.03,28.756-24.636,6.118-9.85,10.26-21.872,12.314-35.743a56.954,56.954,0,0,0-34.572,13.945l-.661-.75a57.941,57.941,0,0,1,35.8-14.218l.6-.02-.084.591c-2.043,14.259-6.262,26.614-12.541,36.723C2722.731,1580.935,2712.342,1589.829,2700.8,1594.188Z" transform="translate(-2669.984 -1531.83)"/><path class="b" d="M2568.707,1640.133l-.425-.905a197.8,197.8,0,0,0,60.47-44.248l.734.679A198.81,198.81,0,0,1,2568.707,1640.133Z" transform="translate(-2568.282 -1580.422)"/></g><g transform="translate(0 47.068)"><path class="b" d="M2062.979,1456.523a52.69,52.69,0,0,1-23.088-17.758,72.992,72.992,0,0,1-12.6-26.94c-4.759-19.707-2.506-40.727-.02-58.881l.111-.812.671.47c15.963,11.186,32.47,22.752,44.443,38.708,13.333,17.769,18.069,38.657,12.669,55.878l-.954-.3c5.3-16.914.625-37.467-12.515-54.979-11.709-15.605-27.856-27.024-43.545-38.018-2.428,17.877-4.535,38.453.113,57.7a71.987,71.987,0,0,0,12.422,26.569,51.7,51.7,0,0,0,22.644,17.427Z" transform="translate(-2024.504 -1352.132)"/><rect class="b" width="1" height="87.059" transform="translate(12.795 19.362) rotate(-26.291)"/><path class="b" d="M2082.664,1577.211a31.4,31.4,0,0,1-26.459-15.014l.859-.512A30.367,30.367,0,0,0,2083.3,1576.2l.023,1C2083.1,1577.209,2082.884,1577.211,2082.664,1577.211Z" transform="translate(-2048.897 -1513.381)"/></g></g><g transform="translate(12.13 83.508)"><g transform="translate(18.034)"><path class="b" d="M311.275,1405.071c-11.388-2.34-22.032-8-31.637-16.834a95.622,95.622,0,0,1-21.422-29.671c-10.415-22.222-13.59-46.827-16.66-70.622l-.106-.823.778.291c29.645,11.093,50.362,23.856,65.2,40.167,18.961,20.845,26.985,48.207,20.94,71.406l-.968-.252c5.961-22.877-1.976-49.884-20.712-70.481-14.6-16.046-34.956-28.644-64.032-39.611,3.028,23.462,6.239,47.677,16.467,69.5a94.616,94.616,0,0,0,21.193,29.359c9.47,8.706,19.954,14.288,31.162,16.591Z" transform="translate(-241.45 -1287.12)"/><path class="b" d="M369.528,1488.625a286.855,286.855,0,0,0-65.86-84.59l.66-.751a287.874,287.874,0,0,1,66.09,84.886Z" transform="translate(-289.326 -1376.506)"/><path class="b" d="M342.682,1510.423a263.471,263.471,0,0,1-28.134-11.7l.437-.9a262.56,262.56,0,0,0,28.027,11.658Z" transform="translate(-297.698 -1449.252)"/><rect class="b" width="22.328" height="1" transform="translate(60.441 77.651) rotate(-84.254)"/></g><g transform="translate(0 57.934)"><path class="b" d="M210.561,1598.193a34.663,34.663,0,0,1-17.549-5.081,48.608,48.608,0,0,1-14.723-13.746c-3.212-4.534-6.695-12.673-10.35-24.19-2.716-8.558-4.517-15.888-4.535-15.961l-.188-.767.774.159c1.04.213,25.571,5.311,34.348,13.185l-.668.744c-3.535-3.171-10.507-6.414-20.161-9.38-5.825-1.789-11.023-2.982-12.938-3.4,1.2,4.7,7.7,29.388,14.534,39.035a47.6,47.6,0,0,0,14.416,13.463A33.2,33.2,0,0,0,212,1597.156l.051,1Q211.307,1598.193,210.561,1598.193Z" transform="translate(-163.216 -1538.447)"/><path class="b" d="M241.107,1615.227a228.5,228.5,0,0,0-33.938-37.578l.663-.748a229.5,229.5,0,0,1,34.086,37.742Z" transform="translate(-197.037 -1568.037)"/></g><g transform="translate(140.699 25.741)"><path class="b" d="M803.2,1492.134l-.653-.758a79.629,79.629,0,0,0,21.336-91.47,47.731,47.731,0,0,0-23.922,12.392,67.42,67.42,0,0,0-16,23.125c-7.146,16.889-8.511,35.814-9.372,55.339l-1-.044c.866-19.62,2.24-38.642,9.45-55.685a68.421,68.421,0,0,1,16.24-23.469,48.6,48.6,0,0,1,24.824-12.711l.387-.064.155.36a80.63,80.63,0,0,1-21.448,92.985Z" transform="translate(-773.594 -1398.789)"/><path class="b" d="M831.07,1580.685l-.952-.307a263.7,263.7,0,0,1,29.3-61.916l.841.542A262.688,262.688,0,0,0,831.07,1580.685Z" transform="translate(-817.089 -1490.876)"/><path class="b" d="M896.3,1594.558l-.57-.822a53,53,0,0,1,21.181-8.632l.167.986A51.991,51.991,0,0,0,896.3,1594.558Z" transform="translate(-867.578 -1542.157)"/></g></g><path class="b" d="M1891.354,1639.242a4.25,4.25,0,1,1,4.25-4.25A4.255,4.255,0,0,1,1891.354,1639.242Zm0-7.5a3.25,3.25,0,1,0,3.25,3.25A3.254,3.254,0,0,0,1891.354,1631.742Z" transform="translate(-1477.599 -1468.025)"/><path class="b" d="M2618.01,1109.976a4.25,4.25,0,1,1,4.25-4.25A4.255,4.255,0,0,1,2618.01,1109.976Zm0-7.5a3.25,3.25,0,1,0,3.25,3.25A3.254,3.254,0,0,0,2618.01,1102.476Z" transform="translate(-2036.752 -1060.761)"/><circle class="b" cx="3.75" cy="3.75" r="3.75" transform="translate(633.508 108.966)"/><circle class="b" cx="3.75" cy="3.75" r="3.75" transform="translate(32.75 38.965)"/><path class="b" d="M114.843,1383.285a4.25,4.25,0,1,1,4.25-4.25A4.255,4.255,0,0,1,114.843,1383.285Zm0-7.5a3.25,3.25,0,1,0,3.25,3.25A3.254,3.254,0,0,0,114.843,1375.785Z" transform="translate(-110.593 -1271.069)"/><path class="b" d="M1118.062,1596.944a4.25,4.25,0,1,1,4.25-4.25A4.255,4.255,0,0,1,1118.062,1596.944Zm0-7.5a3.25,3.25,0,1,0,3.25,3.25A3.254,3.254,0,0,0,1118.062,1589.444Z" transform="translate(-882.559 -1435.478)"/></g><g transform="translate(138.76 371.001)"><g transform="translate(0 0)"><path class="c" d="M286.042,582.539c0-8.1-11.193-14.667-25-14.667s-25,6.567-25,14.667,11.193,14.667,25,14.667a41.053,41.053,0,0,0,8.581-.887c1.87,2.251,5.108,4.261,10.567,5.42a44.885,44.885,0,0,1-3.23-7.89C282.507,591.158,286.042,587.091,286.042,582.539Z" transform="translate(-235.291 -567.122)"/><path class="d" d="M279.123,600.307l-1.594-.339c-4.835-1.027-8.429-2.819-10.689-5.33a41.941,41.941,0,0,1-8.3.813c-6.809,0-13.222-1.562-18.057-4.4-4.961-2.91-7.693-6.823-7.693-11.018s2.732-8.108,7.693-11.018c4.835-2.836,11.248-4.4,18.057-4.4s13.222,1.562,18.057,4.4c4.961,2.91,7.693,6.823,7.693,11.018,0,4.537-3.246,8.775-8.932,11.7a45,45,0,0,0,2.988,7.143ZM267.4,592.986l.29.349c1.788,2.152,4.675,3.762,8.594,4.8a44.559,44.559,0,0,1-2.554-6.579l-.177-.608.57-.276c5.5-2.669,8.66-6.545,8.66-10.635,0-7.674-10.878-13.917-24.25-13.917s-24.25,6.243-24.25,13.917,10.879,13.917,24.25,13.917a40.271,40.271,0,0,0,8.424-.87Z" transform="translate(-232.787 -564.618)"/></g><g transform="translate(11.333 11.75)"><rect class="d" width="28.5" height="1"/><rect class="d" width="21" height="1" transform="translate(0 5.5)"/></g></g><g transform="translate(664.683 354.001)"><path class="c" d="M2517.595,508.789c0-8.1,11.193-14.667,25-14.667s25,6.567,25,14.667-11.193,14.667-25,14.667a41.048,41.048,0,0,1-8.581-.887c-1.871,2.251-5.108,4.261-10.567,5.42a44.889,44.889,0,0,0,3.229-7.89C2521.13,517.408,2517.595,513.341,2517.595,508.789Z" transform="translate(-2516.845 -493.372)"/><path class="d" d="M2519.506,526.557l.779-1.431a44.982,44.982,0,0,0,2.988-7.143c-5.687-2.924-8.932-7.162-8.932-11.7,0-4.195,2.732-8.108,7.693-11.018,4.835-2.837,11.248-4.4,18.057-4.4s13.222,1.562,18.057,4.4c4.961,2.91,7.693,6.823,7.693,11.018s-2.732,8.108-7.693,11.018c-4.835,2.837-11.248,4.4-18.057,4.4a41.945,41.945,0,0,1-8.3-.813c-2.261,2.511-5.854,4.3-10.69,5.33Zm20.585-34.189c-13.372,0-24.25,6.243-24.25,13.917,0,4.09,3.156,7.966,8.659,10.635l.57.276-.177.608a44.6,44.6,0,0,1-2.554,6.579c3.919-1.036,6.806-2.646,8.594-4.8l.29-.349.444.1a40.3,40.3,0,0,0,8.424.87c13.372,0,24.25-6.243,24.25-13.917S2553.463,492.368,2540.091,492.368Z" transform="translate(-2514.341 -490.868)"/><g transform="translate(11.667 11.75)"><rect class="d" width="28.5" height="1"/><rect class="d" width="21" height="1" transform="translate(0 5.5)"/></g></g><g transform="translate(241.025 313)"><g transform="translate(143.828 244.003)"><rect class="e" width="87.001" height="98.001" transform="translate(0.75 0.75)"/><path class="d" d="M1388.887,1471.033h-88.5v-99.5h88.5Zm-87-1.5h85.5v-96.5h-85.5Z" transform="translate(-1300.386 -1371.532)"/><rect class="f" width="87.001" height="41.765" transform="translate(0.75 0.75)"/><circle class="c" cx="23.167" cy="23.167" r="23.167" transform="translate(11.488 32.917) rotate(-45)"/></g><rect class="e" width="374.657" height="270.734" rx="33.336" transform="translate(0.75 0.75)"/><path class="d" d="M1043.506,585.234H685.517a9.094,9.094,0,0,1-9.084-9.084V322.084A9.1,9.1,0,0,1,685.517,313h357.989a9.094,9.094,0,0,1,9.084,9.084V576.15A9.094,9.094,0,0,1,1043.506,585.234ZM685.517,314.5a7.593,7.593,0,0,0-7.584,7.584V576.15a7.593,7.593,0,0,0,7.584,7.584h357.989a7.593,7.593,0,0,0,7.584-7.584V322.084a7.593,7.593,0,0,0-7.584-7.584Z" transform="translate(-676.433 -313)"/><g transform="translate(6.802 9.547)"><rect class="c" width="361.054" height="222.331" transform="translate(0.75 0.75)"/><path class="d" d="M1068.494,578.248H705.94V354.417h362.554Zm-361.054-1.5h359.554V355.917H707.44Z" transform="translate(-705.94 -354.417)"/></g><g transform="translate(38.082 29.754)"><g transform="translate(40.922)"><rect class="e" width="81.665" height="9.546" transform="translate(65.044)"/><rect class="e" width="211.752" height="3.571" transform="translate(0 18.868)"/></g><g transform="translate(211.708 125.713)"><rect class="d" width="81.7" height="3.571"/><rect class="d" width="70.35" height="3.571" transform="translate(0 8.871)"/><rect class="d" width="44.373" height="3.571" transform="translate(0 17.743)"/></g><g transform="translate(211.708 159.971)"><rect class="e" width="71.86" height="3.571"/><rect class="e" width="61.878" height="3.571" transform="translate(0 8.871)"/></g><g transform="translate(0.436 116.872)"><rect class="e" width="34.678" height="54.357" transform="translate(0 0.085)"/><rect class="d" width="38.981" height="17.955" transform="translate(43.48)"/><rect class="e" width="38.981" height="27.812" transform="translate(43.48 26.705)"/></g><g transform="translate(105.131 124.373)"><path class="d" d="M1375.476,1029.038H1303.3a5.583,5.583,0,0,1-5.577-5.577V987.208a5.583,5.583,0,0,1,5.577-5.577h72.18a5.583,5.583,0,0,1,5.577,5.577v36.253A5.583,5.583,0,0,1,1375.476,1029.038ZM1303.3,982.5a4.71,4.71,0,0,0-4.7,4.7v36.253a4.709,4.709,0,0,0,4.7,4.7h72.18a4.709,4.709,0,0,0,4.7-4.7V987.208a4.71,4.71,0,0,0-4.7-4.7Z" transform="translate(-1297.719 -981.631)"/><path class="g" d="M1332.743,1047.843l-.781-.39,4.931-9.863,6.094,6.384,7.257-15.674,9.731,9.141,10.706-10.706,10.465,6.4,13.428-14,.63.6-13.914,14.506-10.478-6.4-10.818,10.818-9.466-8.892-7.287,15.739-6.122-6.414Z" transform="translate(-1324.068 -1010.487)"/><g transform="translate(45.369 35.343)"><rect class="d" width="8.29" height="4.363"/><rect class="g" width="14.398" height="0.873" transform="translate(13.744 1.745)"/></g></g><g transform="translate(113.103 41.114)"><path class="e" d="M1511.017,651.225a33.756,33.756,0,0,0-21.82-23.188l-10.719,31.944Z" transform="translate(-1444.783 -626.285)"/><path class="d" d="M1428.69,737.388,1413.776,767.6a33.7,33.7,0,0,0,47.454-38.971Z" transform="translate(-1394.995 -703.692)"/><path class="g" d="M1376.716,622.19a33.7,33.7,0,0,0-25.634,62.159L1366,654.133Z" transform="translate(-1332.301 -620.438)"/></g><g transform="translate(0 42.477)"><g transform="translate(17.936 55.992)"><rect class="e" width="47.461" height="3.571"/></g><path class="d" d="M924.975,674.527H841.641V626.351h83.334Zm-82.461-.873H924.1V627.224H842.514Z" transform="translate(-841.641 -626.351)"/><g transform="translate(5.805 7.75)"><path class="e" d="M938.249,671.637c-2.765-.555-5.505,1.246-7.255,3.466a28.294,28.294,0,0,0-2.186,3.367,35.3,35.3,0,0,1-2.385,3.771c-1.715,2.247-4.376,4.126-7.165,3.7-4.522-.689-7-6.9-11.568-6.817-2.136.037-3.966,1.516-5.422,3.085s-2.784,3.352-4.678,4.344c-2.648,1.386-5.916.937-8.662-.243s-5.153-3.016-7.763-4.473a31.179,31.179,0,0,0-14.34-3.861v23.566h71.723v-29.83C938.449,671.69,938.352,671.658,938.249,671.637Z" transform="translate(-866.826 -668.87)"/><path class="d" d="M888.929,677.416c2.745,1.18,6.014,1.629,8.662.243,1.894-.991,3.223-2.774,4.678-4.344s3.286-3.048,5.422-3.085c4.573-.08,7.047,6.128,11.568,6.817,2.788.425,5.45-1.454,7.165-3.7a35.3,35.3,0,0,0,2.385-3.771c-2.779.128-5.557.266-7.964-1.019s-3.965-3.769-6.352-5.06c-4.285-2.318-9.526-.107-13.8,2.24-2.552,1.4-5.4,2.91-8.224,2.218-3.2-.783-5.071-4.04-7.734-5.982-5.1-3.718-12.755-1.913-17.113,2.656l-.008.009a2.844,2.844,0,0,0-.791,1.969v2.476a31.179,31.179,0,0,1,14.34,3.861C883.776,674.4,886.183,676.237,888.929,677.416Z" transform="translate(-866.826 -659.973)"/></g></g><g transform="translate(210.362 42.414)"><path class="d" d="M1837.69,693.607h-83.461V626.075h83.461Zm-82.461-1h81.461V627.075h-81.461Z" transform="translate(-1754.229 -626.075)"/><g transform="translate(13.807 13.298)"><rect class="d" width="8.726" height="29.378" transform="translate(0 14.834)"/><rect class="e" width="8.726" height="14.834"/><rect class="e" width="8.726" height="22.033" transform="translate(15.707)"/><rect class="d" width="8.726" height="22.179" transform="translate(15.707 22.033)"/><rect class="d" width="8.726" height="34.504" transform="translate(31.414 9.708)"/><rect class="e" width="8.726" height="9.708" transform="translate(31.414)"/><rect class="d" width="8.726" height="21.633" transform="translate(47.121 22.579)"/><rect class="e" width="8.726" height="22.579" transform="translate(47.121)"/></g></g></g></g><g transform="translate(172.761 376.024)"><g transform="translate(34.24 98.058)"><g transform="translate(11.593 105.005)"><path class="h" d="M626.232,1701.309l-16.333-17,.035-12.544-19.84.59,1.638,28.954Z" transform="translate(-587.565 -1624.642)"/><path class="i" d="M601.623,1467.334l-22.5,3,.888,15.695,21.562-.523Z" transform="translate(-579.123 -1467.334)"/><path class="j" d="M604.535,1546.165l-21.562.523,1.641,29.019,19.84-.59Z" transform="translate(-582.086 -1527.994)"/><rect class="c" width="9.394" height="2" transform="translate(13.408 62.763) rotate(-25.201)"/></g><g transform="translate(50.261 99.005)"><path class="i" d="M800.974,1442.138l-21.667-.833-2.845,16.579,20.756,3.032Z" transform="translate(-769.641 -1441.305)"/><path class="h" d="M783.035,1607.8l-13.333-22.5,1.724-8.62c-5.879-1.347-14.957-3.421-20.065-4.561l-4.493,26.181Z" transform="translate(-746.868 -1541.961)"/><path class="j" d="M789.443,1516.26l-20.756-3.032-2.329,13.574c5.108,1.139,14.186,3.214,20.065,4.561Z" transform="translate(-761.865 -1496.649)"/><rect class="c" width="8.881" height="2" transform="translate(14.098 45.22) rotate(-18.607)"/></g><path class="k" d="M624.923,1114.145s-9,11.33-25.67,7.66-13.66,6-23,8-35.331-14.33-44,1c0,0-5.16-58.051-2.81-94.791.64-9.92,1.82-18.29,3.81-23.54l39.89-.55,8.78-.12s.03.19.1.57c.15.79.45,2.4.95,4.7C586.232,1032.2,597.672,1077.075,624.923,1114.145Z" transform="translate(-528.828 -1011.804)"/><path class="l" d="M585.02,1017.475a123.246,123.246,0,0,1-53.531,18.94c.64-9.92,1.82-18.29,3.81-23.54l39.89-.55,8.88.45C584.22,1013.565,584.52,1015.175,585.02,1017.475Z" transform="translate(-530.876 -1012.205)"/></g><g transform="translate(0 106.869)"><rect class="c" width="34" height="45.501" transform="translate(53.878 13.485) rotate(106.423)"/><path class="d" d="M424.893,1096.746l-44.6-13.147,9.9-33.572,44.6,13.147Zm-43.361-13.823,42.685,12.582,9.331-31.654-42.685-12.582Z" transform="translate(-380.29 -1050.027)"/><g transform="translate(16.078 8.913)"><rect class="d" width="10.125" height="1" transform="translate(26.383 16.78) rotate(-73.578)"/><rect class="d" width="24.375" height="1" transform="matrix(0.283, -0.959, 0.959, 0.283, 16.359, 28.682)"/><rect class="d" width="24.375" height="1" transform="matrix(0.283, -0.959, 0.959, 0.283, 10.365, 26.915)"/><rect class="d" width="24.375" height="1" transform="matrix(0.283, -0.959, 0.959, 0.283, 4.369, 25.148)"/><rect class="d" width="18.625" height="1" transform="matrix(0.283, -0.959, 0.959, 0.283, 0, 17.865)"/></g></g><path class="j" d="M868.608,705.128s1.233-11.882,2.342-11.681.988,3.1.988,3.1,2.593-6.626,3.8-6.619-.026,2.709-.026,2.709,1.339-2.71,2.34-2.5.179,2.508.179,2.508,1.046-2.222,2.059-1.828.377,2.214.377,2.214.554-1.44,1.5-.48-3.9,14.873-3.9,14.873l-6.831,1.95Z" transform="translate(-756.045 -666.068)"/><path class="g" d="M732.328,749.308s-5.96,24.51-20.99,31.67a19.784,19.784,0,0,1-12.09,1.66l-2.69-4.79-17.64-31.38,6.16-2.16s13.84,5.16,21.34,16.66c0,0,7-.66,16.33-14.66Z" transform="translate(-610.08 -707.91)"/><path class="h" d="M770.223,853.852a19.784,19.784,0,0,1-12.09,1.66l-2.69-4.79.69-11.71S766.333,844.8,770.223,853.852Z" transform="translate(-668.966 -780.784)"/><path class="j" d="M501.453,1093.2s-1.349,11.539-2.529,11.343-1.038-3.1-1.038-3.1-2.792,6.641-4.076,6.639.04-2.71.04-2.71-1.439,2.717-2.5,2.513-.179-2.508-.179-2.508-1.124,2.228-2.2,1.837-.391-2.213-.391-2.213-.6,1.443-1.6.487,4.226-14.9,4.226-14.9l7.285-1.982Z" transform="translate(-462.286 -972.849)"/><path class="g" d="M535.112,745.378c-29.584,3.584-38.292,44.584-34.917,83.084l11,.667s1.833-37.667,17-55.667l12.667-26.167Z" transform="translate(-472.028 -708.734)"/><path class="g" d="M567.071,753.693l20.5,13.834s5.667,26.5,5.333,50c0,0-39.667,14.667-59.334-.667l15.5-50.334Z" transform="translate(-498.238 -715.132)"/><g transform="translate(52.399)"><path class="h" d="M635.807,615.393c1.9-6.625-4.767-14.375-17.517-7.792,0,0-12.667,2.167-10.417,24.167l13.333.5Z" transform="translate(-607.605 -600.791)"/><path class="h" d="M624.636,592.761c1.743-7-5.863-8.121-7.13-3.827-.169.573-3.875-1.471-4.912,1.867-1.188,3.827,2.941,6.373,7.605,5.414Z" transform="translate(-611.285 -586.408)"/><path class="j" d="M665.882,686.339v13.17l-5.75,8.08-6.16-7.83.33-13.67Z" transform="translate(-643.284 -663.112)"/><path class="h" d="M685.978,706.7v8.45c-4.12-1.79-5.89-7.2-5.89-7.2Z" transform="translate(-663.38 -678.968)"/><path class="j" d="M674.505,631.813s4.1,21.625-11.49,14.375l-5.119-5.875,3.185-11.875,8.191-2Z" transform="translate(-646.303 -617.211)"/><path class="h" d="M669.948,625.415s-3.267-5.083-7.351-2.625-3.875,11.083-8.125,8.917-1.792-8.833-1.792-8.833l6.25-4.75,7,.792Z" transform="translate(-641.746 -610.812)"/><ellipse class="j" cx="2.958" cy="3.375" rx="2.958" ry="3.375" transform="matrix(0.866, -0.5, 0.5, 0.866, 7.393, 20.242)"/></g><circle class="h" cx="2" cy="2" r="2" transform="translate(67.333 49.561)"/><path class="h" d="M554.115,915.538l-.982-.191c.015-.074,1.47-7.494,3.917-15.8,3.3-11.2,6.741-18.589,10.226-21.968l.7.718C559.929,886.1,554.173,915.245,554.115,915.538Z" transform="translate(-513.292 -810.464)"/><path class="h" d="M520.549,932.328c-1.837-1.378-6.138-1.235-6.181-1.234l-.037-1c.191-.007,4.7-.155,6.819,1.433Z" transform="translate(-483.433 -850.866)"/></g><g transform="translate(524.967 380.093)"><g transform="translate(64.601 89.859)"><path class="h" d="M2408.021,1665.948l-.333,19-4.333,11.5h23.5l-1.333-31Z" transform="translate(-2353.823 -1510.645)"/><g transform="translate(1.114 155.552)"><path class="h" d="M2211.811,1670.451v15.75l-18.5,12.75h37.25l-2.25-30.25Z" transform="translate(-2193.311 -1668.701)"/><rect class="c" width="2" height="7.017" transform="translate(17.895 18.296) rotate(-52.721)"/></g><path class="g" d="M2239.339,1006.034l-.1.38-3.32,13.09-7.24,28.531a135.555,135.555,0,0,0-2.33,14.6c-3.53,32.471,1.03,73.971,3.4,91.871a7.837,7.837,0,0,1-7.78,8.86H2208.8a7.886,7.886,0,0,1-7.1-4.48c-16.79-35.161-14.06-87.671-10.69-100.521,5.33-20.33,9-50.661,9-50.661l11.19-.48Z" transform="translate(-2188.477 -1003.234)"/><path class="g" d="M2383.9,1144.839a8.327,8.327,0,0,1-8.32,8.13H2364.3a8.308,8.308,0,0,1-8.24-7.23c-2.15-16.4-7.39-57.721-10.36-92.451-1.55-18.22-2.47-34.62-1.99-44.661a31.613,31.613,0,0,1,1.18-8.43l13.7-3.13,13.95-3.18s3.46,3.69,6.64,23.34C2382.492,1037.728,2385.482,1075.618,2383.9,1144.839Z" transform="translate(-2307.83 -993.887)"/><path class="h" d="M2345.655,1209.262a171.824,171.824,0,0,1,1.2-33.381,12.43,12.43,0,0,1,4.613-7.919l9.372-7.45.622.783-9.372,7.45a11.434,11.434,0,0,0-4.246,7.283,170.819,170.819,0,0,0-1.194,33.186Z" transform="translate(-2309.206 -1122.104)"/><path class="h" d="M2224.258,1384.367l-.123-.992a69.159,69.159,0,0,1,16.453-.334l-.115.993A68.233,68.233,0,0,0,2224.258,1384.367Z" transform="translate(-2215.916 -1293.069)"/><path class="h" d="M2419.479,1374.244l-.123-.992a69.146,69.146,0,0,1,16.453-.334l-.115.993A68.191,68.191,0,0,0,2419.479,1374.244Z" transform="translate(-2366.136 -1285.28)"/><path class="h" d="M2250.075,1627.966a70.191,70.191,0,0,1-14.985-1.547l.239-.971c.146.036,14.7,3.529,29.412-.2l.245.969A61.172,61.172,0,0,1,2250.075,1627.966Z" transform="translate(-2224.345 -1479.715)"/><path class="h" d="M2407.611,1627c-1.351,0-2.63-.04-3.795-.1a78.836,78.836,0,0,1-9.784-1.11l.191-.982c.165.032,16.618,3.164,27.57-.885l.347.938A43.454,43.454,0,0,1,2407.611,1627Z" transform="translate(-2346.649 -1478.692)"/><path class="m" d="M2309.172,1017.227c-6.37-3.4-15.16-5.62-23.91-7.07-3.93-.66-7.86-1.15-11.56-1.53-11.71-1.19-21.1-1.19-21.1-1.19l7.94-9.56,28.141-1.19-.1.38,13.95-3.18S2305.992,997.577,2309.172,1017.227Z" transform="translate(-2237.82 -993.887)"/></g><g transform="translate(77.654)"><rect class="i" width="11.57" height="19.31" transform="translate(8.978 17.398)"/><path class="h" d="M2289.473,709.9a14,14,0,0,1-5.42,7.09v-8.43Z" transform="translate(-2275.075 -684.472)"/><path class="i" d="M2248.116,636.788l-.813,8.128s-3.786,5.08-1.422,5.08c2.54,0,2.134,1.016,2.134,1.016s-1.423,10.566,11.481,3.657l2.743-15.85Z" transform="translate(-2245.104 -629.244)"/><path class="h" d="M2258.169,632.21a4.054,4.054,0,0,1,4.42,3.251c.914,3.708,2.134,5.994,5.232,3.4l3.4-5.588-5.842-2.438Z" transform="translate(-2255.157 -624.666)"/><path class="h" d="M2258.169,611.6c0-2.641,3.132-8.941,13-7.264,9.436,1.6,10.922,14.834,6.045,20.879,0,0-2.489,3.912-5.842-3.251l-5.74-7.722-1.219-2.438Z" transform="translate(-2255.157 -604.061)"/><path class="i" d="M2298.988,663.8a2.974,2.974,0,1,1-.863-4.4A3.184,3.184,0,0,1,2298.988,663.8Z" transform="translate(-2282.249 -646.373)"/></g><g transform="translate(0 29.913)"><path class="l" d="M2366.575,745.017c22.167,7.167,39.667,37.167,19.167,37.667s-33-18.5-33-18.5Z" transform="translate(-2250.276 -742.438)"/><path class="i" d="M1926.438,831.391s-10.951-4.773-11.322-3.708,2.216,2.387,2.216,2.387-7.045-1-7.631.05,2.372,1.31,2.372,1.31-3.018-.167-3.328.807,2.1,1.39,2.1,1.39-2.449-.183-2.6.894,1.742,1.417,1.742,1.417-1.526-.226-1.155,1.068,14.869,3.92,14.869,3.92l5.058-4.988Z" transform="translate(-1908.227 -805.93)"/><path class="k" d="M2087.521,803.316l-49.491,5.4a6.906,6.906,0,0,1-7.65-7.08l.62-20.42.29-9.41.01-.23a13.775,13.775,0,0,1-1.08,1.1c0,.01-.01.01-.02.02-.47.43-1.09.96-1.86,1.54-6.57,4.96-24.09,13.48-53.041-5.41l2.75-9.53,31.25,1.28a321.182,321.182,0,0,1,26.45-19.09,48.944,48.944,0,0,1,27.12-7.64,37.705,37.705,0,0,1,13.27,2.56c10.55,4.36,15.78,43.281,17.5,59.311A6.9,6.9,0,0,1,2087.521,803.316Z" transform="translate(-1959.839 -733.829)"/><path class="l" d="M2107.377,857.761a10.5,10.5,0,0,1,3.137-9.585l.633.775a8.169,8.169,0,0,0-1.709,2.208,10.106,10.106,0,0,0-1.072,6.458Z" transform="translate(-2061.365 -821.818)"/><path class="l" d="M2221.661,882.4s-.31,8.06-4.72,13.14l.29-9.41C2218.881,884.785,2220.771,883.215,2221.661,882.4Z" transform="translate(-2145.779 -848.149)"/><path class="l" d="M2173.2,879.992l-.2-.98c7.238-1.448,16.985-13.575,17.083-13.7l.782.624a75.51,75.51,0,0,1-5.919,6.423C2180.357,876.784,2176.4,879.351,2173.2,879.992Z" transform="translate(-2111.968 -835.006)"/></g></g></g></svg>