<svg xmlns="http://www.w3.org/2000/svg" width="99.247" height="92.463" viewBox="0 0 99.247 92.463"><defs><style>.a{fill:#8bb9ff;}.b{fill:#6e75e2;}.c{fill:#3340d8;}.d{fill:#f6f9f9;}.e{fill:#e2dff4;}.f{fill:#ffb454;}.g{fill:#e27a4e;}.h{fill:#00cb75;}.i{fill:#ace233;}</style></defs><g transform="translate(0 -17.5)"><path class="a" d="M204.715,392.924H179.9a2.909,2.909,0,0,1-2.869-3.386l3.1-18.609A2.909,2.909,0,0,1,183,368.5h18.609a2.909,2.909,0,0,1,2.869,2.429l3.1,18.609A2.909,2.909,0,0,1,204.715,392.924Z" transform="translate(-142.686 -282.961)"/><path class="b" d="M268.406,392.924H256V368.5h9.3a2.909,2.909,0,0,1,2.869,2.429l3.1,18.609A2.909,2.909,0,0,1,268.406,392.924Z" transform="translate(-206.376 -282.961)"/><path class="b" d="M188.033,467.408a2.909,2.909,0,0,1-2.908,2.908H147.908a2.908,2.908,0,1,1,0-5.815h37.218A2.909,2.909,0,0,1,188.033,467.408Z" transform="translate(-116.893 -360.352)"/><path class="c" d="M277.517,467.408a2.909,2.909,0,0,1-2.908,2.908H256V464.5h18.609A2.909,2.909,0,0,1,277.517,467.408Z" transform="translate(-206.376 -360.352)"/><path class="d" d="M108.432,38.315V94.723a5.815,5.815,0,0,1-5.815,5.815h-81.8A5.815,5.815,0,0,1,15,94.723V38.315A5.815,5.815,0,0,1,20.815,32.5h81.8A5.815,5.815,0,0,1,108.432,38.315Z" transform="translate(-12.092 -12.092)"/><path class="e" d="M302.716,38.315V94.723a5.815,5.815,0,0,1-5.815,5.815H256V32.5h40.9A5.815,5.815,0,0,1,302.716,38.315Z" transform="translate(-206.376 -12.092)"/><path class="b" d="M90.524,17.5H8.723A8.734,8.734,0,0,0,0,26.223V82.631a8.734,8.734,0,0,0,8.723,8.723h81.8a8.734,8.734,0,0,0,8.723-8.723V26.223A8.734,8.734,0,0,0,90.524,17.5Zm2.908,65.131a2.911,2.911,0,0,1-2.908,2.908H8.723a2.911,2.911,0,0,1-2.908-2.908V26.223a2.911,2.911,0,0,1,2.908-2.908h81.8a2.911,2.911,0,0,1,2.908,2.908Z"/><path class="c" d="M305.624,26.223V82.631a8.734,8.734,0,0,1-8.723,8.723H256V85.539h40.9a2.911,2.911,0,0,0,2.908-2.908V26.223a2.911,2.911,0,0,0-2.908-2.908H256V17.5h40.9A8.734,8.734,0,0,1,305.624,26.223Z" transform="translate(-206.376)"/><path class="b" d="M246.815,20.408v6.2a2.908,2.908,0,0,1-5.815,0v-6.2a2.908,2.908,0,1,1,5.815,0Z" transform="translate(-194.284)"/><path class="c" d="M258.908,20.408v6.2A2.909,2.909,0,0,1,256,29.518V17.5A2.909,2.909,0,0,1,258.908,20.408Z" transform="translate(-206.376)"/><path class="f" d="M131.908,186.118A2.908,2.908,0,0,1,129,183.21v-18.8a2.908,2.908,0,0,1,5.815,0v18.8A2.908,2.908,0,0,1,131.908,186.118Z" transform="translate(-103.994 -116.087)"/><path class="g" d="M195.908,224.814A2.908,2.908,0,0,1,193,221.906v-9.5a2.908,2.908,0,0,1,5.815,0v9.5A2.908,2.908,0,0,1,195.908,224.814Z" transform="translate(-155.588 -154.782)"/><circle class="f" cx="16.822" cy="16.822" r="16.822" transform="translate(52.988 38.079)"/><path class="h" d="M327.27,196.408a16.865,16.865,0,0,1-28.789,11.925l11.925-11.925V193.5h13.957a2.909,2.909,0,0,1,2.908,2.908Z" transform="translate(-240.622 -141.884)"/><path class="b" d="M376.864,138.364H360V121.5A16.884,16.884,0,0,1,376.864,138.364Z" transform="translate(-290.217 -83.84)"/><path class="i" d="M67.908,147.422A2.908,2.908,0,0,1,65,144.515V116.408a2.908,2.908,0,1,1,5.815,0v28.107A2.908,2.908,0,0,1,67.908,147.422Z" transform="translate(-52.4 -77.391)"/><path class="e" d="M65,273.5v2.908a2.908,2.908,0,0,0,2.908,2.908H92.719a2.908,2.908,0,0,0,2.908-2.908V273.5Z" transform="translate(-52.4 -206.376)"/></g></svg>