<svg xmlns="http://www.w3.org/2000/svg" xmlns:xlink="http://www.w3.org/1999/xlink" width="641.008" height="404.655" viewBox="0 0 641.008 404.655"><defs><style>.a{fill:#f6f5f5;}.b{fill:#dadada;}.c{fill:url(#a);}.d{fill:#7d97f4;}.e{fill:url(#b);}.f{fill:#91b3fa;}.g{fill:url(#c);}.h{fill:#fff;}.i{opacity:0.7;}.i,.k{fill:url(#d);}.j{opacity:0.64;}.l{fill:#3a6bea;}.m{fill:#f9b384;}.n{fill:#fbc343;}.o{fill:#102048;}.p{fill:url(#o);}.q{fill:url(#p);}.r{fill:url(#q);}.s{fill:url(#r);}.t{fill:url(#s);}.u{fill:url(#t);}.v{fill:url(#u);}.w{fill:#bdd0fb;}.x{fill:url(#v);}</style><linearGradient id="a" x1="0.629" y1="0.522" x2="1.961" y2="0.658" gradientUnits="objectBoundingBox"><stop offset="0" stop-color="#4f52ff"/><stop offset="1" stop-color="#4042e2"/></linearGradient><linearGradient id="b" x1="0.522" y1="-0.276" x2="0.494" y2="0.749" xlink:href="#a"/><linearGradient id="c" x1="0.251" y1="0" x2="1.124" y2="1.56" xlink:href="#a"/><linearGradient id="d" y1="0.5" x2="1" y2="0.5" gradientUnits="objectBoundingBox"><stop offset="0" stop-color="#dae3fe"/><stop offset="1" stop-color="#e9effd"/></linearGradient><linearGradient id="o" x1="0.772" y1="-6.693" x2="0.499" y2="0.843" xlink:href="#a"/><linearGradient id="p" x1="0.734" y1="-1.867" x2="0.424" y2="1.1" xlink:href="#a"/><linearGradient id="q" x1="0.896" y1="-7.508" x2="0.376" y2="3.009" gradientUnits="objectBoundingBox"><stop offset="0" stop-color="#e1473d"/><stop offset="1" stop-color="#e9605a"/></linearGradient><linearGradient id="r" x1="0.532" y1="0.006" x2="0.327" y2="3.202" xlink:href="#a"/><linearGradient id="s" x1="0.554" y1="-2.158" x2="0.395" y2="6.275" xlink:href="#a"/><linearGradient id="t" x1="21.791" y1="-5.858" x2="-1.008" y2="0.95" xlink:href="#q"/><linearGradient id="u" x1="4.032" y1="-1.794" x2="-0.073" y2="0.828" xlink:href="#q"/><linearGradient id="v" x1="-15.708" y1="-385.195" x2="-16.48" y2="-371.024" xlink:href="#a"/></defs><g transform="translate(-375.227 -508.253)"><g transform="translate(375.227 710.022)"><path class="a" d="M868.356,1072.969c-7.8-42.273-44.387-80.118-87.366-80.95-15.964-.309-32.808,4.042-47.381-2.481-10.778-4.824-18.261-14.794-27.856-21.677-14.639-10.5-33.694-13.3-51.609-11.4s-35.053,8.107-51.985,14.26c-26.048-30.556-66.8-47.97-106.883-45.675S416.695,949.293,394.3,982.623c-44.553-.555-86.853,34.687-94.351,78.608-3.847,22.535,1.724,45.944,13.747,65.333H863.575C869.622,1108.926,871.442,1089.693,868.356,1072.969Z" transform="translate(-255.377 -924.847)"/><g transform="translate(441.177 51.426)"><g transform="translate(98.335)"><path class="b" d="M2474.76,1298.666l-.5-.866c10.074-5.809,19.3-14.555,27.436-25.995a139.111,139.111,0,0,0,18.537-37.609c8.8-27.391,11.909-56.595,14.864-84.868-23.518,7.182-45.656,26.035-60.83,51.838-15.344,26.093-23.371,58.958-22.023,90.166l-1,.043c-1.356-31.4,6.721-64.46,22.16-90.715,15.456-26.282,38.1-45.42,62.126-52.505l.716-.212-.077.743c-2.985,28.557-6.071,58.086-14.985,85.818a140.122,140.122,0,0,1-18.674,37.882C2494.3,1283.943,2484.959,1292.785,2474.76,1298.666Z" transform="translate(-2451.098 -1147.942)"/><path class="b" d="M2462.838,1386.2l-1-.086c.906-10.516,4.189-21.081,10.038-32.3,5.645-10.828,12.923-20.72,18.634-28.127,1.391-1.805,2.822-3.641,4.2-5.417,12.089-15.521,24.59-31.57,30.442-51.138l.958.286c-5.906,19.749-18.466,35.873-30.612,51.466-1.382,1.775-2.812,3.61-4.2,5.413-5.685,7.375-12.93,17.22-18.539,27.979C2466.98,1365.378,2463.733,1375.821,2462.838,1386.2Z" transform="translate(-2459.365 -1241.197)"/><path class="b" d="M2567.136,1496.539a30.871,30.871,0,0,1-4.116-.273l.134-.991a33.07,33.07,0,0,0,18.266-3,41,41,0,0,0,15.448-12.63l.8.6a42.006,42.006,0,0,1-15.828,12.937A35.075,35.075,0,0,1,2567.136,1496.539Z" transform="translate(-2537.221 -1403.185)"/><path class="b" d="M2618.65,1349.747a43.8,43.8,0,0,1,5.72-35.257l.826.563a42.757,42.757,0,0,0-5.584,34.42Z" transform="translate(-2578.885 -1276.099)"/></g><g transform="translate(125.347 88.49)"><path class="b" d="M2700.8,1594.188l-.354-.936c11.335-4.281,21.547-13.03,28.756-24.636,6.118-9.85,10.26-21.872,12.314-35.743a56.954,56.954,0,0,0-34.572,13.945l-.661-.75a57.941,57.941,0,0,1,35.8-14.218l.6-.02-.084.591c-2.043,14.259-6.262,26.614-12.541,36.723C2722.731,1580.935,2712.342,1589.829,2700.8,1594.188Z" transform="translate(-2669.984 -1531.83)"/><path class="b" d="M2568.707,1640.133l-.425-.905a197.8,197.8,0,0,0,60.47-44.248l.734.679A198.81,198.81,0,0,1,2568.707,1640.133Z" transform="translate(-2568.282 -1580.422)"/></g><g transform="translate(0 47.068)"><path class="b" d="M2062.979,1456.523a52.69,52.69,0,0,1-23.088-17.758,72.992,72.992,0,0,1-12.6-26.94c-4.759-19.707-2.506-40.727-.02-58.881l.111-.812.671.47c15.963,11.186,32.47,22.752,44.443,38.708,13.333,17.769,18.069,38.657,12.669,55.878l-.954-.3c5.3-16.914.625-37.467-12.515-54.979-11.709-15.605-27.856-27.024-43.545-38.018-2.428,17.877-4.535,38.453.113,57.7a71.987,71.987,0,0,0,12.422,26.569,51.7,51.7,0,0,0,22.644,17.427Z" transform="translate(-2024.504 -1352.132)"/><rect class="b" width="1" height="87.059" transform="translate(12.795 19.362) rotate(-26.291)"/><path class="b" d="M2082.664,1577.211a31.4,31.4,0,0,1-26.459-15.014l.859-.512A30.367,30.367,0,0,0,2083.3,1576.2l.023,1C2083.1,1577.209,2082.884,1577.211,2082.664,1577.211Z" transform="translate(-2048.897 -1513.381)"/></g></g><g transform="translate(12.13 83.508)"><g transform="translate(18.034)"><path class="b" d="M311.275,1405.071c-11.388-2.34-22.032-8-31.637-16.834a95.622,95.622,0,0,1-21.422-29.671c-10.415-22.222-13.59-46.827-16.66-70.622l-.106-.823.778.291c29.645,11.093,50.362,23.856,65.2,40.167,18.961,20.845,26.985,48.207,20.94,71.406l-.968-.252c5.961-22.877-1.976-49.884-20.712-70.481-14.6-16.046-34.956-28.644-64.032-39.611,3.028,23.462,6.239,47.677,16.467,69.5a94.616,94.616,0,0,0,21.193,29.359c9.47,8.706,19.954,14.288,31.162,16.591Z" transform="translate(-241.45 -1287.12)"/><path class="b" d="M369.528,1488.625a286.855,286.855,0,0,0-65.86-84.59l.66-.751a287.874,287.874,0,0,1,66.09,84.886Z" transform="translate(-289.326 -1376.506)"/><path class="b" d="M342.682,1510.423a263.471,263.471,0,0,1-28.134-11.7l.437-.9a262.56,262.56,0,0,0,28.027,11.658Z" transform="translate(-297.698 -1449.252)"/><rect class="b" width="22.328" height="1" transform="translate(60.441 77.651) rotate(-84.254)"/></g><g transform="translate(0 57.934)"><path class="b" d="M210.561,1598.193a34.663,34.663,0,0,1-17.549-5.081,48.608,48.608,0,0,1-14.723-13.746c-3.212-4.534-6.695-12.673-10.35-24.19-2.716-8.558-4.517-15.888-4.535-15.961l-.188-.767.774.159c1.04.213,25.571,5.311,34.348,13.185l-.668.744c-3.535-3.171-10.507-6.414-20.161-9.38-5.825-1.789-11.023-2.982-12.938-3.4,1.2,4.7,7.7,29.388,14.534,39.035a47.6,47.6,0,0,0,14.416,13.463A33.2,33.2,0,0,0,212,1597.156l.051,1Q211.307,1598.193,210.561,1598.193Z" transform="translate(-163.216 -1538.447)"/><path class="b" d="M241.107,1615.227a228.5,228.5,0,0,0-33.938-37.578l.663-.748a229.5,229.5,0,0,1,34.086,37.742Z" transform="translate(-197.037 -1568.037)"/></g><g transform="translate(140.699 25.741)"><path class="b" d="M803.2,1492.134l-.653-.758a79.629,79.629,0,0,0,21.336-91.47,47.731,47.731,0,0,0-23.922,12.392,67.42,67.42,0,0,0-16,23.125c-7.146,16.889-8.511,35.814-9.372,55.339l-1-.044c.866-19.62,2.24-38.642,9.45-55.685a68.421,68.421,0,0,1,16.24-23.469,48.6,48.6,0,0,1,24.824-12.711l.387-.064.155.36a80.63,80.63,0,0,1-21.448,92.985Z" transform="translate(-773.594 -1398.789)"/><path class="b" d="M831.07,1580.685l-.952-.307a263.7,263.7,0,0,1,29.3-61.916l.841.542A262.688,262.688,0,0,0,831.07,1580.685Z" transform="translate(-817.089 -1490.876)"/><path class="b" d="M896.3,1594.558l-.57-.822a53,53,0,0,1,21.181-8.632l.167.986A51.991,51.991,0,0,0,896.3,1594.558Z" transform="translate(-867.578 -1542.157)"/></g></g><path class="b" d="M1891.354,1639.242a4.25,4.25,0,1,1,4.25-4.25A4.255,4.255,0,0,1,1891.354,1639.242Zm0-7.5a3.25,3.25,0,1,0,3.25,3.25A3.254,3.254,0,0,0,1891.354,1631.742Z" transform="translate(-1477.599 -1468.025)"/><path class="b" d="M2618.01,1109.976a4.25,4.25,0,1,1,4.25-4.25A4.255,4.255,0,0,1,2618.01,1109.976Zm0-7.5a3.25,3.25,0,1,0,3.25,3.25A3.254,3.254,0,0,0,2618.01,1102.476Z" transform="translate(-2036.752 -1060.761)"/><circle class="b" cx="3.75" cy="3.75" r="3.75" transform="translate(633.508 108.966)"/><circle class="b" cx="3.75" cy="3.75" r="3.75" transform="translate(32.75 38.965)"/><path class="b" d="M114.843,1383.285a4.25,4.25,0,1,1,4.25-4.25A4.255,4.255,0,0,1,114.843,1383.285Zm0-7.5a3.25,3.25,0,1,0,3.25,3.25A3.254,3.254,0,0,0,114.843,1375.785Z" transform="translate(-110.593 -1271.069)"/><path class="b" d="M1118.062,1596.944a4.25,4.25,0,1,1,4.25-4.25A4.255,4.255,0,0,1,1118.062,1596.944Zm0-7.5a3.25,3.25,0,1,0,3.25,3.25A3.254,3.254,0,0,0,1118.062,1589.444Z" transform="translate(-882.559 -1435.478)"/></g><g transform="translate(469.777 579.715)"><path class="c" d="M501.031,1359.582l30.317,33.185c-18.971,14.31-30.87,42.39.885,75.781l-42.692,20.693C459.619,1436.844,463.849,1395.441,501.031,1359.582Z" transform="translate(-469.777 -1331.99)"/><path class="d" d="M551.909,1934.471l29.413.473,5.282-28.969c16.155,33.181,54.332,47.047,98.017,32.894l22.059,41.006C643.632,2008.618,579.812,1993.869,551.909,1934.471Z" transform="translate(-538.512 -1789.257)"/><path class="e" d="M1892.24,1292.754c23.843-47.129,86.771-64.512,132.026-38.7l45.869-15.183c-53.574-71.468-150.923-57.908-211.4,13.509Z" transform="translate(-1632.173 -1191.376)"/><path class="f" d="M2712.844,1459.025l19.462,45.463c71.011-29.578,92.5-129.733,28.385-173.858l.467,29.457-30.174,6.278C2775.424,1387.444,2755.621,1447.189,2712.844,1459.025Z" transform="translate(-2346.961 -1307.759)"/><path class="d" d="M1935.761,2017.54c67.275,48.385,126.143,54.693,173.081,16.246l-33.036-11.739,9.2-29.424c-41.194,28.59-79.477,19.287-116.227-9.986Z" transform="translate(-1696.633 -1853.412)"/><path class="d" d="M661.379,1218.017v31.872L691.7,1251.2c19.659-12.752,48.125-11.723,83.96-.256l20.823-46.167C742.028,1181.461,697.387,1187.028,661.379,1218.017Z" transform="translate(-630.125 -1190.424)"/><path class="g" d="M1274.585,1324.593l-17.031-35.477,37.854-10.69c24.59,12.825,44.395,28.534,60.209,46.645,17.409,38.34,41.3,71.063,71.182,85.028l-39.216.413,6.038,34.208a311.306,311.306,0,0,1-43.239-30.789l-29.448-52.358C1310.666,1345.979,1296.341,1333.281,1274.585,1324.593Z" transform="translate(-1129.054 -1264.071)"/><path class="f" d="M1307.047,1539.092c-11.519,12.317-19.06,30.474-29.884,43.378-17.264,20.579-38.795,47.167-77.646,50.626l31.718,16.411-18.882,30.962c63.36-12.592,107.692-53.922,128.2-101v-45.308Z" transform="translate(-1080.484 -1478.092)"/></g><g transform="translate(615.61 508.253)"><path class="d" d="M1907.448,753l154.217-.674a2.643,2.643,0,0,1,2.667,2.658L2064,808.96a2.641,2.641,0,0,1-2.719,2.627c-13.6-.406-152.979-2.194-155.644-2.083-2.634.11-1.2-42.519-.81-53.958A2.642,2.642,0,0,1,1907.448,753Z" transform="translate(-1904.089 -752.321)"/><path class="h" d="M2072.061,820.22h-.018c-8.691-.259-91.98-1.3-132.006-1.8-11.7-.146-20.011-.25-22.226-.281l-.207,0-.036-.2c-.946-5.336-.93-23.178.047-51.6a.552.552,0,0,1,.549-.533l154.218-.674a.555.555,0,0,1,.4.164.54.54,0,0,1,.161.393l-.329,53.981A.553.553,0,0,1,2072.061,820.22Zm-154.036-2.577c2.492.034,10.654.136,22.018.278,40.028.5,123.319,1.539,132.015,1.8h.014c.015,0,.038-.025.038-.054l.329-53.981-.057-.3v.25l-154.217.674a.052.052,0,0,0-.052.051C1917.151,794.385,1917.121,812.1,1918.025,817.643Z" transform="translate(-1914.785 -763.042)"/><path class="i" d="M1965.135,828.359h0c0,1.46.487,2.643,1.088,2.643H2025.3c.6,0,1.087-1.183,1.087-2.643h0c0-1.46-.487-2.643-1.087-2.643h-59.073C1965.622,825.716,1965.135,826.9,1965.135,828.359Z" transform="translate(-1955.177 -813.744)"/><path class="i" d="M1965.135,883.6h0c0,1.46.487,2.643,1.088,2.643H2025.3c.6,0,1.087-1.183,1.087-2.643h0c0-1.46-.487-2.643-1.087-2.643h-59.073C1965.622,880.955,1965.135,882.138,1965.135,883.6Z" transform="translate(-1955.177 -859.973)"/><path class="i" d="M1965.135,938.837h0c0,1.46.487,2.643,1.088,2.643H2025.3c.6,0,1.087-1.183,1.087-2.643h0c0-1.46-.487-2.643-1.087-2.643h-59.073C1965.622,936.194,1965.135,937.378,1965.135,938.837Z" transform="translate(-1955.177 -906.201)"/><path class="i" d="M1965.135,994.076h0c0,1.46.487,2.643,1.088,2.643H2025.3c.6,0,1.087-1.183,1.087-2.643h0c0-1.46-.487-2.643-1.087-2.643h-59.073C1965.622,991.433,1965.135,992.617,1965.135,994.076Z" transform="translate(-1955.177 -952.43)"/><g transform="translate(75.897 6.201)"><circle class="h" cx="10.276" cy="10.276" r="10.276" transform="translate(0)"/><circle class="h" cx="10.276" cy="10.276" r="10.276" transform="translate(25.538)"/><circle class="h" cx="10.276" cy="10.276" r="10.276" transform="translate(51.077 0.336)"/><g transform="translate(2.003 2.34)"><path class="d" d="M2396.041,810.447a6.6,6.6,0,1,1-6.106-4.092q.167,0,.333.008V804.69c-.11,0-.221-.007-.333-.007a8.268,8.268,0,1,0,7.641,5.1Z" transform="translate(-2381.662 -804.683)"/><path class="d" d="M2549.329,818.54a6.6,6.6,0,1,1-3.517-12.185c.112,0,.223,0,.333.008V804.69c-.11,0-.222-.007-.333-.007a8.272,8.272,0,1,0,4.347,15.312Z" transform="translate(-2512.113 -804.683)"/><path class="d" d="M2708.825,816.666a6.6,6.6,0,1,1-5.458-10.311q.168,0,.333.008V804.69c-.111,0-.221-.007-.333-.007a8.272,8.272,0,1,0,6.813,12.964Z" transform="translate(-2643.968 -804.683)"/></g><g class="j" transform="translate(0 24.904)"><path class="k" d="M2388.028,943.017h-16.745a1.9,1.9,0,0,0,0,3.806h16.745a1.9,1.9,0,1,0,0-3.806Z" transform="translate(-2369.38 -943.017)"/><path class="k" d="M2544.593,943.017h-16.746a1.9,1.9,0,0,0,0,3.806h16.746a1.9,1.9,0,0,0,0-3.806Z" transform="translate(-2500.406 -943.017)"/><path class="k" d="M2684.413,946.823h16.745a1.9,1.9,0,0,0,0-3.806h-16.745a1.9,1.9,0,1,0,0,3.806Z" transform="translate(-2631.432 -943.017)"/><path class="k" d="M7.507,0h5.538a7.507,7.507,0,0,1,7.507,7.507v0a7.507,7.507,0,0,1-7.507,7.507H7.507A7.507,7.507,0,0,1,0,7.507v0A7.507,7.507,0,0,1,7.507,0Z" transform="translate(0 5.921)"/><rect class="k" width="20.552" height="15.013" rx="7.507" transform="translate(25.538 5.921)"/><rect class="k" width="20.552" height="15.013" rx="7.507" transform="translate(51.077 5.921)"/></g></g></g><g transform="translate(512.676 673.714)"><g transform="translate(80.125 0)"><path class="l" d="M1509.605,3088.973s-.84,4.507-1.274,8.972a3.079,3.079,0,0,0,2.913,3.364c5.949.3,18.673.908,23.243.748a1,1,0,0,0,.895-1.364h0a2.242,2.242,0,0,0-1.136-1.219l-20.934-9.864Z" transform="translate(-1461.937 -2873.286)"/><path class="m" d="M1512.367,3068.656l.589,5.406s3.667,1.75,6.2-.157l-1.468-6.032Z" transform="translate(-1465.327 -2855.627)"/><path class="l" d="M1435.207,2449.6c-.29,1.407-2.157,70.352,4.919,101.325a1.049,1.049,0,0,1-.627,1.214,18.272,18.272,0,0,1-6.015,1.163,1.806,1.806,0,0,1-1.78-1.314c-2.039-7.19-11.792-43.208-12.782-77.536-1.106-38.358.012-1.305.012-1.305l1.089-23.694Z" transform="translate(-1386.717 -2338.082)"/><path class="l" d="M1354.356,3102s-1.291,2.267-2.578,8.311a1.879,1.879,0,0,0,1.631,2.266c1.963.212,4.986.489,7.409.5a1.873,1.873,0,0,0,1.874-2.072,15.8,15.8,0,0,0-3.605-8.7Z" transform="translate(-1330.898 -2884.184)"/><path class="m" d="M1361.369,3057.98l1.419,8.18s1.47,1.115,4.405.345l-.631-8.793Z" transform="translate(-1338.959 -2847.124)"/><path class="l" d="M1328.679,2443.5c-6.375,36.325.45,89.934,2.824,100.437a1.635,1.635,0,0,0,1.308,1.254,10.977,10.977,0,0,0,4.717-.144,1.5,1.5,0,0,0,1.09-1.369c.413-8.469.312-60.484,6.125-80.984a4.668,4.668,0,0,1,1.825-2.559l10.976-7.647.956-12.52Z" transform="translate(-1309.383 -2330.147)"/><g transform="translate(17.306 17.289)"><path class="n" d="M1371.139,2027c-18.063-.47-38.045,4.381-38.045,4.381-5.685,31.371-1.587,67.656-1.587,67.656,13.951,3.8,29.785-1.959,29.785-1.959,2.45-13.111,13.649-49.97,13.649-49.97a59.512,59.512,0,0,0,22.153-6.8c-4.517-5.338-6.606-12.1-7.5-16.087A60.606,60.606,0,0,1,1371.139,2027Z" transform="translate(-1330.078 -1999.502)"/><path class="m" d="M1730.089,1874.075a3.457,3.457,0,0,0-4.01-1.168c-2.766,11.2-16.792,20.177-31.156,24.491.9,3.991,2.986,10.749,7.5,16.088C1726.321,1900.349,1730.089,1874.075,1730.089,1874.075Z" transform="translate(-1635.41 -1872.68)"/></g><g transform="translate(108.016)"><path class="m" d="M1889.713,1785.915c.18.592-1.979,1.471-3.222-.956-.033-1.158-.69-6.122.011-7.058,3.731-4.986,10.931-11.211,10.931-11.211a1.7,1.7,0,0,1,.19,2.362l-3.5,3.575a16.766,16.766,0,0,1,1.984,4.017,4.855,4.855,0,0,1-.518,3.568c-.619,1.09-1.462,2.505-2.256,3.612A4.793,4.793,0,0,1,1889.713,1785.915Z" transform="translate(-1886.18 -1766.69)"/><path class="m" d="M1903.918,1817.355l-3.182,2.646-1.016,2.654,2.784,3.149s1-5.277,1.711-6.414S1904.57,1817.7,1903.918,1817.355Z" transform="translate(-1897.511 -1809.091)"/></g><path class="n" d="M1253.241,2085.667l-6.762-17.559s-16.984,11.3-19.9,25.816a39.921,39.921,0,0,1,14.632,4.072C1242.526,2091.143,1253.241,2085.667,1253.241,2085.667Z" transform="translate(-1226.157 -2018.941)"/><path class="m" d="M1265.658,2234.716s-19.048,10.526-25.354,1.323a7.187,7.187,0,0,1-1.264-5.6,39.942,39.942,0,0,0-14.632-4.072,20.065,20.065,0,0,0,2.05,13.775c11,20.591,41.663-.734,41.663-.734Z" transform="translate(-1223.984 -2151.388)"/><path class="m" d="M1439.989,1950.263l-5.907,16.569a.6.6,0,0,0,.266.724c1.559.881,7.18,3.439,14.025-.809a2.821,2.821,0,0,0,1.318-2l2-14.37Z" transform="translate(-1399.782 -1920.319)"/><g transform="translate(29.356 6.025)"><path class="m" d="M1472.245,1856.62s6.2,11.942,5.344,16.735-8.675,4.373-15.469.409l-4.651-12.876Z" transform="translate(-1448.739 -1847.976)"/><path class="o" d="M1417.695,1823.117a.49.49,0,0,0,.221-.715,12.793,12.793,0,0,1-1.721-3.745s-1.128-.738,2.9-1.662,10.046-2.362,11.339-5.774c1.261-3.327-1.889-11.754-7.106-5.113a.49.49,0,0,1-.776,0c-.834-1.108-3.034-3.411-6.131-2.057-2.9,1.267-3.243,3.379-3.214,4.445a.487.487,0,0,1-.581.493c-1.457-.292-4.955-.565-6.624,3.012-1.374,2.946-.515,4.629.274,5.455a.488.488,0,0,1-.217.809,2.939,2.939,0,0,0-2.1,3.333c.142,3.107,3.617,2.867,4.607,2.735a.49.49,0,0,1,.433.158c.839.946,4.62,4.966,8.749,5.485a.494.494,0,0,0,.525-.648l-1.74-5.217a.492.492,0,0,1,.272-.607Z" transform="translate(-1403.952 -1803.627)"/><path class="m" d="M1467.746,1919.665s-4.465-3.126-4.818-.533,4.011,3.8,6.188,2.853Z" transform="translate(-1453.291 -1899.43)"/></g><g transform="translate(37.739 60.716)"><path class="l" d="M1455.388,2178.159l10.376-36.237a1.057,1.057,0,0,1,.894-.761c1.88-.219,7.328-.835,13.617-1.367,7.576-.641,16.375-1.16,21.632-.718a1.06,1.06,0,0,1,.867,1.526c-2.99,6.049-15.288,30.654-21.446,38.714a1.064,1.064,0,0,1-.856.419l-24.075-.224A1.06,1.06,0,0,1,1455.388,2178.159Z" transform="translate(-1455.346 -2138.912)"/><path class="m" d="M1465.835,2262.462s-1.445-5.943-.862-8.052,1.713-4.82,5.478-4.218a55.128,55.128,0,0,1,8.207,2.189,2.156,2.156,0,0,1-3.086,1.861l1.775,1.373s-.254,2.2-2.671,1.024l1.651,1.821a1.924,1.924,0,0,1-2.817.648C1471.731,2257.949,1470.878,2263.177,1465.835,2262.462Z" transform="translate(-1463.286 -2231.969)"/><path class="f" d="M1603.934,2195.013a3.046,3.046,0,1,0,3.046-3.046A3.046,3.046,0,0,0,1603.934,2195.013Z" transform="translate(-1579.697 -2183.313)"/><path class="k" d="M1522.427,2164.576l-.776-.229,2.112-7.166a3.265,3.265,0,0,1,2.458-2.288c6.7-1.4,24.333-1.683,25.08-1.695l.012.81c-.182,0-18.307.3-24.927,1.677a2.458,2.458,0,0,0-1.847,1.724Z" transform="translate(-1510.836 -2150.868)"/></g></g><g transform="translate(0 167.686)"><path class="d" d="M741.794,2844.653c-1.106,1.636-5.5,38.694-6.19,52.381a1.619,1.619,0,0,0,1.621,1.7h0a1.622,1.622,0,0,0,1.6-1.372l8.041-51.528Z" transform="translate(-735.14 -2836.504)"/><path class="d" d="M964.216,2844.653c1.106,1.636,5.5,38.694,6.19,52.381a1.618,1.618,0,0,1-1.62,1.7h0a1.622,1.622,0,0,1-1.6-1.372l-8.041-51.528Z" transform="translate(-922.217 -2836.504)"/><path class="d" d="M732.776,2799.952l0,.4a5.509,5.509,0,0,0,5.614,5.345l37.166.632a5.557,5.557,0,0,0,5.817-5.043l.019-.37a5.488,5.488,0,0,0-5.6-5.557l-37.182-.666A5.536,5.536,0,0,0,732.776,2799.952Z" transform="translate(-732.772 -2794.696)"/></g><g transform="translate(11.038 57.54)"><g transform="translate(56.354 162.579)"><path class="d" d="M1157.168,3151.964c-6.607,0-9.53-.567-10.837-1.084a2.507,2.507,0,0,0,2.442,1.941h23.373a1.137,1.137,0,0,0,1.1-1.435C1170.577,3151.6,1164.918,3151.964,1157.168,3151.964Z" transform="translate(-1146.264 -3145.213)"/><path class="p" d="M1172.9,3122.311a1.108,1.108,0,0,0-.191-.4c-1.781-2.273-5.357-5.843-10.222-5.774-7.127.1-9.612.874-15.151.043l-1.307,4.331a2.486,2.486,0,0,0-.04,1.292c1.307.517,4.23,1.083,10.837,1.083C1164.576,3122.888,1170.234,3122.525,1172.9,3122.311Z" transform="translate(-1145.922 -3116.137)"/></g><path class="m" d="M1156.188,3087.8l-1.6,5.455s3.553,1.617,6.678.319l.614-4.726Z" transform="translate(-1096.817 -2929.842)"/><g transform="translate(96.235 154.694)"><path class="d" d="M1414.591,3082.513c-5.15,4.138-7.782,5.53-9.124,5.947a2.5,2.5,0,0,0,3.114-.023l18.22-14.64a1.133,1.133,0,0,0-.041-1.8C1424.817,3073.832,1420.632,3077.658,1414.591,3082.513Z" transform="translate(-1403.011 -3071.312)"/><path class="q" d="M1414.162,3068.483a1.088,1.088,0,0,0-.4-.188c-2.8-.648-7.818-1.178-11.568,1.922-5.493,4.542-6.948,6.7-11.783,9.523l1.681,4.178a2.461,2.461,0,0,0,.774,1.027c1.341-.417,3.973-1.809,9.123-5.947C1408.034,3074.144,1412.218,3070.318,1414.162,3068.483Z" transform="translate(-1390.413 -3067.798)"/></g><path class="l" d="M915.013,2706.8s39.555,3.229,47.67,7.049-6.622,57.357-6.622,57.357-2.209,1.063-7.125-.465c0,0,5.04-39.509,1.29-48.076l-42.828-7Z" transform="translate(-889.951 -2610.993)"/><path class="m" d="M1366.319,3082.934c.367.335,3.93,7.521,3.93,7.521s3.966-.858,4.775-3.368l-3.569-6.486Z" transform="translate(-1274.014 -2923.818)"/><path class="l" d="M801.679,2704.775a20.031,20.031,0,0,0-1.236,7.224,10.845,10.845,0,0,0,10.349,10.61l46.761,2.132a2.243,2.243,0,0,1,2.07,1.686c1.1,4.25,6.47,17.3,32.724,43.346a2.116,2.116,0,0,0,2.618.285l3.737-2.361a.861.861,0,0,0,.283-1.163l-27.226-46.493a10.537,10.537,0,0,0-6.4-4.748L825.5,2705.106Z" transform="translate(-800.441 -2609.296)"/><path class="m" d="M1038.636,2259.534s-5.009,8.857-10.116,13.147l10.556,5.89s2.379-9.376,7.813-12.122Z" transform="translate(-991.316 -2236.682)"/><path class="n" d="M802.823,2392.331s12.624,3.076,24.673,0c0,0,16.86-22.666,23.383-28.834,0,0,10.4,16.418,33.564,18.745l1.292-2.886s-18.437-8.5-24.113-21.558-7.956-18.629-13.119-22.036c-3.216-2.122-5.142-3.571-6.137-4.363a1.65,1.65,0,0,0-1.891-.12C834.995,2334.618,809.209,2352.278,802.823,2392.331Z" transform="translate(-802.435 -2296.521)"/><path class="r" d="M1057.074,2463.02a.808.808,0,0,1-.643-.317,50.351,50.351,0,0,1-6.352-11.262.81.81,0,0,1,1.512-.58,49.628,49.628,0,0,0,6.125,10.858.809.809,0,0,1-.642,1.3Z" transform="translate(-1009.313 -2396.365)"/><path class="m" d="M1294.662,2604.562l2.607-.695,7.914-1.833a3.669,3.669,0,0,1,2.782.469l6.805,4.282-18.793-.032Z" transform="translate(-1214.046 -2523.236)"/><g transform="translate(34.296)"><path class="m" d="M1066.579,2178.116s4.868,8.093,5.713,12.565,2.2,7.269-2.89,8.863-9.821-.424-12.79-4.6c0,0-4.637-6.426-4.174-9.368S1066.579,2178.116,1066.579,2178.116Z" transform="translate(-1045.602 -2168.545)"/><path class="o" d="M1023.061,2142.379l.659-.087s-3.447-5.209-1.192-6.5,11.447-4.463,13.043-8.083a6.286,6.286,0,0,0-3.538-8.255.354.354,0,0,0-.425.223l-.163.44a.357.357,0,0,1-.662.019h0a.355.355,0,0,0-.647-.014c-.492,1.085-1.966,2.937-6.386,4.37-6.272,2.033-10.179,5.195-9.7,9.651a.358.358,0,0,1-.51.363c-.513-.227-1.29-.263-2.193.725-1.569,1.717-.34,5.471,3.947,8.129a.355.355,0,0,1,.058.569c-.641.549-1.543,1.773,1.357,2.865,2.967,1.116,4.586.739,5.184.5a.357.357,0,0,0,.219-.4l-.762-3.905a.357.357,0,0,1,.3-.422Z" transform="translate(-1010.696 -2119.44)"/><path class="m" d="M1062.313,2245.331s-2.148-5.3-4.4-3.435,2.085,5.977,4.089,5.921Z" transform="translate(-1049.677 -2221.59)"/></g></g><g transform="translate(82.687 104.498)"><g transform="translate(0 36.652)"><path class="l" d="M1241.393,2635.644l.092,0,40.148-.04a1.793,1.793,0,1,0,0-3.587l-40.148.04a1.794,1.794,0,0,0-.088,3.585Z" transform="translate(-1239.686 -2632.019)"/></g><g transform="translate(40.395)"><path class="l" d="M1504.429,2408.281c-.014.027-.028.054-.041.083l-16.893,36.422a1.794,1.794,0,1,0,3.255,1.509l16.893-36.421a1.794,1.794,0,0,0-3.214-1.592Z" transform="translate(-1487.328 -2407.322)"/></g></g><g transform="translate(152.636 53.083)"><g transform="translate(67.962 118.028)"><rect class="d" width="4.237" height="45.825" transform="translate(20.48 10.268)"/><path class="d" d="M2147.05,3150.843h-37.114a2.759,2.759,0,0,1,2.758-2.758h31.6a2.758,2.758,0,0,1,2.758,2.758Z" transform="translate(-2105.895 -3093.866)"/><rect class="d" width="46.664" height="13.234" rx="6.617"/></g><g transform="translate(4.551 89.134)"><path class="m" d="M1955.161,2691.324a36.885,36.885,0,0,0-13.376,5.709,3.528,3.528,0,0,0-1.557,3.372c.848,6.715,4.333,28.449,15.827,49.676a5.345,5.345,0,0,1,.513,3.667l-2,9.292-3.7,3.472h9.538l6.351-17.186-2.715-.859a5.138,5.138,0,0,1-3.589-4.81l-.318-18.436a20.976,20.976,0,0,0-5.036-13.881l15.232-.741Z" transform="translate(-1900.434 -2682.718)"/><path class="s" d="M1982.5,3061.145c-.869,1.137,9.349,2.637,14.511.151,0,0,7.156-12.45,7.156-18.861,0,0-.568-1.307-4.77-1.01,0,0-2.4,14.742-4.94,16.393s-7.1.167-7.1.167S1983.777,3059.468,1982.5,3061.145Z" transform="translate(-1935.787 -2975.674)"/><path class="m" d="M1786.9,2723.753c-.081-.14-16.4-1.962-16.4-1.962a37.717,37.717,0,0,1-1.135,11.792c-1.669,6.831-25.629,36.424-25.629,36.424l2.512,7.964a40.411,40.411,0,0,1-22.927,1.38l15.57-9.344s14.571-49.657,23.5-58.516l16.358-5.659Z" transform="translate(-1718.929 -2694.859)"/><path class="l" d="M2024.771,2638.562s9.4,13.985,10.174,20.364-2.576,8.971-12.441,9.4-36.2.421-36.2.421l-22.478-19.21s16.381-5.845,20.64-7.5S2024.771,2638.562,2024.771,2638.562Z" transform="translate(-1920.205 -2638.562)"/><path class="t" d="M1722.781,3131.641s2.7,2.62.877,5.534c0,0-21.426,3.8-27.244,2.075,0,0,1.208-2.757,7.759-5.9l-.483.371a.783.783,0,0,0,.517,1.4C1708.524,3134.884,1717.457,3134.093,1722.781,3131.641Z" transform="translate(-1696.415 -3051.211)"/></g><g transform="translate(51.016)"><path class="l" d="M2053.148,2092.564c19.219-3.268,28.268,12.408,27.607,15.7a.6.6,0,0,0,.754.691c2.207-.594,7.082-1.343,10.1,2.443,2.667,3.343.674,6.5-.952,8.229a.606.606,0,0,0,.506,1.025c4.057-.512,12.872-.634,14.314,7.623,1.345,7.7-4.015,9.873-7.194,10.485a.6.6,0,0,0-.2,1.1c1.585,1.006,3.423,3.085,2.681,7.188-1.164,6.43-13.771,5.9-15.245,5.82a.6.6,0,0,1-.263-.079l-20.194-11.517a.609.609,0,0,1-.3-.424l-4.076-23.545a.607.607,0,0,1,.16-.524l-13.164-18.578C2042.91,2097.5,2052.922,2092.6,2053.148,2092.564Z" transform="translate(-2035.774 -2092.119)"/><path class="n" d="M2081.9,2367.129s-10.949-10.426-16.339-17.331a14.65,14.65,0,0,1-2.481-13.186c2.46-8.29,6.833-16.876,7.232-18.213.611-2.048,12.888-1.963,12.888-1.963s24.158,15.679,33.65,42.238l-10.66,3.319s-6.308-10.582-12.54-17.311c0,0,10.784,14.246,11.164,20.079Z" transform="translate(-2049.227 -2279.846)"/><path class="m" d="M2101.443,2228.525c.128.426,3.333,11.049,3.583,11.269s7.027.585,10.217-1.6l-7.912-15.476Z" transform="translate(-2081.841 -2201.419)"/><g transform="translate(0 1.915)"><path class="m" d="M2021.293,2154.293s-1.549,6.085,2.736,14.27,9.135,8.176,11.786,5.556,5.921-7.065,5.144-14.978S2023.53,2146.552,2021.293,2154.293Z" transform="translate(-2014.536 -2142.751)"/><path class="o" d="M2001.765,2120.677s-7.108-10.866-13.774-2.314l-.12,3.111s-7.807-.927-6.441-8.085,8.114-11.633,16.8-8.532,13.668,6.281,14.229,12.508-4.393,4.861-4.393,4.861-1.616-4.385-3.913-4.841-1.7,2.964-1.7,2.964Z" transform="translate(-1981.27 -2103.857)"/><path class="m" d="M2109.81,2172.884s-3.687-5.564.091-6.394,3.192,5.422,2.784,7.735Z" transform="translate(-2087.493 -2156.21)"/></g><path class="m" d="M2044.834,2584.608l8.044-7.754,11.128,4.7s11.077,1.716,17.417,0l6.34-1.716,14.327-4.46,2.25,6.359a3.828,3.828,0,0,1-1.4,4.4,25.3,25.3,0,0,1-3.618,2.254c-1.887.825-46.509-.571-46.509-.571Z" transform="translate(-2034.465 -2496.551)"/></g><g transform="translate(0 49.344)"><path class="l" d="M1980.8,2632.686l-.107,0-46.664-.052a2.088,2.088,0,1,1,0-4.177l46.665.051a2.089,2.089,0,0,1,.1,4.175Z" transform="translate(-1888.968 -2590.318)"/><path class="l" d="M1671.619,2394.626h38.862a7.407,7.407,0,0,1,6.7,4.248l17.966,38.1h-48.3a4.5,4.5,0,0,1-4.186-2.847l-13.932-35.252A3.1,3.1,0,0,1,1671.619,2394.626Z" transform="translate(-1668.512 -2394.626)"/><path class="f" d="M1823.574,2494.405c.842,2.616.22,5.158-1.39,5.676s-3.6-1.183-4.439-3.8-.22-5.157,1.39-5.675S1822.731,2491.789,1823.574,2494.405Z" transform="translate(-1793.088 -2474.872)"/></g></g><g transform="translate(243.93 11.055)"><g transform="translate(28.507 102.233)"><path class="l" d="M2428.187,3119.2a56.739,56.739,0,0,1,.683,5.948,2.562,2.562,0,0,1-2.309,2.7c-4.777.463-15.649,1.319-22.591.317a1.165,1.165,0,0,1-.64-2c2.863-2.667,9.775-7.855,21.154-8.989Z" transform="translate(-2402.959 -3010.174)"/><path class="m" d="M2529.868,3078.878l-2.415,5.919a1.972,1.972,0,0,1-2.025,1.224,10.787,10.787,0,0,1-1.973-.382,2.592,2.592,0,0,1-1.723-3.223l1.823-6.1Z" transform="translate(-2502.267 -2975.985)"/><path class="l" d="M2790.139,3158.486s-4.836,4.046-6.72,9.236a2.207,2.207,0,0,0,2.1,2.931h9.951a2.347,2.347,0,0,0,2.32-2.745C2797.152,3164.324,2795.324,3158.5,2790.139,3158.486Z" transform="translate(-2721.251 -3044.748)"/><path class="m" d="M2823.968,3122.419s-.977,4.323-1.728,7.181a.913.913,0,0,1-1.195.623,8.328,8.328,0,0,0-3.622-.657.7.7,0,0,1-.777-.7l-.094-7.182Z" transform="translate(-2749.088 -3013.947)"/><path class="l" d="M2553.432,2472.4l-29.414,89.734s5.642,3.695,8.33,3.541l34.937-72.116s6.114,44.435,3.151,76.336l10.007.763s16.271-81.523,3.947-109.446Z" transform="translate(-2504.271 -2461.211)"/><path class="f" d="M2780.789,2605.354l.036,0a.285.285,0,0,0,.247-.318l-1.141-9.06a.285.285,0,1,0-.565.071l1.141,9.06A.285.285,0,0,0,2780.789,2605.354Z" transform="translate(-2717.965 -2573.783)"/></g><path class="n" d="M2523.619,2045.719s23.831,2.116,20.459,19.1c0,0,13.173,24.79,19.332,53.993a1.717,1.717,0,0,1-1.394,2.041l-39.686,6.795a2.136,2.136,0,0,1-2.429-1.571l-9.483-36.647-3.695,17.039-11.741-3.059,9.884-50.067S2506.247,2046.033,2523.619,2045.719Z" transform="translate(-2451.466 -2011.26)"/><path class="u" d="M2569.89,2222.654a.31.31,0,0,0,.063-.007.3.3,0,0,0,.226-.352l-3.308-15.19a.3.3,0,1,0-.578.126l3.308,15.189A.3.3,0,0,0,2569.89,2222.654Z" transform="translate(-2511.138 -2146.126)"/><path class="m" d="M2560.937,2446.622a5.669,5.669,0,0,1,4.1-.533l2.761.688a1,1,0,0,0,1.236-.859l2.857-25.433c3.573,1.7,8.727,1.494,10.427,1.37l-6.576,29.983h-23.014Z" transform="translate(-2499.79 -2324.894)"/><path class="m" d="M2228.2,2153.8l.7-2.312a4.572,4.572,0,0,1,2.672-2.925l12.581-5.059s.19-1.613-2.658-2.71-2.182-4.286-2.182-4.286,3.891,1.775,9.587,4.59a13.332,13.332,0,0,1,6.055,6.592l28.508,34.753-3.347,2.3a8.936,8.936,0,0,1-12.956-3.179l-15.444-29.614A57.568,57.568,0,0,1,2228.2,2153.8Z" transform="translate(-2228.196 -2087.242)"/><g transform="translate(36.933)"><path class="m" d="M2584.26,1945.092l7.33,20.514s-6.49,5.074-11.227,3.358l-3.693-11.759S2579.49,1942.833,2584.26,1945.092Z" transform="translate(-2556.76 -1926.845)"/><path class="m" d="M2489.1,1880.225c0,.316,7.06,19.987,7.06,19.987l11.146-4.27-3.922-19.638S2489.1,1874.933,2489.1,1880.225Z" transform="translate(-2483.472 -1869.346)"/><path class="o" d="M2472.571,1846.207l2.874,10.176a1.462,1.462,0,0,1,.056.4c0,.83-.2,3.686-3.113,3.3-2.64-.353-5.054-.635-6.589.088a1.476,1.476,0,0,0-.761,1.835,63.792,63.792,0,0,0,4.015,9.061,1.473,1.473,0,0,0,1.895.607,47.6,47.6,0,0,0,9.557-5.622,1.476,1.476,0,0,0,.522-1.418c-.488-2.6-1.944-10.521-2.008-12.79-.06-2.13,2.33-3.755,3.382-4.367a1.453,1.453,0,0,0,.684-.918c.33-1.371.61-4.473-3.347-5.157a1.479,1.479,0,0,1-1.2-1.759c.335-1.64.228-4.052-2.885-4.941a5.411,5.411,0,0,0-6.168,2.462,1.478,1.478,0,0,1-1.832.489,1.169,1.169,0,0,0-1.31.235,1.455,1.455,0,0,1-2.129-.324,4.41,4.41,0,0,0-5.437-1.8c-5.036,1.629-4.8,7.436-2.95,10.592s7.206,1.079,9.743-1.012c1.929-1.59,4.866-.639,6.163-.092A1.465,1.465,0,0,1,2472.571,1846.207Z" transform="translate(-2454.618 -1834.464)"/><path class="m" d="M2601.762,1920.549s-2.98-5.638-1.009-7.408,5.31-1.481,5.22,2.928C2605.861,1921.552,2601.762,1920.549,2601.762,1920.549Z" transform="translate(-2576.352 -1899.458)"/></g><path class="v" d="M2669.426,2220.99a28.534,28.534,0,0,0,2.913-.137l.211-.023,8.677-40.458a.3.3,0,1,0-.578-.124l-8.587,40.038c-1.291.114-8.187.571-11.828-2.008l7.517-35.15-1.569-2.957a.3.3,0,0,0-.522.277l1.469,2.767-7.552,35.311.151.114C2662.358,2220.615,2666.6,2220.99,2669.426,2220.99Z" transform="translate(-2589.211 -2123.648)"/></g><g transform="translate(62.491 147.99)"><path class="f" d="M1117.389,2757.707a1.4,1.4,0,0,1-.6-.135,1.71,1.71,0,0,1-.792-2.168l31.709-80.456a1.468,1.468,0,0,1,1.986-.864,1.71,1.71,0,0,1,.791,2.168l-31.709,80.456A1.514,1.514,0,0,1,1117.389,2757.707Z" transform="translate(-1115.877 -2673.949)"/><path class="f" d="M1173.689,2757.7a1.514,1.514,0,0,1-1.39-1l-31.709-80.456a1.71,1.71,0,0,1,.792-2.168,1.467,1.467,0,0,1,1.986.864l31.709,80.456a1.71,1.71,0,0,1-.792,2.168A1.4,1.4,0,0,1,1173.689,2757.7Z" transform="translate(-1136.456 -2673.948)"/><path class="f" d="M2436.682,2757.707a1.4,1.4,0,0,1-.6-.135,1.711,1.711,0,0,1-.792-2.168L2467,2674.948a1.467,1.467,0,0,1,1.986-.864,1.71,1.71,0,0,1,.792,2.168l-31.709,80.456A1.515,1.515,0,0,1,2436.682,2757.707Z" transform="translate(-2219.97 -2673.949)"/><path class="f" d="M2492.981,2757.7a1.514,1.514,0,0,1-1.39-1l-31.708-80.456a1.71,1.71,0,0,1,.791-2.168,1.467,1.467,0,0,1,1.987.864l31.709,80.456a1.71,1.71,0,0,1-.792,2.168A1.4,1.4,0,0,1,2492.981,2757.7Z" transform="translate(-2240.548 -2673.948)"/></g><g transform="translate(273.201 137.495)"><path class="w" d="M2416.231,2620.917h45.926v-4.74h-45.926C2417.214,2616.177,2417.214,2620.917,2416.231,2620.917Z" transform="translate(-2414.831 -2615.106)"/><path class="x" d="M2454.426,2615.418a.547.547,0,0,0,.545-.545v-3.648a.547.547,0,0,0-.545-.546h-46.235a.536.536,0,1,1,0-1.072h49.41a1.984,1.984,0,0,1,1.984,1.983v3.03a1.87,1.87,0,0,1-1.87,1.87h-49.524a.536.536,0,1,1,0-1.072Z" transform="translate(-2407.645 -2609.607)"/></g><path class="f" d="M1296.976,2653.8a1.4,1.4,0,0,0-.573-1.492,3.406,3.406,0,0,0-2.1-.656H1019.122a3.721,3.721,0,0,0-2.639.958,1.5,1.5,0,0,0-.2,1.991l2.982,4.281a4.651,4.651,0,0,0,3.791,1.608h269.365c1.515,0,2.816-.712,3.1-1.7Z" transform="translate(-969.792 -2507.296)"/></g></g></svg>