<svg xmlns="http://www.w3.org/2000/svg" width="110.776" height="110.776" viewBox="0 0 110.776 110.776"><defs><style>.a{fill:#449eff;}.b{fill:#d3a06c;}.c{fill:#fcd770;}.d{fill:#e6e9ed;}.e{fill:#37bc9b;}.f{fill:#5cd6b3;}.g{fill:#169878;}</style></defs><g transform="translate(-2 -2.289)"><circle class="a" cx="55.388" cy="55.388" r="55.388" transform="translate(2 2.289)"/><path class="b" d="M244.516,16h-51.1A1.424,1.424,0,0,0,192,17.419V55.742h31.226V38.71h22.71V17.419A1.424,1.424,0,0,0,244.516,16Z" transform="translate(-151.355 -6.581)"/><path class="c" d="M323.355,16V27.355l-2.839-2.839-2.839,2.839-2.839-2.839L312,27.355V16Z" transform="translate(-250.065 -6.581)"/><path class="d" d="M368,161.032V144h22.71v24.129a1.424,1.424,0,0,1-1.419,1.419h-4.258v-8.516Z" transform="translate(-296.129 -111.871)"/><path class="e" d="M72.516,192v8.516H68.258a4.258,4.258,0,0,1,0-8.516Z" transform="translate(-46.065 -151.355)"/><path class="f" d="M68.258,220.258h66.71V260H129.29V225.935H64V216A4.252,4.252,0,0,0,68.258,220.258Z" transform="translate(-46.065 -171.097)"/><path class="e" d="M89.806,306.065v5.677H16V272H89.806Z" transform="translate(-6.581 -217.161)"/><path class="f" d="M55.1,304H79.226a14.194,14.194,0,1,0,0,28.387H55.1a7.1,7.1,0,0,0-7.1-7.1V311.1A7.1,7.1,0,0,0,55.1,304Z" transform="translate(-32.903 -243.484)"/><path class="f" d="M255.226,311.1V325.29a7.1,7.1,0,0,0-7.1,7.1H224A14.194,14.194,0,1,0,224,304h24.129A7.1,7.1,0,0,0,255.226,311.1Z" transform="translate(-177.677 -243.484)"/><g transform="translate(15.097 60.516)"><path class="d" d="M55.1,431.1H48V424A7.1,7.1,0,0,1,55.1,431.1Z" transform="translate(-48 -402.71)"/><path class="d" d="M48,304h7.1a7.1,7.1,0,0,1-7.1,7.1Z" transform="translate(-48 -304)"/><path class="d" d="M367.1,424v7.1H360A7.1,7.1,0,0,1,367.1,424Z" transform="translate(-304.645 -402.71)"/><path class="d" d="M367.1,304v7.1A7.1,7.1,0,0,1,360,304Z" transform="translate(-304.645 -304)"/></g><ellipse class="c" cx="14.5" cy="14" rx="14.5" ry="14" transform="translate(32 61)"/><path class="g" d="M205.677,328h-2.839v2.839H200v8.516h5.677v2.839H200v2.839h2.839v2.839h2.839v-2.839h2.839v-8.516h-5.677v-2.839h5.677v-2.839h-2.839Z" transform="translate(-157.935 -263.226)"/><path class="g" d="M105.29,327.226V296H40v31.226Zm-6.9-2.839a5.668,5.668,0,0,1,4.057-4.057v4.057Zm4.057-21.492a5.668,5.668,0,0,1-4.057-4.057h4.057Zm-6.969-4.057a8.526,8.526,0,0,0,6.969,6.969v11.612a8.526,8.526,0,0,0-6.969,6.969H81.593a15.576,15.576,0,0,0,0-25.55ZM72.645,324.387a12.774,12.774,0,1,1,12.774-12.774A12.788,12.788,0,0,1,72.645,324.387ZM46.9,298.839a5.665,5.665,0,0,1-4.057,4.057v-4.057Zm-4.057,21.492a5.665,5.665,0,0,1,4.057,4.057H42.839Zm6.969,4.057a8.526,8.526,0,0,0-6.969-6.969v-11.61a8.526,8.526,0,0,0,6.969-6.969H63.7a15.575,15.575,0,0,0,0,25.548Z" transform="translate(-26.323 -236.903)"/><path class="c" d="M392,200h14.194v2.839H392Z" transform="translate(-315.871 -157.935)"/><path class="b" d="M392,168h2.839v2.839H392Z" transform="translate(-315.871 -131.613)"/><path class="b" d="M424,168h8.516v2.839H424Z" transform="translate(-342.194 -131.613)"/></g></svg>