<svg xmlns="http://www.w3.org/2000/svg" width="111.658" height="110.776" viewBox="0 0 111.658 110.776"><defs><style>.a{fill:#449eff;}.b{fill:#445ea0;}.c{fill:#293d7c;}.d{fill:#1a2b63;}.e{fill:#3340d8;}.f{fill:#6e75e2;}.g{fill:#f6f9f9;}.h{fill:#e2dff4;}.i{fill:#00cb75;}.j{fill:#ffaf10;}.k{fill:#91e0e8;}</style></defs><g transform="translate(0 -8.781)"><circle class="a" cx="55.388" cy="55.388" r="55.388" transform="translate(0.883 8.782)"/><rect class="b" width="23.553" height="9.037" transform="translate(44.053 93.449)"/><g transform="translate(33.039 93.449)"><rect class="c" width="4.327" height="9.037" transform="translate(11.014 0)"/><path class="c" d="M197.078,434.535a1.094,1.094,0,0,1-1.09,1.09h-43.4a1.094,1.094,0,0,1-1.09-1.09v-4.362a1.094,1.094,0,0,1,1.09-1.09h43.4a1.094,1.094,0,0,1,1.09,1.09Z" transform="translate(-151.498 -420.265)"/></g><path class="d" d="M160.153,434.535v-4.362a1.094,1.094,0,0,1,1.09-1.09h-8.655a1.094,1.094,0,0,0-1.09,1.09v4.362a1.094,1.094,0,0,0,1.09,1.09h8.655A1.094,1.094,0,0,1,160.153,434.535Z" transform="translate(-118.459 -326.816)"/><path class="e" d="M0,345.814A2.187,2.187,0,0,0,2.181,348h107.3a2.187,2.187,0,0,0,2.181-2.181v-9.436H0Z" transform="translate(0 -254.329)"/><path class="d" d="M4.327,345.814v-9.436H0v9.436A2.187,2.187,0,0,0,2.181,348H6.508A2.187,2.187,0,0,1,4.327,345.814Z" transform="translate(0 -254.329)"/><path class="f" d="M108.974,46.917H2.684A2.692,2.692,0,0,0,0,49.6v60.661H111.658V49.6A2.692,2.692,0,0,0,108.974,46.917Z" transform="translate(0 -27.994)"/><path class="g" d="M22.72,123.259a1.108,1.108,0,0,1-1.1-1.1V71.073a1.108,1.108,0,0,1,1.1-1.1H122.741a1.108,1.108,0,0,1,1.1,1.1v51.081a1.108,1.108,0,0,1-1.1,1.1Z" transform="translate(-16.901 -46.019)"/><path class="h" d="M67.347,122.155V71.073c0-.607,4.822-1.1,10.714-1.1H32.331c-5.892,0-10.716.5-10.716,1.1v51.081c0,.608,4.822,1.1,10.716,1.1H78.064C72.171,123.259,67.347,122.762,67.347,122.155Z" transform="translate(-16.901 -46.019)"/><g transform="translate(52.412 30.764)"><path class="i" d="M245.239,118.17a.656.656,0,0,1-.654.654h-3.6a.656.656,0,0,1-.654-.654v-16.3a.656.656,0,0,1,.654-.654h3.6a.656.656,0,0,1,.654.654Z" transform="translate(-240.332 -101.216)"/><path class="i" d="M275.237,139.552a.656.656,0,0,1-.654.654h-3.6a.656.656,0,0,1-.654-.654V129.216a.656.656,0,0,1,.654-.654h3.6a.656.656,0,0,1,.654.654Z" transform="translate(-263.789 -122.598)"/><path class="i" d="M305.236,150.755a.656.656,0,0,1-.654.654h-3.6a.656.656,0,0,1-.654-.654v-7.212a.656.656,0,0,1,.654-.654h3.6a.656.656,0,0,1,.654.654Z" transform="translate(-287.245 -133.801)"/><path class="i" d="M335.234,129.371a.656.656,0,0,1-.654.654h-3.6a.656.656,0,0,1-.654-.654V116.2a.656.656,0,0,1,.654-.654h3.6a.656.656,0,0,1,.654.654Z" transform="translate(-310.701 -112.417)"/><path class="i" d="M365.233,144.644a.656.656,0,0,1-.654.654h-3.6a.656.656,0,0,1-.654-.654v-8.916a.656.656,0,0,1,.654-.654h3.6a.656.656,0,0,1,.654.654Z" transform="translate(-334.157 -127.69)"/></g><g transform="translate(52.412 51.755)"><path class="j" d="M360.325,214.421a.656.656,0,0,0,.654.654h3.6a.656.656,0,0,0,.654-.654v-16.3a.656.656,0,0,0-.654-.654h-3.6a.656.656,0,0,0-.654.654Z" transform="translate(-334.156 -197.467)"/><path class="j" d="M330.327,235.8a.656.656,0,0,0,.654.654h3.6a.656.656,0,0,0,.654-.654V225.468a.656.656,0,0,0-.654-.654h-3.6a.656.656,0,0,0-.654.654Z" transform="translate(-310.7 -218.85)"/><path class="j" d="M300.328,247.006a.656.656,0,0,0,.654.654h3.6a.656.656,0,0,0,.654-.654v-7.212a.656.656,0,0,0-.654-.654h-3.6a.656.656,0,0,0-.654.654Z" transform="translate(-287.244 -230.052)"/><path class="j" d="M270.329,225.622a.656.656,0,0,0,.654.654h3.6a.656.656,0,0,0,.654-.654V212.446a.656.656,0,0,0-.654-.654h-3.6a.656.656,0,0,0-.654.654Z" transform="translate(-263.787 -208.668)"/><path class="j" d="M240.331,240.9a.656.656,0,0,0,.654.654h3.6a.656.656,0,0,0,.654-.654V231.98a.656.656,0,0,0-.654-.654h-3.6a.656.656,0,0,0-.654.654Z" transform="translate(-240.331 -223.942)"/></g><g transform="translate(86.893 34.233)"><path class="k" d="M411.114,120.39h-11.04a1.636,1.636,0,1,1,0-3.271h11.04a1.636,1.636,0,1,1,0,3.271Z" transform="translate(-398.438 -117.119)"/><path class="k" d="M411.114,141.7h-11.04a1.636,1.636,0,0,1,0-3.271h11.04a1.636,1.636,0,1,1,0,3.271Z" transform="translate(-398.438 -133.782)"/><path class="k" d="M411.114,163.01h-11.04a1.636,1.636,0,0,1,0-3.271h11.04a1.636,1.636,0,1,1,0,3.271Z" transform="translate(-398.438 -150.444)"/><path class="k" d="M406.943,184.32h-6.87a1.636,1.636,0,0,1,0-3.271h6.87a1.636,1.636,0,0,1,0,3.271Z" transform="translate(-398.438 -167.107)"/><path class="k" d="M411.114,223.7h-11.04a1.636,1.636,0,0,1,0-3.271h11.04a1.636,1.636,0,1,1,0,3.271Z" transform="translate(-398.438 -197.9)"/><path class="k" d="M411.114,245.01h-11.04a1.636,1.636,0,0,1,0-3.271h11.04a1.636,1.636,0,1,1,0,3.271Z" transform="translate(-398.438 -214.562)"/><path class="k" d="M406.943,266.32h-6.87a1.636,1.636,0,0,1,0-3.271h6.87a1.636,1.636,0,0,1,0,3.271Z" transform="translate(-398.438 -231.224)"/><path class="k" d="M468.328,352.674a.656.656,0,0,1-.654.654h-3.853a.656.656,0,0,1-.654-.654v-3.853a.656.656,0,0,1,.654-.654h3.853a.656.656,0,0,1,.654.654Z" transform="translate(-449.051 -297.779)"/></g><path class="j" d="M142.613,121.318a.654.654,0,0,1-.654-.654V103.708a.654.654,0,0,1,.654-.654h.024a18.339,18.339,0,0,1,17.585,17.586.654.654,0,0,1-.654.678Z" transform="translate(-116.177 -72.29)"/><g transform="translate(7.512 33.485)"><path class="k" d="M69.53,146.495a18.277,18.277,0,0,1-.678-36.54h.024a.654.654,0,0,1,.654.654v17.61h17.61a.654.654,0,0,1,.654.678,18.3,18.3,0,0,1-18.264,17.6Z" transform="translate(-51.253 -109.954)"/><path class="k" d="M72.657,157.259a18.266,18.266,0,0,1-14.384-29.538,18.588,18.588,0,0,0-1.883,1.7A18.268,18.268,0,0,0,82.22,155.25a18.585,18.585,0,0,0,1.7-1.883A18.153,18.153,0,0,1,72.657,157.259Z" transform="translate(-51.252 -123.846)"/></g></g></svg>