<svg xmlns="http://www.w3.org/2000/svg" xmlns:xlink="http://www.w3.org/1999/xlink" width="558" height="729" viewBox="0 0 558 729"><defs><style>.a,.c{fill:#fff;}.a{stroke:#e6e6e6;}.b,.f{fill:url(#c);}.c{stroke:#bbb;stroke-width:0.5px;}.d{clip-path:url(#f);}.e{clip-path:url(#g);}.f{fill-rule:evenodd;}.g{fill:#959595;font-size:27px;font-family:SFProDisplay-Regular, SF Pro Display;}.h{fill:#007bff;font-family:SFProDisplay-Heavy, SF Pro Display;font-weight:800;}.i{stroke:none;}.j{fill:none;}.k{filter:url(#d);}.l{filter:url(#a);}</style><filter id="a" x="4" y="7" width="550" height="715" filterUnits="userSpaceOnUse"><feOffset dx="64" dy="49" input="SourceAlpha"/><feGaussianBlur stdDeviation="49.5" result="b"/><feFlood flood-color="#686767" flood-opacity="0.161"/><feComposite operator="in" in2="b"/><feComposite in="SourceGraphic"/></filter><radialGradient id="c" cx="-30.565" cy="6.02" r="64.63" gradientTransform="translate(0 3.096) scale(1 0.486)" gradientUnits="objectBoundingBox"><stop offset="0" stop-color="#dfdfdf"/><stop offset="1" stop-color="#fff"/></radialGradient><filter id="d" x="0" y="0" width="558" height="729" filterUnits="userSpaceOnUse"><feOffset dx="64" dy="49" input="SourceAlpha"/><feGaussianBlur stdDeviation="49.5" result="e"/><feFlood flood-color="#686767" flood-opacity="0.161"/><feComposite operator="in" in2="e"/><feComposite in="SourceGraphic"/></filter><clipPath id="f"><g class="l" transform="matrix(1, 0, 0, 1, 0, 0)"><rect class="a" width="418" height="253" rx="22" transform="translate(828.02 675.78)"/></g></clipPath><clipPath id="g"><rect class="b" width="579.704" height="420.569" transform="translate(0)"/></clipPath></defs><g transform="translate(979.5 -728.5) rotate(90)"><g class="k" transform="matrix(0, -1, 1, 0, 728.5, 979.5)"><g class="c" transform="translate(345.5 99.5) rotate(90)"><rect class="i" width="432" height="261" rx="22"/><rect class="j" x="0.25" y="0.25" width="431.5" height="260.5" rx="21.75"/></g></g><g class="d" transform="translate(6.985 -37.782)"><g transform="translate(747.163 578.252)"><g class="e" transform="translate(0)"><g transform="translate(9.851 9.851)"><path class="f" d="M1123.445,577.934a1.51,1.51,0,1,0-1.506-1.514,1.518,1.518,0,0,0,1.506,1.514Z" transform="translate(-735.459 -381.673)"/><path class="f" d="M1155.619,577.934a1.51,1.51,0,1,0-1.506-1.514,1.518,1.518,0,0,0,1.506,1.514Z" transform="translate(-756.267 -381.673)"/><path class="f" d="M1187.793,610.108a1.51,1.51,0,1,0-1.506-1.506,1.511,1.511,0,0,0,1.506,1.506Z" transform="translate(-777.076 -402.481)"/><path class="f" d="M1252.15,577.934a1.51,1.51,0,1,0-1.515-1.514,1.511,1.511,0,0,0,1.515,1.514Z" transform="translate(-818.692 -381.673)"/><path class="f" d="M1219.976,642.282a1.51,1.51,0,1,0-1.514-1.506,1.509,1.509,0,0,0,1.514,1.506Z" transform="translate(-797.884 -423.29)"/><path class="f" d="M1378.876,610.108a1.51,1.51,0,1,0-1.506-1.506,1.516,1.516,0,0,0,1.506,1.506Z" transform="translate(-900.658 -402.481)"/><path class="f" d="M1413.034,577.934a1.51,1.51,0,1,0-1.506-1.514,1.512,1.512,0,0,0,1.506,1.514Z" transform="translate(-922.749 -381.673)"/><path class="f" d="M1380.86,513.586a1.51,1.51,0,1,0-1.506-1.514,1.518,1.518,0,0,0,1.506,1.514Z" transform="translate(-901.941 -340.056)"/><path class="f" d="M415.534,417.041a1.51,1.51,0,1,0-1.514-1.506,1.509,1.509,0,0,0,1.514,1.506Z" transform="translate(-277.616 -277.616)"/><path class="f" d="M447.708,449.215a1.51,1.51,0,1,0-1.514-1.506,1.509,1.509,0,0,0,1.514,1.506Z" transform="translate(-298.425 -298.425)"/><path class="f" d="M576.427,449.215a1.51,1.51,0,1,0-1.514-1.506,1.509,1.509,0,0,0,1.514,1.506Z" transform="translate(-381.673 -298.425)"/><path class="f" d="M512.071,384.867a1.51,1.51,0,1,0-1.506-1.506,1.516,1.516,0,0,0,1.506,1.506Z" transform="translate(-340.056 -256.809)"/><path class="f" d="M512.071,320.519a1.51,1.51,0,1,0-1.506-1.514,1.518,1.518,0,0,0,1.506,1.514Z" transform="translate(-340.056 -215.192)"/><path class="f" d="M576.427,256.164a1.506,1.506,0,1,0-1.514-1.506,1.509,1.509,0,0,0,1.514,1.506Z" transform="translate(-381.673 -173.575)"/><path class="f" d="M222.468,417.041a1.51,1.51,0,1,0-1.514-1.506,1.509,1.509,0,0,0,1.514,1.506Z" transform="translate(-152.752 -277.616)"/><path class="f" d="M319.005,577.934a1.51,1.51,0,1,0-1.506-1.514,1.512,1.512,0,0,0,1.506,1.514Z" transform="translate(-215.192 -381.673)"/><path class="f" d="M286.831,577.934a1.51,1.51,0,1,0-1.506-1.514,1.518,1.518,0,0,0,1.506,1.514Z" transform="translate(-194.384 -381.673)"/><path class="f" d="M383.361,610.108a1.51,1.51,0,1,0-1.514-1.506,1.509,1.509,0,0,0,1.514,1.506Z" transform="translate(-256.809 -402.481)"/><path class="f" d="M479.9,706.653a1.51,1.51,0,1,0-1.506-1.514,1.523,1.523,0,0,0,1.506,1.514Z" transform="translate(-319.248 -464.921)"/><path class="f" d="M512.071,610.108a1.51,1.51,0,1,0-1.506-1.506,1.516,1.516,0,0,0,1.506,1.506Z" transform="translate(-340.056 -402.481)"/><path class="f" d="M544.245,577.934a1.51,1.51,0,1,0-1.506-1.514,1.512,1.512,0,0,0,1.506,1.514Z" transform="translate(-360.865 -381.673)"/><path class="f" d="M447.708,738.827a1.51,1.51,0,1,0-1.514-1.514,1.511,1.511,0,0,0,1.514,1.514Z" transform="translate(-298.425 -485.73)"/><path class="f" d="M576.427,867.523a1.51,1.51,0,1,0-1.514-1.506,1.509,1.509,0,0,0,1.514,1.506Z" transform="translate(-381.673 -568.963)"/><path class="f" d="M608.6,931.893a1.51,1.51,0,1,0-1.514-1.514,1.516,1.516,0,0,0,1.514,1.514Z" transform="translate(-402.481 -610.595)"/><path class="f" d="M608.6,1124.96a1.51,1.51,0,1,0-1.514-1.514,1.516,1.516,0,0,0,1.514,1.514Z" transform="translate(-402.481 -735.459)"/><path class="f" d="M801.668,1060.589a1.51,1.51,0,1,0-1.514-1.506,1.509,1.509,0,0,0,1.514,1.506Z" transform="translate(-527.346 -693.827)"/><path class="f" d="M930.378,996.241a1.51,1.51,0,1,0-1.506-1.514,1.517,1.517,0,0,0,1.506,1.514Z" transform="translate(-610.594 -652.211)"/><path class="f" d="M866.016,899.719a1.51,1.51,0,1,0-1.514-1.514,1.516,1.516,0,0,0,1.514,1.514Z" transform="translate(-568.963 -589.786)"/><path class="f" d="M1154.647,996.241a1.51,1.51,0,1,0-1.514-1.514,1.51,1.51,0,0,0,1.514,1.514Z" transform="translate(-755.634 -652.211)"/><path class="f" d="M1123.445,835.349a1.51,1.51,0,1,0-1.506-1.506,1.516,1.516,0,0,0,1.506,1.506Z" transform="translate(-735.459 -548.155)"/><path class="f" d="M1187.793,803.175a1.51,1.51,0,1,0-1.506-1.506,1.511,1.511,0,0,0,1.506,1.506Z" transform="translate(-777.076 -527.346)"/><path class="f" d="M1219.976,738.827a1.51,1.51,0,1,0-1.514-1.514,1.511,1.511,0,0,0,1.514,1.514Z" transform="translate(-797.884 -485.73)"/><path class="f" d="M1187.793,674.456a1.51,1.51,0,1,0-1.506-1.506,1.511,1.511,0,0,0,1.506,1.506Z" transform="translate(-777.076 -444.098)"/><path class="f" d="M1219.976,481.412a1.51,1.51,0,1,0-1.514-1.514,1.516,1.516,0,0,0,1.514,1.514Z" transform="translate(-797.884 -319.248)"/><path class="f" d="M1187.793,481.412a1.51,1.51,0,1,0-1.506-1.514,1.518,1.518,0,0,0,1.506,1.514Z" transform="translate(-777.076 -319.248)"/><path class="f" d="M1187.793,384.867a1.51,1.51,0,1,0-1.506-1.506,1.511,1.511,0,0,0,1.506,1.506Z" transform="translate(-777.076 -256.809)"/><path class="f" d="M1219.976,288.345a1.51,1.51,0,1,0-1.514-1.514,1.516,1.516,0,0,0,1.514,1.514Z" transform="translate(-797.884 -194.384)"/><path class="f" d="M994.726,256.164a1.506,1.506,0,1,0-1.506-1.506,1.511,1.511,0,0,0,1.506,1.506Z" transform="translate(-652.211 -173.575)"/><path class="f" d="M930.378,127.453a1.51,1.51,0,1,0-1.506-1.514,1.518,1.518,0,0,0,1.506,1.514Z" transform="translate(-610.594 -90.327)"/><path class="f" d="M737.312,127.453a1.51,1.51,0,1,0-1.506-1.514,1.513,1.513,0,0,0,1.506,1.514Z" transform="translate(-485.73 -90.327)"/><path class="f" d="M415.534,674.456a1.51,1.51,0,1,0-1.514-1.506,1.509,1.509,0,0,0,1.514,1.506Z" transform="translate(-277.616 -444.098)"/><path class="f" d="M447.708,320.519a1.51,1.51,0,1,0-1.514-1.514,1.511,1.511,0,0,0,1.514,1.514Z" transform="translate(-298.425 -215.192)"/><path class="f" d="M479.9,320.519a1.51,1.51,0,1,0-1.506-1.514,1.518,1.518,0,0,0,1.506,1.514Z" transform="translate(-319.248 -215.192)"/><path class="f" d="M447.708,352.693a1.51,1.51,0,1,0-1.514-1.514,1.511,1.511,0,0,0,1.514,1.514Z" transform="translate(-298.425 -236)"/><path class="f" d="M415.534,384.867a1.51,1.51,0,1,0-1.514-1.506,1.509,1.509,0,0,0,1.514,1.506Z" transform="translate(-277.616 -256.809)"/><path class="f" d="M351.179,352.693a1.51,1.51,0,1,0-1.506-1.514,1.512,1.512,0,0,0,1.506,1.514Z" transform="translate(-236 -236)"/><path class="f" d="M319.005,352.693a1.51,1.51,0,1,0-1.506-1.514,1.512,1.512,0,0,0,1.506,1.514Z" transform="translate(-215.192 -236)"/><path class="f" d="M351.179,320.519a1.51,1.51,0,1,0-1.506-1.514,1.512,1.512,0,0,0,1.506,1.514Z" transform="translate(-236 -215.192)"/><path class="f" d="M383.361,352.693a1.51,1.51,0,1,0-1.514-1.514,1.511,1.511,0,0,0,1.514,1.514Z" transform="translate(-256.809 -236)"/><path class="f" d="M319.005,384.867a1.51,1.51,0,1,0-1.506-1.506,1.511,1.511,0,0,0,1.506,1.506Z" transform="translate(-215.192 -256.809)"/><path class="f" d="M125.938,320.519a1.51,1.51,0,1,0-1.506-1.514,1.513,1.513,0,0,0,1.506,1.514Z" transform="translate(-90.327 -215.192)"/><path class="f" d="M351.179,256.164a1.506,1.506,0,1,0-1.506-1.506,1.511,1.511,0,0,0,1.506,1.506Z" transform="translate(-236 -173.575)"/><path class="f" d="M479.9,256.164a1.506,1.506,0,1,0-1.506-1.506,1.516,1.516,0,0,0,1.506,1.506Z" transform="translate(-319.248 -173.575)"/><path class="f" d="M415.534,191.8a1.51,1.51,0,1,0-1.514-1.506,1.509,1.509,0,0,0,1.514,1.506Z" transform="translate(-277.616 -131.944)"/><path class="f" d="M447.708,191.8a1.51,1.51,0,1,0-1.514-1.506,1.509,1.509,0,0,0,1.514,1.506Z" transform="translate(-298.425 -131.944)"/><path class="f" d="M544.245,223.975a1.51,1.51,0,1,0-1.506-1.506,1.511,1.511,0,0,0,1.506,1.506Z" transform="translate(-360.865 -152.752)"/><path class="f" d="M576.427,191.8a1.51,1.51,0,1,0-1.514-1.506,1.509,1.509,0,0,0,1.514,1.506Z" transform="translate(-381.673 -131.944)"/><path class="f" d="M672.964,223.975a1.51,1.51,0,1,0-1.506-1.506,1.509,1.509,0,0,0,1.506,1.506Z" transform="translate(-444.113 -152.752)"/><path class="f" d="M705.138,223.975a1.51,1.51,0,1,0-1.506-1.506,1.516,1.516,0,0,0,1.506,1.506Z" transform="translate(-464.921 -152.752)"/><path class="f" d="M705.138,352.693a1.51,1.51,0,1,0-1.506-1.514,1.518,1.518,0,0,0,1.506,1.514Z" transform="translate(-464.921 -236)"/><path class="f" d="M769.486,352.693a1.51,1.51,0,1,0-1.506-1.514,1.513,1.513,0,0,0,1.506,1.514Z" transform="translate(-506.538 -236)"/><path class="f" d="M833.842,320.519a1.51,1.51,0,1,0-1.515-1.514,1.511,1.511,0,0,0,1.515,1.514Z" transform="translate(-548.155 -215.192)"/><path class="f" d="M866.016,256.164a1.506,1.506,0,1,0-1.514-1.506,1.509,1.509,0,0,0,1.514,1.506Z" transform="translate(-568.963 -173.575)"/><path class="f" d="M833.842,191.8a1.51,1.51,0,1,0-1.515-1.506,1.509,1.509,0,0,0,1.515,1.506Z" transform="translate(-548.155 -131.944)"/><path class="f" d="M833.842,127.453a1.51,1.51,0,1,0-1.515-1.514,1.511,1.511,0,0,0,1.515,1.514Z" transform="translate(-548.155 -90.327)"/><path class="f" d="M769.486,95.279a1.51,1.51,0,1,0-1.506-1.514,1.513,1.513,0,0,0,1.506,1.514Z" transform="translate(-506.538 -69.519)"/><path class="f" d="M866.016,30.908A1.51,1.51,0,1,0,864.5,29.4a1.509,1.509,0,0,0,1.514,1.506Z" transform="translate(-568.963 -27.887)"/><path class="f" d="M898.2,63.1A1.51,1.51,0,1,0,896.7,61.59,1.516,1.516,0,0,0,898.2,63.1Z" transform="translate(-589.786 -48.71)"/><path class="f" d="M898.2,127.453a1.51,1.51,0,1,0-1.506-1.514,1.511,1.511,0,0,0,1.506,1.514Z" transform="translate(-589.786 -90.327)"/><path class="f" d="M930.378,95.279a1.51,1.51,0,1,0-1.506-1.514,1.518,1.518,0,0,0,1.506,1.514Z" transform="translate(-610.594 -69.519)"/><path class="f" d="M930.378,63.1a1.51,1.51,0,1,0-1.506-1.514,1.523,1.523,0,0,0,1.506,1.514Z" transform="translate(-610.594 -48.71)"/><path class="f" d="M962.552,159.627a1.51,1.51,0,1,0-1.506-1.506,1.511,1.511,0,0,0,1.506,1.506Z" transform="translate(-631.402 -111.135)"/><path class="f" d="M962.552,191.8a1.51,1.51,0,1,0-1.506-1.506,1.511,1.511,0,0,0,1.506,1.506Z" transform="translate(-631.402 -131.944)"/><path class="f" d="M994.726,159.627a1.51,1.51,0,1,0-1.506-1.506,1.511,1.511,0,0,0,1.506,1.506Z" transform="translate(-652.211 -111.135)"/><path class="f" d="M994.726,223.975a1.51,1.51,0,1,0-1.506-1.506,1.511,1.511,0,0,0,1.506,1.506Z" transform="translate(-652.211 -152.752)"/><path class="f" d="M1059.082,256.164a1.506,1.506,0,1,0-1.514-1.506,1.509,1.509,0,0,0,1.514,1.506Z" transform="translate(-693.827 -173.575)"/><path class="f" d="M1026.908,288.345a1.51,1.51,0,1,0-1.514-1.514,1.516,1.516,0,0,0,1.514,1.514Z" transform="translate(-673.019 -194.384)"/><path class="f" d="M1091.256,159.627a1.51,1.51,0,1,0-1.514-1.506,1.509,1.509,0,0,0,1.514,1.506Z" transform="translate(-714.636 -111.135)"/><path class="f" d="M1155.619,159.627a1.51,1.51,0,1,0-1.506-1.506,1.516,1.516,0,0,0,1.506,1.506Z" transform="translate(-756.267 -111.135)"/><path class="f" d="M1187.793,95.279a1.51,1.51,0,1,0-1.506-1.514,1.513,1.513,0,0,0,1.506,1.514Z" transform="translate(-777.076 -69.519)"/><path class="f" d="M1187.793,63.1a1.51,1.51,0,1,0-1.506-1.514,1.518,1.518,0,0,0,1.506,1.514Z" transform="translate(-777.076 -48.71)"/><path class="f" d="M1219.976,30.908a1.51,1.51,0,1,0-1.514-1.506,1.509,1.509,0,0,0,1.514,1.506Z" transform="translate(-797.884 -27.887)"/><path class="f" d="M801.668,30.908a1.51,1.51,0,1,0-1.514-1.506,1.509,1.509,0,0,0,1.514,1.506Z" transform="translate(-527.346 -27.887)"/><path class="f" d="M769.486,30.908A1.51,1.51,0,1,0,767.98,29.4a1.511,1.511,0,0,0,1.506,1.506Z" transform="translate(-506.538 -27.887)"/><path class="f" d="M705.138,30.908a1.51,1.51,0,1,0-1.506-1.506,1.516,1.516,0,0,0,1.506,1.506Z" transform="translate(-464.921 -27.887)"/><path class="f" d="M705.138,95.279a1.51,1.51,0,1,0-1.506-1.514,1.518,1.518,0,0,0,1.506,1.514Z" transform="translate(-464.921 -69.519)"/><path class="f" d="M640.775,127.453a1.51,1.51,0,1,0-1.514-1.514,1.511,1.511,0,0,0,1.514,1.514Z" transform="translate(-423.29 -90.327)"/><path class="f" d="M608.6,63.1a1.51,1.51,0,1,0-1.514-1.514A1.516,1.516,0,0,0,608.6,63.1Z" transform="translate(-402.481 -48.71)"/><path class="f" d="M608.6,127.453a1.51,1.51,0,1,0-1.514-1.514,1.511,1.511,0,0,0,1.514,1.514Z" transform="translate(-402.481 -90.327)"/><path class="f" d="M544.245,127.453a1.51,1.51,0,1,0-1.506-1.514,1.513,1.513,0,0,0,1.506,1.514Z" transform="translate(-360.865 -90.327)"/><path class="f" d="M512.071,95.279a1.51,1.51,0,1,0-1.506-1.514,1.518,1.518,0,0,0,1.506,1.514Z" transform="translate(-340.056 -69.519)"/><path class="f" d="M1284.323,95.279a1.51,1.51,0,1,0-1.515-1.514,1.511,1.511,0,0,0,1.515,1.514Z" transform="translate(-839.501 -69.519)"/><path class="f" d="M1284.323,63.1a1.51,1.51,0,1,0-1.515-1.514,1.516,1.516,0,0,0,1.515,1.514Z" transform="translate(-839.501 -48.71)"/><path class="f" d="M1155.619,191.8a1.51,1.51,0,1,0-1.506-1.506,1.516,1.516,0,0,0,1.506,1.506Z" transform="translate(-756.267 -131.944)"/><path class="f" d="M1219.976,191.8a1.51,1.51,0,1,0-1.514-1.506,1.509,1.509,0,0,0,1.514,1.506Z" transform="translate(-797.884 -131.944)"/><path class="f" d="M1252.15,159.627a1.51,1.51,0,1,0-1.515-1.506,1.51,1.51,0,0,0,1.515,1.506Z" transform="translate(-818.692 -111.135)"/><path class="f" d="M1252.15,127.453a1.51,1.51,0,1,0-1.515-1.514,1.511,1.511,0,0,0,1.515,1.514Z" transform="translate(-818.692 -90.327)"/><path class="f" d="M1348.686,159.627a1.51,1.51,0,1,0-1.506-1.506,1.516,1.516,0,0,0,1.506,1.506Z" transform="translate(-881.133 -111.135)"/><path class="f" d="M1252.15,223.975a1.51,1.51,0,1,0-1.515-1.506,1.51,1.51,0,0,0,1.515,1.506Z" transform="translate(-818.692 -152.752)"/><path class="f" d="M1219.976,223.975a1.51,1.51,0,1,0-1.514-1.506,1.509,1.509,0,0,0,1.514,1.506Z" transform="translate(-797.884 -152.752)"/><path class="f" d="M415.534,159.627a1.51,1.51,0,1,0-1.514-1.506,1.509,1.509,0,0,0,1.514,1.506Z" transform="translate(-277.616 -111.135)"/><path class="f" d="M383.361,191.8a1.51,1.51,0,1,0-1.514-1.506,1.509,1.509,0,0,0,1.514,1.506Z" transform="translate(-256.809 -131.944)"/><path class="f" d="M383.361,127.453a1.51,1.51,0,1,0-1.514-1.514,1.511,1.511,0,0,0,1.514,1.514Z" transform="translate(-256.809 -90.327)"/><path class="f" d="M383.361,95.279a1.51,1.51,0,1,0-1.514-1.514,1.511,1.511,0,0,0,1.514,1.514Z" transform="translate(-256.809 -69.519)"/><path class="f" d="M383.361,63.1a1.51,1.51,0,1,0-1.514-1.514,1.516,1.516,0,0,0,1.514,1.514Z" transform="translate(-256.809 -48.71)"/><path class="f" d="M415.534,30.908A1.51,1.51,0,1,0,414.02,29.4a1.509,1.509,0,0,0,1.514,1.506Z" transform="translate(-277.616 -27.887)"/><path class="f" d="M479.9,63.1a1.51,1.51,0,1,0-1.506-1.514A1.523,1.523,0,0,0,479.9,63.1Z" transform="translate(-319.248 -48.71)"/><path class="f" d="M319.005,159.627a1.51,1.51,0,1,0-1.506-1.506,1.511,1.511,0,0,0,1.506,1.506Z" transform="translate(-215.192 -111.135)"/><path class="f" d="M254.657,223.975a1.51,1.51,0,1,0-1.506-1.506,1.516,1.516,0,0,0,1.506,1.506Z" transform="translate(-173.575 -152.752)"/><path class="f" d="M222.468,223.975a1.51,1.51,0,1,0-1.514-1.506,1.509,1.509,0,0,0,1.514,1.506Z" transform="translate(-152.752 -152.752)"/><path class="f" d="M158.12,191.8a1.51,1.51,0,1,0-1.514-1.506,1.509,1.509,0,0,0,1.514,1.506Z" transform="translate(-111.135 -131.944)"/><path class="f" d="M158.12,223.975a1.51,1.51,0,1,0-1.514-1.506,1.509,1.509,0,0,0,1.514,1.506Z" transform="translate(-111.135 -152.752)"/><path class="f" d="M93.764,256.164a1.506,1.506,0,1,0-1.506-1.506,1.511,1.511,0,0,0,1.506,1.506Z" transform="translate(-69.519 -173.575)"/><path class="f" d="M61.59,288.345a1.51,1.51,0,1,0-1.506-1.514,1.523,1.523,0,0,0,1.506,1.514Z" transform="translate(-48.71 -194.384)"/><path class="f" d="M222.468,159.627a1.51,1.51,0,1,0-1.514-1.506,1.509,1.509,0,0,0,1.514,1.506Z" transform="translate(-152.752 -111.135)"/><path class="f" d="M158.12,95.279a1.51,1.51,0,1,0-1.514-1.514,1.511,1.511,0,0,0,1.514,1.514Z" transform="translate(-111.135 -69.519)"/><path class="f" d="M222.468,95.279a1.51,1.51,0,1,0-1.514-1.514,1.511,1.511,0,0,0,1.514,1.514Z" transform="translate(-152.752 -69.519)"/><path class="f" d="M286.831,127.453a1.51,1.51,0,1,0-1.506-1.514,1.518,1.518,0,0,0,1.506,1.514Z" transform="translate(-194.384 -90.327)"/><path class="f" d="M286.831,63.1a1.51,1.51,0,1,0-1.506-1.514,1.523,1.523,0,0,0,1.506,1.514Z" transform="translate(-194.384 -48.71)"/><path class="f" d="M286.831,30.908a1.51,1.51,0,1,0-1.506-1.506,1.516,1.516,0,0,0,1.506,1.506Z" transform="translate(-194.384 -27.887)"/><path class="f" d="M254.657,63.1a1.51,1.51,0,1,0-1.506-1.514,1.523,1.523,0,0,0,1.506,1.514Z" transform="translate(-173.575 -48.71)"/><path class="f" d="M190.294,30.908A1.51,1.51,0,1,0,188.78,29.4a1.509,1.509,0,0,0,1.514,1.506Z" transform="translate(-131.944 -27.887)"/><path class="f" d="M61.59,30.908A1.51,1.51,0,1,0,60.084,29.4a1.516,1.516,0,0,0,1.506,1.506Z" transform="translate(-48.71 -27.887)"/><path class="f" d="M29.4,30.908A1.51,1.51,0,1,0,27.887,29.4,1.509,1.509,0,0,0,29.4,30.908Z" transform="translate(-27.887 -27.887)"/><path class="f" d="M93.764,63.1a1.51,1.51,0,1,0-1.506-1.514A1.518,1.518,0,0,0,93.764,63.1Z" transform="translate(-69.519 -48.71)"/><path class="f" d="M61.59,127.453a1.51,1.51,0,1,0-1.506-1.514,1.518,1.518,0,0,0,1.506,1.514Z" transform="translate(-48.71 -90.327)"/><path class="f" d="M93.764,127.453a1.51,1.51,0,1,0-1.506-1.514,1.513,1.513,0,0,0,1.506,1.514Z" transform="translate(-69.519 -90.327)"/><path class="f" d="M61.59,159.627a1.51,1.51,0,1,0-1.506-1.506,1.516,1.516,0,0,0,1.506,1.506Z" transform="translate(-48.71 -111.135)"/><path class="f" d="M29.4,159.627a1.51,1.51,0,1,0-1.514-1.506,1.509,1.509,0,0,0,1.514,1.506Z" transform="translate(-27.887 -111.135)"/><path class="f" d="M93.764,191.8a1.51,1.51,0,1,0-1.506-1.506,1.511,1.511,0,0,0,1.506,1.506Z" transform="translate(-69.519 -131.944)"/><path class="f" d="M29.4,352.693a1.51,1.51,0,1,0-1.514-1.514,1.511,1.511,0,0,0,1.514,1.514Z" transform="translate(-27.887 -236)"/><path class="f" d="M93.764,352.693a1.51,1.51,0,1,0-1.506-1.514,1.513,1.513,0,0,0,1.506,1.514Z" transform="translate(-69.519 -236)"/><path class="f" d="M93.764,384.867a1.51,1.51,0,1,0-1.506-1.506,1.511,1.511,0,0,0,1.506,1.506Z" transform="translate(-69.519 -256.809)"/><path class="f" d="M1380.86,95.279a1.51,1.51,0,1,0-1.506-1.514,1.513,1.513,0,0,0,1.506,1.514Z" transform="translate(-901.941 -69.519)"/><path class="f" d="M1348.686,63.1a1.51,1.51,0,1,0-1.506-1.514,1.523,1.523,0,0,0,1.506,1.514Z" transform="translate(-881.133 -48.71)"/><path class="f" d="M1477.39,95.279a1.51,1.51,0,1,0-1.514-1.514,1.511,1.511,0,0,0,1.514,1.514Z" transform="translate(-964.366 -69.519)"/><path class="f" d="M1509.564,95.279a1.51,1.51,0,1,0-1.514-1.514,1.511,1.511,0,0,0,1.514,1.514Z" transform="translate(-985.174 -69.519)"/><path class="f" d="M1509.564,30.908a1.51,1.51,0,1,0-1.514-1.506,1.509,1.509,0,0,0,1.514,1.506Z" transform="translate(-985.174 -27.887)"/><path class="f" d="M1573.926,95.279a1.51,1.51,0,1,0-1.506-1.514,1.518,1.518,0,0,0,1.506,1.514Z" transform="translate(-1026.805 -69.519)"/><path class="f" d="M1477.39,159.627a1.51,1.51,0,1,0-1.514-1.506,1.509,1.509,0,0,0,1.514,1.506Z" transform="translate(-964.366 -111.135)"/><path class="f" d="M1509.564,191.8a1.51,1.51,0,1,0-1.514-1.506,1.509,1.509,0,0,0,1.514,1.506Z" transform="translate(-985.174 -131.944)"/><path class="f" d="M1477.39,191.8a1.51,1.51,0,1,0-1.514-1.506,1.509,1.509,0,0,0,1.514,1.506Z" transform="translate(-964.366 -131.944)"/><path class="f" d="M1445.216,191.8a1.51,1.51,0,1,0-1.514-1.506,1.509,1.509,0,0,0,1.514,1.506Z" transform="translate(-943.558 -131.944)"/><path class="f" d="M1477.39,223.975a1.51,1.51,0,1,0-1.514-1.506,1.509,1.509,0,0,0,1.514,1.506Z" transform="translate(-964.366 -152.752)"/><path class="f" d="M1219.976,352.693a1.51,1.51,0,1,0-1.514-1.514,1.511,1.511,0,0,0,1.514,1.514Z" transform="translate(-797.884 -236)"/><path class="f" d="M1316.5,320.519a1.51,1.51,0,1,0-1.514-1.514,1.511,1.511,0,0,0,1.514,1.514Z" transform="translate(-860.309 -215.192)"/><path class="f" d="M1284.323,352.693a1.51,1.51,0,1,0-1.515-1.514,1.511,1.511,0,0,0,1.515,1.514Z" transform="translate(-839.501 -236)"/><path class="f" d="M1413.034,320.519a1.51,1.51,0,1,0-1.506-1.514,1.512,1.512,0,0,0,1.506,1.514Z" transform="translate(-922.749 -215.192)"/><path class="f" d="M1477.39,320.519a1.51,1.51,0,1,0-1.514-1.514,1.511,1.511,0,0,0,1.514,1.514Z" transform="translate(-964.366 -215.192)"/><path class="f" d="M1413.034,256.164a1.506,1.506,0,1,0-1.506-1.506,1.511,1.511,0,0,0,1.506,1.506Z" transform="translate(-922.749 -173.575)"/><path class="f" d="M1380.86,223.975a1.51,1.51,0,1,0-1.506-1.506,1.511,1.511,0,0,0,1.506,1.506Z" transform="translate(-901.941 -152.752)"/><path class="f" d="M1348.686,191.8a1.51,1.51,0,1,0-1.506-1.506,1.516,1.516,0,0,0,1.506,1.506Z" transform="translate(-881.133 -131.944)"/><path class="f" d="M1380.86,191.8a1.51,1.51,0,1,0-1.506-1.506,1.511,1.511,0,0,0,1.506,1.506Z" transform="translate(-901.941 -131.944)"/><path class="f" d="M1509.564,288.345a1.51,1.51,0,1,0-1.514-1.514,1.516,1.516,0,0,0,1.514,1.514Z" transform="translate(-985.174 -194.384)"/><path class="f" d="M1348.686,417.041a1.51,1.51,0,1,0-1.506-1.506,1.516,1.516,0,0,0,1.506,1.506Z" transform="translate(-881.133 -277.616)"/><path class="f" d="M1284.323,417.041a1.51,1.51,0,1,0-1.515-1.506,1.509,1.509,0,0,0,1.515,1.506Z" transform="translate(-839.501 -277.616)"/><path class="f" d="M1316.5,449.215a1.51,1.51,0,1,0-1.514-1.506,1.509,1.509,0,0,0,1.514,1.506Z" transform="translate(-860.309 -298.425)"/><path class="f" d="M1413.034,449.215a1.51,1.51,0,1,0-1.506-1.506,1.511,1.511,0,0,0,1.506,1.506Z" transform="translate(-922.749 -298.425)"/><path class="f" d="M1348.686,481.412a1.51,1.51,0,1,0-1.506-1.514,1.523,1.523,0,0,0,1.506,1.514Z" transform="translate(-881.133 -319.248)"/><path class="f" d="M1541.752,384.867a1.51,1.51,0,1,0-1.506-1.506,1.509,1.509,0,0,0,1.506,1.506Z" transform="translate(-1005.997 -256.809)"/><path class="f" d="M1573.926,352.693a1.51,1.51,0,1,0-1.506-1.514,1.517,1.517,0,0,0,1.506,1.514Z" transform="translate(-1026.805 -236)"/><path class="f" d="M1606.1,417.041a1.51,1.51,0,1,0-1.506-1.506,1.511,1.511,0,0,0,1.506,1.506Z" transform="translate(-1047.614 -277.616)"/><path class="f" d="M1573.926,481.412a1.51,1.51,0,1,0-1.506-1.514,1.523,1.523,0,0,0,1.506,1.514Z" transform="translate(-1026.805 -319.248)"/><path class="f" d="M1348.686,256.164a1.506,1.506,0,1,0-1.506-1.506,1.516,1.516,0,0,0,1.506,1.506Z" transform="translate(-881.133 -173.575)"/><path class="f" d="M1541.752,513.586a1.51,1.51,0,1,0-1.506-1.514,1.516,1.516,0,0,0,1.506,1.514Z" transform="translate(-1005.997 -340.056)"/><path class="f" d="M1541.752,545.76a1.51,1.51,0,1,0-1.506-1.514,1.511,1.511,0,0,0,1.506,1.514Z" transform="translate(-1005.997 -360.865)"/><path class="f" d="M1059.082,449.215a1.51,1.51,0,1,0-1.514-1.506,1.509,1.509,0,0,0,1.514,1.506Z" transform="translate(-693.827 -298.425)"/><path class="f" d="M1091.256,449.215a1.51,1.51,0,1,0-1.514-1.506,1.509,1.509,0,0,0,1.514,1.506Z" transform="translate(-714.636 -298.425)"/><path class="f" d="M1026.908,320.519a1.51,1.51,0,1,0-1.514-1.514,1.511,1.511,0,0,0,1.514,1.514Z" transform="translate(-673.019 -215.192)"/><path class="f" d="M1573.926,577.934a1.51,1.51,0,1,0-1.506-1.514,1.517,1.517,0,0,0,1.506,1.514Z" transform="translate(-1026.805 -381.673)"/><path class="f" d="M1573.926,610.108a1.51,1.51,0,1,0-1.506-1.506,1.516,1.516,0,0,0,1.506,1.506Z" transform="translate(-1026.805 -402.481)"/><path class="f" d="M1541.752,642.282a1.51,1.51,0,1,0-1.506-1.506,1.509,1.509,0,0,0,1.506,1.506Z" transform="translate(-1005.997 -423.29)"/><path class="f" d="M1348.686,642.282a1.51,1.51,0,1,0-1.506-1.506,1.516,1.516,0,0,0,1.506,1.506Z" transform="translate(-881.133 -423.29)"/><path class="f" d="M1252.15,706.653a1.51,1.51,0,1,0-1.515-1.514,1.516,1.516,0,0,0,1.515,1.514Z" transform="translate(-818.692 -464.921)"/><path class="f" d="M1284.323,706.653a1.51,1.51,0,1,0-1.515-1.514,1.516,1.516,0,0,0,1.515,1.514Z" transform="translate(-839.501 -464.921)"/><path class="f" d="M1380.86,674.456a1.51,1.51,0,1,0-1.506-1.506,1.511,1.511,0,0,0,1.506,1.506Z" transform="translate(-901.941 -444.098)"/><path class="f" d="M1348.686,674.456a1.51,1.51,0,1,0-1.506-1.506,1.516,1.516,0,0,0,1.506,1.506Z" transform="translate(-881.133 -444.098)"/><path class="f" d="M1477.39,674.456a1.51,1.51,0,1,0-1.514-1.506,1.509,1.509,0,0,0,1.514,1.506Z" transform="translate(-964.366 -444.098)"/><path class="f" d="M1573.926,706.653a1.51,1.51,0,1,0-1.506-1.514,1.523,1.523,0,0,0,1.506,1.514Z" transform="translate(-1026.805 -464.921)"/><path class="f" d="M1606.1,706.653a1.51,1.51,0,1,0-1.506-1.514,1.518,1.518,0,0,0,1.506,1.514Z" transform="translate(-1047.614 -464.921)"/><path class="f" d="M1219.976,803.175a1.51,1.51,0,1,0-1.514-1.506,1.509,1.509,0,0,0,1.514,1.506Z" transform="translate(-797.884 -527.346)"/><path class="f" d="M1445.216,738.827a1.51,1.51,0,1,0-1.514-1.514,1.511,1.511,0,0,0,1.514,1.514Z" transform="translate(-943.558 -485.73)"/><path class="f" d="M1509.564,771a1.51,1.51,0,1,0-1.514-1.514,1.511,1.511,0,0,0,1.514,1.514Z" transform="translate(-985.174 -506.538)"/><path class="f" d="M1541.752,803.175a1.51,1.51,0,1,0-1.506-1.506,1.51,1.51,0,0,0,1.506,1.506Z" transform="translate(-1005.997 -527.346)"/><path class="f" d="M1541.752,835.349a1.51,1.51,0,1,0-1.506-1.506,1.51,1.51,0,0,0,1.506,1.506Z" transform="translate(-1005.997 -548.155)"/><path class="f" d="M1606.1,835.349a1.51,1.51,0,1,0-1.506-1.506,1.511,1.511,0,0,0,1.506,1.506Z" transform="translate(-1047.614 -548.155)"/><path class="f" d="M1445.216,835.349a1.51,1.51,0,1,0-1.514-1.506,1.509,1.509,0,0,0,1.514,1.506Z" transform="translate(-943.558 -548.155)"/><path class="f" d="M1316.5,803.175a1.51,1.51,0,1,0-1.514-1.506,1.509,1.509,0,0,0,1.514,1.506Z" transform="translate(-860.309 -527.346)"/><path class="f" d="M1252.15,835.349a1.51,1.51,0,1,0-1.515-1.506,1.51,1.51,0,0,0,1.515,1.506Z" transform="translate(-818.692 -548.155)"/><path class="f" d="M1219.976,835.349a1.51,1.51,0,1,0-1.514-1.506,1.509,1.509,0,0,0,1.514,1.506Z" transform="translate(-797.884 -548.155)"/><path class="f" d="M1026.908,771a1.51,1.51,0,1,0-1.514-1.514,1.511,1.511,0,0,0,1.514,1.514Z" transform="translate(-673.019 -506.538)"/><path class="f" d="M1316.5,835.349a1.51,1.51,0,1,0-1.514-1.506,1.509,1.509,0,0,0,1.514,1.506Z" transform="translate(-860.309 -548.155)"/><path class="f" d="M1284.323,867.523a1.51,1.51,0,1,0-1.515-1.506,1.509,1.509,0,0,0,1.515,1.506Z" transform="translate(-839.501 -568.963)"/><path class="f" d="M1059.082,867.523a1.51,1.51,0,1,0-1.514-1.506,1.509,1.509,0,0,0,1.514,1.506Z" transform="translate(-693.827 -568.963)"/><path class="f" d="M1284.323,931.893a1.51,1.51,0,1,0-1.515-1.514,1.516,1.516,0,0,0,1.515,1.514Z" transform="translate(-839.501 -610.595)"/><path class="f" d="M1187.793,899.719a1.51,1.51,0,1,0-1.506-1.514,1.518,1.518,0,0,0,1.506,1.514Z" transform="translate(-777.076 -589.786)"/><path class="f" d="M1219.976,931.893a1.51,1.51,0,1,0-1.514-1.514,1.516,1.516,0,0,0,1.514,1.514Z" transform="translate(-797.884 -610.595)"/><path class="f" d="M1380.86,964.067a1.51,1.51,0,1,0-1.506-1.514,1.513,1.513,0,0,0,1.506,1.514Z" transform="translate(-901.941 -631.402)"/><path class="f" d="M1413.034,964.067a1.51,1.51,0,1,0-1.506-1.514,1.512,1.512,0,0,0,1.506,1.514Z" transform="translate(-922.749 -631.402)"/><path class="f" d="M1477.39,964.067a1.51,1.51,0,1,0-1.514-1.514,1.511,1.511,0,0,0,1.514,1.514Z" transform="translate(-964.366 -631.402)"/><path class="f" d="M1155.619,964.067a1.51,1.51,0,1,0-1.506-1.514,1.518,1.518,0,0,0,1.506,1.514Z" transform="translate(-756.267 -631.402)"/><path class="f" d="M1219.976,996.241a1.51,1.51,0,1,0-1.514-1.514,1.511,1.511,0,0,0,1.514,1.514Z" transform="translate(-797.884 -652.211)"/><path class="f" d="M1252.15,996.241a1.51,1.51,0,1,0-1.515-1.514,1.511,1.511,0,0,0,1.515,1.514Z" transform="translate(-818.692 -652.211)"/><path class="f" d="M1155.619,1028.415a1.51,1.51,0,1,0-1.506-1.506,1.516,1.516,0,0,0,1.506,1.506Z" transform="translate(-756.267 -673.02)"/><path class="f" d="M1059.082,1028.415a1.51,1.51,0,1,0-1.514-1.506,1.509,1.509,0,0,0,1.514,1.506Z" transform="translate(-693.827 -673.02)"/><path class="f" d="M1316.5,1028.415a1.51,1.51,0,1,0-1.514-1.506,1.509,1.509,0,0,0,1.514,1.506Z" transform="translate(-860.309 -673.02)"/><path class="f" d="M1219.976,1028.415a1.51,1.51,0,1,0-1.514-1.506,1.509,1.509,0,0,0,1.514,1.506Z" transform="translate(-797.884 -673.02)"/><path class="f" d="M1413.034,1028.415a1.51,1.51,0,1,0-1.506-1.506,1.511,1.511,0,0,0,1.506,1.506Z" transform="translate(-922.749 -673.02)"/><path class="f" d="M1477.39,996.241a1.51,1.51,0,1,0-1.514-1.514,1.51,1.51,0,0,0,1.514,1.514Z" transform="translate(-964.366 -652.211)"/><path class="f" d="M1509.564,867.523a1.51,1.51,0,1,0-1.514-1.506,1.509,1.509,0,0,0,1.514,1.506Z" transform="translate(-985.174 -568.963)"/><path class="f" d="M1573.926,899.719a1.51,1.51,0,1,0-1.506-1.514,1.523,1.523,0,0,0,1.506,1.514Z" transform="translate(-1026.805 -589.786)"/><path class="f" d="M1541.752,931.893a1.51,1.51,0,1,0-1.506-1.514,1.516,1.516,0,0,0,1.506,1.514Z" transform="translate(-1005.997 -610.595)"/><path class="f" d="M1541.752,996.241a1.51,1.51,0,1,0-1.506-1.514,1.511,1.511,0,0,0,1.506,1.514Z" transform="translate(-1005.997 -652.211)"/><path class="f" d="M1573.926,1028.415a1.51,1.51,0,1,0-1.506-1.506,1.516,1.516,0,0,0,1.506,1.506Z" transform="translate(-1026.805 -673.02)"/><path class="f" d="M1606.1,1028.415a1.51,1.51,0,1,0-1.506-1.506,1.511,1.511,0,0,0,1.506,1.506Z" transform="translate(-1047.614 -673.02)"/><path class="f" d="M1573.926,1060.589a1.51,1.51,0,1,0-1.506-1.506,1.516,1.516,0,0,0,1.506,1.506Z" transform="translate(-1026.805 -693.827)"/><path class="f" d="M1541.752,1060.589a1.51,1.51,0,1,0-1.506-1.506,1.509,1.509,0,0,0,1.506,1.506Z" transform="translate(-1005.997 -693.827)"/><path class="f" d="M1477.39,1092.763a1.51,1.51,0,1,0-1.514-1.506,1.509,1.509,0,0,0,1.514,1.506Z" transform="translate(-964.366 -714.636)"/><path class="f" d="M1413.034,1092.763a1.51,1.51,0,1,0-1.506-1.506,1.511,1.511,0,0,0,1.506,1.506Z" transform="translate(-922.749 -714.636)"/><path class="f" d="M1348.686,1060.589a1.51,1.51,0,1,0-1.506-1.506,1.516,1.516,0,0,0,1.506,1.506Z" transform="translate(-881.133 -693.827)"/><path class="f" d="M1541.752,1124.96a1.51,1.51,0,1,0-1.506-1.514,1.516,1.516,0,0,0,1.506,1.514Z" transform="translate(-1005.997 -735.459)"/><path class="f" d="M1573.926,1157.134a1.51,1.51,0,1,0-1.506-1.514,1.523,1.523,0,0,0,1.506,1.514Z" transform="translate(-1026.805 -756.267)"/><path class="f" d="M1606.1,1157.134a1.51,1.51,0,1,0-1.506-1.514,1.518,1.518,0,0,0,1.506,1.514Z" transform="translate(-1047.614 -756.267)"/><path class="f" d="M1445.216,1157.134a1.51,1.51,0,1,0-1.514-1.514,1.516,1.516,0,0,0,1.514,1.514Z" transform="translate(-943.558 -756.267)"/><path class="f" d="M1380.86,1124.96a1.51,1.51,0,1,0-1.506-1.514,1.518,1.518,0,0,0,1.506,1.514Z" transform="translate(-901.941 -735.459)"/><path class="f" d="M1348.686,1124.96a1.51,1.51,0,1,0-1.506-1.514,1.523,1.523,0,0,0,1.506,1.514Z" transform="translate(-881.133 -735.459)"/><path class="f" d="M1348.686,1157.134a1.51,1.51,0,1,0-1.506-1.514,1.523,1.523,0,0,0,1.506,1.514Z" transform="translate(-881.133 -756.267)"/><path class="f" d="M1252.15,1124.96a1.51,1.51,0,1,0-1.515-1.514,1.516,1.516,0,0,0,1.515,1.514Z" transform="translate(-818.692 -735.459)"/><path class="f" d="M1252.15,1092.763a1.51,1.51,0,1,0-1.515-1.506,1.509,1.509,0,0,0,1.515,1.506Z" transform="translate(-818.692 -714.636)"/><path class="f" d="M1252.15,1060.589a1.51,1.51,0,1,0-1.515-1.506,1.509,1.509,0,0,0,1.515,1.506Z" transform="translate(-818.692 -693.827)"/><path class="f" d="M1155.619,1060.589a1.51,1.51,0,1,0-1.506-1.506,1.516,1.516,0,0,0,1.506,1.506Z" transform="translate(-756.267 -693.827)"/><path class="f" d="M1187.793,1124.96a1.51,1.51,0,1,0-1.506-1.514,1.518,1.518,0,0,0,1.506,1.514Z" transform="translate(-777.076 -735.459)"/><path class="f" d="M1091.256,1157.134a1.51,1.51,0,1,0-1.514-1.514,1.516,1.516,0,0,0,1.514,1.514Z" transform="translate(-714.636 -756.267)"/><path class="f" d="M1059.082,1092.763a1.51,1.51,0,1,0-1.514-1.506,1.509,1.509,0,0,0,1.514,1.506Z" transform="translate(-693.827 -714.636)"/><path class="f" d="M1155.619,1124.96a1.51,1.51,0,1,0-1.506-1.514,1.523,1.523,0,0,0,1.506,1.514Z" transform="translate(-756.267 -735.459)"/><path class="f" d="M994.726,1060.589a1.51,1.51,0,1,0-1.506-1.506,1.511,1.511,0,0,0,1.506,1.506Z" transform="translate(-652.211 -693.827)"/><path class="f" d="M930.378,1028.415a1.51,1.51,0,1,0-1.506-1.506,1.516,1.516,0,0,0,1.506,1.506Z" transform="translate(-610.594 -673.02)"/><path class="f" d="M930.378,964.067a1.51,1.51,0,1,0-1.506-1.514,1.518,1.518,0,0,0,1.506,1.514Z" transform="translate(-610.594 -631.402)"/><path class="f" d="M898.2,867.523a1.51,1.51,0,1,0-1.506-1.506,1.509,1.509,0,0,0,1.506,1.506Z" transform="translate(-589.786 -568.963)"/><path class="f" d="M962.552,899.719a1.51,1.51,0,1,0-1.506-1.514,1.518,1.518,0,0,0,1.506,1.514Z" transform="translate(-631.402 -589.786)"/><path class="f" d="M833.842,996.241a1.51,1.51,0,1,0-1.515-1.514,1.511,1.511,0,0,0,1.515,1.514Z" transform="translate(-548.155 -652.211)"/><path class="f" d="M833.842,1028.415a1.51,1.51,0,1,0-1.515-1.506,1.509,1.509,0,0,0,1.515,1.506Z" transform="translate(-548.155 -673.02)"/><path class="f" d="M866.016,1060.589a1.51,1.51,0,1,0-1.514-1.506,1.509,1.509,0,0,0,1.514,1.506Z" transform="translate(-568.963 -693.827)"/><path class="f" d="M866.016,1092.763a1.51,1.51,0,1,0-1.514-1.506,1.509,1.509,0,0,0,1.514,1.506Z" transform="translate(-568.963 -714.636)"/><path class="f" d="M930.378,1124.96a1.51,1.51,0,1,0-1.506-1.514,1.523,1.523,0,0,0,1.506,1.514Z" transform="translate(-610.594 -735.459)"/><path class="f" d="M930.378,1060.589a1.51,1.51,0,1,0-1.506-1.506,1.516,1.516,0,0,0,1.506,1.506Z" transform="translate(-610.594 -693.827)"/><path class="f" d="M962.552,1157.134a1.51,1.51,0,1,0-1.506-1.514,1.518,1.518,0,0,0,1.506,1.514Z" transform="translate(-631.402 -756.267)"/><path class="f" d="M769.486,964.067a1.51,1.51,0,1,0-1.506-1.514,1.513,1.513,0,0,0,1.506,1.514Z" transform="translate(-506.538 -631.402)"/><path class="f" d="M737.312,964.067a1.51,1.51,0,1,0-1.506-1.514,1.513,1.513,0,0,0,1.506,1.514Z" transform="translate(-485.73 -631.402)"/><path class="f" d="M769.486,1157.134a1.51,1.51,0,1,0-1.506-1.514,1.518,1.518,0,0,0,1.506,1.514Z" transform="translate(-506.538 -756.267)"/><path class="f" d="M769.486,1124.96a1.51,1.51,0,1,0-1.506-1.514,1.518,1.518,0,0,0,1.506,1.514Z" transform="translate(-506.538 -735.459)"/><path class="f" d="M769.486,835.349a1.51,1.51,0,1,0-1.506-1.506,1.511,1.511,0,0,0,1.506,1.506Z" transform="translate(-506.538 -548.155)"/><path class="f" d="M705.138,867.523a1.51,1.51,0,1,0-1.506-1.506,1.516,1.516,0,0,0,1.506,1.506Z" transform="translate(-464.921 -568.963)"/><path class="f" d="M962.552,835.349a1.51,1.51,0,1,0-1.506-1.506,1.511,1.511,0,0,0,1.506,1.506Z" transform="translate(-631.402 -548.155)"/><path class="f" d="M640.775,931.893a1.51,1.51,0,1,0-1.514-1.514,1.516,1.516,0,0,0,1.514,1.514Z" transform="translate(-423.29 -610.595)"/><path class="f" d="M608.6,867.523a1.51,1.51,0,1,0-1.514-1.506,1.509,1.509,0,0,0,1.514,1.506Z" transform="translate(-402.481 -568.963)"/><path class="f" d="M576.427,899.719a1.51,1.51,0,1,0-1.514-1.514,1.516,1.516,0,0,0,1.514,1.514Z" transform="translate(-381.673 -589.786)"/><path class="f" d="M576.427,931.893a1.51,1.51,0,1,0-1.514-1.514,1.516,1.516,0,0,0,1.514,1.514Z" transform="translate(-381.673 -610.595)"/><path class="f" d="M512.071,835.349a1.51,1.51,0,1,0-1.506-1.506,1.516,1.516,0,0,0,1.506,1.506Z" transform="translate(-340.056 -548.155)"/><path class="f" d="M447.708,835.349a1.51,1.51,0,1,0-1.514-1.506,1.509,1.509,0,0,0,1.514,1.506Z" transform="translate(-298.425 -548.155)"/><path class="f" d="M512.071,803.175a1.51,1.51,0,1,0-1.506-1.506,1.516,1.516,0,0,0,1.506,1.506Z" transform="translate(-340.056 -527.346)"/><path class="f" d="M479.9,771a1.51,1.51,0,1,0-1.506-1.514A1.518,1.518,0,0,0,479.9,771Z" transform="translate(-319.248 -506.538)"/><path class="f" d="M512.071,899.719a1.51,1.51,0,1,0-1.506-1.514,1.523,1.523,0,0,0,1.506,1.514Z" transform="translate(-340.056 -589.786)"/><path class="f" d="M479.9,931.893a1.51,1.51,0,1,0-1.506-1.514,1.523,1.523,0,0,0,1.506,1.514Z" transform="translate(-319.248 -610.595)"/><path class="f" d="M479.9,964.067a1.51,1.51,0,1,0-1.506-1.514,1.518,1.518,0,0,0,1.506,1.514Z" transform="translate(-319.248 -631.402)"/><path class="f" d="M576.427,1028.415a1.51,1.51,0,1,0-1.514-1.506,1.509,1.509,0,0,0,1.514,1.506Z" transform="translate(-381.673 -673.02)"/><path class="f" d="M544.245,1028.415a1.51,1.51,0,1,0-1.506-1.506,1.511,1.511,0,0,0,1.506,1.506Z" transform="translate(-360.865 -673.02)"/><path class="f" d="M512.071,1028.415a1.51,1.51,0,1,0-1.506-1.506,1.516,1.516,0,0,0,1.506,1.506Z" transform="translate(-340.056 -673.02)"/><path class="f" d="M415.534,1060.589a1.51,1.51,0,1,0-1.514-1.506,1.509,1.509,0,0,0,1.514,1.506Z" transform="translate(-277.616 -693.827)"/><path class="f" d="M576.427,1060.589a1.51,1.51,0,1,0-1.514-1.506,1.509,1.509,0,0,0,1.514,1.506Z" transform="translate(-381.673 -693.827)"/><path class="f" d="M479.9,1060.589a1.51,1.51,0,1,0-1.506-1.506,1.516,1.516,0,0,0,1.506,1.506Z" transform="translate(-319.248 -693.827)"/><path class="f" d="M447.708,1092.763a1.51,1.51,0,1,0-1.514-1.506,1.509,1.509,0,0,0,1.514,1.506Z" transform="translate(-298.425 -714.636)"/><path class="f" d="M479.9,1157.134a1.51,1.51,0,1,0-1.506-1.514,1.523,1.523,0,0,0,1.506,1.514Z" transform="translate(-319.248 -756.267)"/><path class="f" d="M447.708,1157.134a1.51,1.51,0,1,0-1.514-1.514,1.516,1.516,0,0,0,1.514,1.514Z" transform="translate(-298.425 -756.267)"/><path class="f" d="M383.361,1060.589a1.51,1.51,0,1,0-1.514-1.506,1.509,1.509,0,0,0,1.514,1.506Z" transform="translate(-256.809 -693.827)"/><path class="f" d="M351.179,1124.96a1.51,1.51,0,1,0-1.506-1.514,1.518,1.518,0,0,0,1.506,1.514Z" transform="translate(-236 -735.459)"/><path class="f" d="M319.005,1157.134a1.51,1.51,0,1,0-1.506-1.514,1.512,1.512,0,0,0,1.506,1.514Z" transform="translate(-215.192 -756.267)"/><path class="f" d="M383.361,964.067a1.51,1.51,0,1,0-1.514-1.514,1.511,1.511,0,0,0,1.514,1.514Z" transform="translate(-256.809 -631.402)"/><path class="f" d="M319.005,1028.415a1.51,1.51,0,1,0-1.506-1.506,1.511,1.511,0,0,0,1.506,1.506Z" transform="translate(-215.192 -673.02)"/><path class="f" d="M286.831,996.241a1.51,1.51,0,1,0-1.506-1.514,1.517,1.517,0,0,0,1.506,1.514Z" transform="translate(-194.384 -652.211)"/><path class="f" d="M319.005,931.893a1.51,1.51,0,1,0-1.506-1.514,1.517,1.517,0,0,0,1.506,1.514Z" transform="translate(-215.192 -610.595)"/><path class="f" d="M415.534,931.893a1.51,1.51,0,1,0-1.514-1.514,1.516,1.516,0,0,0,1.514,1.514Z" transform="translate(-277.616 -610.595)"/><path class="f" d="M286.831,1028.415a1.51,1.51,0,1,0-1.506-1.506,1.516,1.516,0,0,0,1.506,1.506Z" transform="translate(-194.384 -673.02)"/><path class="f" d="M286.831,1060.589a1.51,1.51,0,1,0-1.506-1.506,1.516,1.516,0,0,0,1.506,1.506Z" transform="translate(-194.384 -693.827)"/><path class="f" d="M254.657,1092.763a1.51,1.51,0,1,0-1.506-1.506,1.516,1.516,0,0,0,1.506,1.506Z" transform="translate(-173.575 -714.636)"/><path class="f" d="M286.831,1124.96a1.51,1.51,0,1,0-1.506-1.514,1.523,1.523,0,0,0,1.506,1.514Z" transform="translate(-194.384 -735.459)"/><path class="f" d="M190.294,1060.589a1.51,1.51,0,1,0-1.514-1.506,1.509,1.509,0,0,0,1.514,1.506Z" transform="translate(-131.944 -693.827)"/><path class="f" d="M222.468,996.241a1.51,1.51,0,1,0-1.514-1.514,1.511,1.511,0,0,0,1.514,1.514Z" transform="translate(-152.752 -652.211)"/><path class="f" d="M254.657,996.241a1.51,1.51,0,1,0-1.506-1.514,1.517,1.517,0,0,0,1.506,1.514Z" transform="translate(-173.575 -652.211)"/><path class="f" d="M286.831,931.893a1.51,1.51,0,1,0-1.506-1.514,1.523,1.523,0,0,0,1.506,1.514Z" transform="translate(-194.384 -610.595)"/><path class="f" d="M383.361,835.349a1.51,1.51,0,1,0-1.514-1.506,1.509,1.509,0,0,0,1.514,1.506Z" transform="translate(-256.809 -548.155)"/><path class="f" d="M222.468,867.523a1.51,1.51,0,1,0-1.514-1.506,1.509,1.509,0,0,0,1.514,1.506Z" transform="translate(-152.752 -568.963)"/><path class="f" d="M93.764,867.523a1.51,1.51,0,1,0-1.506-1.506,1.511,1.511,0,0,0,1.506,1.506Z" transform="translate(-69.519 -568.963)"/><path class="f" d="M158.12,899.719a1.51,1.51,0,1,0-1.514-1.514,1.516,1.516,0,0,0,1.514,1.514Z" transform="translate(-111.135 -589.786)"/><path class="f" d="M190.294,964.067a1.51,1.51,0,1,0-1.514-1.514,1.511,1.511,0,0,0,1.514,1.514Z" transform="translate(-131.944 -631.402)"/><path class="f" d="M125.938,996.241a1.51,1.51,0,1,0-1.506-1.514,1.512,1.512,0,0,0,1.506,1.514Z" transform="translate(-90.327 -652.211)"/><path class="f" d="M61.59,1092.763a1.51,1.51,0,1,0-1.506-1.506,1.516,1.516,0,0,0,1.506,1.506Z" transform="translate(-48.71 -714.636)"/><path class="f" d="M125.938,1092.763a1.51,1.51,0,1,0-1.506-1.506,1.511,1.511,0,0,0,1.506,1.506Z" transform="translate(-90.327 -714.636)"/><path class="f" d="M158.12,1092.763a1.51,1.51,0,1,0-1.514-1.506,1.509,1.509,0,0,0,1.514,1.506Z" transform="translate(-111.135 -714.636)"/><path class="f" d="M125.938,1157.134a1.51,1.51,0,1,0-1.506-1.514,1.513,1.513,0,0,0,1.506,1.514Z" transform="translate(-90.327 -756.267)"/><path class="f" d="M61.59,835.349a1.51,1.51,0,1,0-1.506-1.506,1.516,1.516,0,0,0,1.506,1.506Z" transform="translate(-48.71 -548.155)"/><path class="f" d="M383.361,1028.415a1.51,1.51,0,1,0-1.514-1.506,1.509,1.509,0,0,0,1.514,1.506Z" transform="translate(-256.809 -673.02)"/><path class="f" d="M576.427,1124.96a1.51,1.51,0,1,0-1.514-1.514,1.516,1.516,0,0,0,1.514,1.514Z" transform="translate(-381.673 -735.459)"/><path class="f" d="M576.427,1157.134a1.51,1.51,0,1,0-1.514-1.514,1.516,1.516,0,0,0,1.514,1.514Z" transform="translate(-381.673 -756.267)"/><path class="f" d="M1123.445,706.653a1.51,1.51,0,1,0-1.506-1.514,1.523,1.523,0,0,0,1.506,1.514Z" transform="translate(-735.459 -464.921)"/><path class="f" d="M125.938,417.041a1.51,1.51,0,1,0-1.506-1.506,1.511,1.511,0,0,0,1.506,1.506Z" transform="translate(-90.327 -277.616)"/><path class="f" d="M190.294,449.215a1.51,1.51,0,1,0-1.514-1.506,1.509,1.509,0,0,0,1.514,1.506Z" transform="translate(-131.944 -298.425)"/><path class="f" d="M158.12,513.586a1.51,1.51,0,1,0-1.514-1.514,1.511,1.511,0,0,0,1.514,1.514Z" transform="translate(-111.135 -340.056)"/><path class="f" d="M93.764,545.76a1.51,1.51,0,1,0-1.506-1.514,1.513,1.513,0,0,0,1.506,1.514Z" transform="translate(-69.519 -360.865)"/><path class="f" d="M61.59,577.934a1.51,1.51,0,1,0-1.506-1.506,1.516,1.516,0,0,0,1.506,1.506Z" transform="translate(-48.71 -381.673)"/><path class="f" d="M61.59,610.108a1.51,1.51,0,1,0-1.506-1.506,1.516,1.516,0,0,0,1.506,1.506Z" transform="translate(-48.71 -402.481)"/><path class="f" d="M61.59,481.412a1.51,1.51,0,1,0-1.506-1.514,1.523,1.523,0,0,0,1.506,1.514Z" transform="translate(-48.71 -319.248)"/><path class="f" d="M29.4,481.412a1.51,1.51,0,1,0-1.514-1.514,1.516,1.516,0,0,0,1.514,1.514Z" transform="translate(-27.887 -319.248)"/><path class="f" d="M254.657,513.586a1.51,1.51,0,1,0-1.506-1.514,1.518,1.518,0,0,0,1.506,1.514Z" transform="translate(-173.575 -340.056)"/><path class="f" d="M286.831,513.586a1.51,1.51,0,1,0-1.506-1.514,1.518,1.518,0,0,0,1.506,1.514Z" transform="translate(-194.384 -340.056)"/><path class="f" d="M286.831,545.76a1.51,1.51,0,1,0-1.506-1.514,1.518,1.518,0,0,0,1.506,1.514Z" transform="translate(-194.384 -360.865)"/><path class="f" d="M383.361,545.76a1.51,1.51,0,1,0-1.514-1.514,1.511,1.511,0,0,0,1.514,1.514Z" transform="translate(-256.809 -360.865)"/><path class="f" d="M415.534,513.586a1.51,1.51,0,1,0-1.514-1.514,1.516,1.516,0,0,0,1.514,1.514Z" transform="translate(-277.616 -340.056)"/><path class="f" d="M351.179,481.412a1.51,1.51,0,1,0-1.506-1.514,1.518,1.518,0,0,0,1.506,1.514Z" transform="translate(-236 -319.248)"/><path class="f" d="M254.657,577.934a1.51,1.51,0,1,0-1.506-1.514,1.511,1.511,0,0,0,1.506,1.514Z" transform="translate(-173.575 -381.673)"/><path class="f" d="M222.468,610.108a1.51,1.51,0,1,0-1.514-1.506,1.509,1.509,0,0,0,1.514,1.506Z" transform="translate(-152.752 -402.481)"/><path class="f" d="M544.245,674.456a1.51,1.51,0,1,0-1.506-1.506,1.511,1.511,0,0,0,1.506,1.506Z" transform="translate(-360.865 -444.098)"/><path class="f" d="M415.534,738.827a1.51,1.51,0,1,0-1.514-1.514,1.511,1.511,0,0,0,1.514,1.514Z" transform="translate(-277.616 -485.73)"/><path class="f" d="M319.005,642.282a1.51,1.51,0,1,0-1.506-1.506,1.511,1.511,0,0,0,1.506,1.506Z" transform="translate(-215.192 -423.29)"/><path class="f" d="M93.764,642.282a1.51,1.51,0,1,0-1.506-1.506,1.511,1.511,0,0,0,1.506,1.506Z" transform="translate(-69.519 -423.29)"/><path class="f" d="M319.005,706.653a1.51,1.51,0,1,0-1.506-1.514,1.518,1.518,0,0,0,1.506,1.514Z" transform="translate(-215.192 -464.921)"/><path class="f" d="M351.179,738.827a1.51,1.51,0,1,0-1.506-1.514,1.513,1.513,0,0,0,1.506,1.514Z" transform="translate(-236 -485.73)"/><path class="f" d="M383.361,738.827a1.51,1.51,0,1,0-1.514-1.514,1.511,1.511,0,0,0,1.514,1.514Z" transform="translate(-256.809 -485.73)"/><path class="f" d="M222.468,738.827a1.51,1.51,0,1,0-1.514-1.514,1.516,1.516,0,0,0,1.514,1.514Z" transform="translate(-152.752 -485.73)"/><path class="f" d="M93.764,674.456a1.51,1.51,0,1,0-1.506-1.506,1.511,1.511,0,0,0,1.506,1.506Z" transform="translate(-69.519 -444.098)"/><path class="f" d="M61.59,706.653a1.51,1.51,0,1,0-1.506-1.514,1.523,1.523,0,0,0,1.506,1.514Z" transform="translate(-48.71 -464.921)"/><path class="f" d="M29.4,771a1.51,1.51,0,1,0-1.514-1.514A1.511,1.511,0,0,0,29.4,771Z" transform="translate(-27.887 -506.538)"/><path class="f" d="M286.831,771a1.51,1.51,0,1,0-1.506-1.514A1.518,1.518,0,0,0,286.831,771Z" transform="translate(-194.384 -506.538)"/><path class="f" d="M576.427,771a1.51,1.51,0,1,0-1.514-1.514A1.511,1.511,0,0,0,576.427,771Z" transform="translate(-381.673 -506.538)"/><path class="f" d="M640.775,771a1.51,1.51,0,1,0-1.514-1.514A1.511,1.511,0,0,0,640.775,771Z" transform="translate(-423.29 -506.538)"/><path class="f" d="M1252.15,513.586a1.51,1.51,0,1,0-1.515-1.514,1.516,1.516,0,0,0,1.515,1.514Z" transform="translate(-818.692 -340.056)"/><path class="f" d="M93.764,803.175a1.51,1.51,0,1,0-1.506-1.506,1.511,1.511,0,0,0,1.506,1.506Z" transform="translate(-69.519 -527.346)"/><path class="f" d="M608.6,288.345a1.51,1.51,0,1,0-1.514-1.514,1.516,1.516,0,0,0,1.514,1.514Z" transform="translate(-402.481 -194.384)"/><path class="f" d="M640.775,288.345a1.51,1.51,0,1,0-1.514-1.514,1.516,1.516,0,0,0,1.514,1.514Z" transform="translate(-423.29 -194.384)"/><path class="f" d="M898.2,352.693a1.51,1.51,0,1,0-1.506-1.514,1.511,1.511,0,0,0,1.506,1.514Z" transform="translate(-589.786 -236)"/><path class="f" d="M833.842,449.215a1.51,1.51,0,1,0-1.515-1.506,1.509,1.509,0,0,0,1.515,1.506Z" transform="translate(-548.155 -298.425)"/><path class="f" d="M866.016,513.586a1.51,1.51,0,1,0-1.514-1.514,1.516,1.516,0,0,0,1.514,1.514Z" transform="translate(-568.963 -340.056)"/><path class="f" d="M866.016,449.215a1.51,1.51,0,1,0-1.514-1.506,1.509,1.509,0,0,0,1.514,1.506Z" transform="translate(-568.963 -298.425)"/><path class="f" d="M962.552,481.412a1.51,1.51,0,1,0-1.506-1.514,1.518,1.518,0,0,0,1.506,1.514Z" transform="translate(-631.402 -319.248)"/><path class="f" d="M994.726,482.94a1.51,1.51,0,1,0-1.506-1.514,1.513,1.513,0,0,0,1.506,1.514Z" transform="translate(-652.211 -320.236)"/><path class="f" d="M994.726,513.586a1.51,1.51,0,1,0-1.506-1.514,1.518,1.518,0,0,0,1.506,1.514Z" transform="translate(-652.211 -340.056)"/><path class="f" d="M1123.445,513.586a1.51,1.51,0,1,0-1.506-1.514,1.523,1.523,0,0,0,1.506,1.514Z" transform="translate(-735.459 -340.056)"/><path class="f" d="M769.486,449.215a1.51,1.51,0,1,0-1.506-1.506,1.511,1.511,0,0,0,1.506,1.506Z" transform="translate(-506.538 -298.425)"/><path class="f" d="M705.138,449.215a1.51,1.51,0,1,0-1.506-1.506,1.516,1.516,0,0,0,1.506,1.506Z" transform="translate(-464.921 -298.425)"/><path class="f" d="M737.312,481.412a1.51,1.51,0,1,0-1.506-1.514,1.518,1.518,0,0,0,1.506,1.514Z" transform="translate(-485.73 -319.248)"/><path class="f" d="M705.138,513.586a1.51,1.51,0,1,0-1.506-1.514,1.523,1.523,0,0,0,1.506,1.514Z" transform="translate(-464.921 -340.056)"/><path class="f" d="M608.6,481.412a1.51,1.51,0,1,0-1.514-1.514,1.516,1.516,0,0,0,1.514,1.514Z" transform="translate(-402.481 -319.248)"/><path class="f" d="M737.312,384.867a1.51,1.51,0,1,0-1.506-1.506,1.511,1.511,0,0,0,1.506,1.506Z" transform="translate(-485.73 -256.809)"/><path class="f" d="M801.668,577.934a1.51,1.51,0,1,0-1.514-1.514,1.511,1.511,0,0,0,1.514,1.514Z" transform="translate(-527.346 -381.673)"/><path class="f" d="M737.312,610.108a1.51,1.51,0,1,0-1.506-1.506,1.511,1.511,0,0,0,1.506,1.506Z" transform="translate(-485.73 -402.481)"/><path class="f" d="M833.842,610.108a1.51,1.51,0,1,0-1.515-1.506,1.509,1.509,0,0,0,1.515,1.506Z" transform="translate(-548.155 -402.481)"/><path class="f" d="M898.2,545.76a1.51,1.51,0,1,0-1.506-1.514,1.511,1.511,0,0,0,1.506,1.514Z" transform="translate(-589.786 -360.865)"/><path class="f" d="M962.552,545.76a1.51,1.51,0,1,0-1.506-1.514,1.512,1.512,0,0,0,1.506,1.514Z" transform="translate(-631.402 -360.865)"/><path class="f" d="M962.552,577.934a1.51,1.51,0,1,0-1.506-1.514,1.512,1.512,0,0,0,1.506,1.514Z" transform="translate(-631.402 -381.673)"/><path class="f" d="M994.726,577.934a1.51,1.51,0,1,0-1.506-1.514,1.512,1.512,0,0,0,1.506,1.514Z" transform="translate(-652.211 -381.673)"/><path class="f" d="M994.726,545.76a1.51,1.51,0,1,0-1.506-1.514,1.512,1.512,0,0,0,1.506,1.514Z" transform="translate(-652.211 -360.865)"/><path class="f" d="M1026.908,577.934a1.51,1.51,0,1,0-1.514-1.514,1.511,1.511,0,0,0,1.514,1.514Z" transform="translate(-673.019 -381.673)"/><path class="f" d="M962.552,674.456a1.51,1.51,0,1,0-1.506-1.506,1.511,1.511,0,0,0,1.506,1.506Z" transform="translate(-631.402 -444.098)"/><path class="f" d="M962.552,642.282a1.51,1.51,0,1,0-1.506-1.506,1.511,1.511,0,0,0,1.506,1.506Z" transform="translate(-631.402 -423.29)"/><path class="f" d="M898.2,642.282a1.51,1.51,0,1,0-1.506-1.506,1.509,1.509,0,0,0,1.506,1.506Z" transform="translate(-589.786 -423.29)"/><path class="f" d="M898.2,706.653a1.51,1.51,0,1,0-1.506-1.514,1.516,1.516,0,0,0,1.506,1.514Z" transform="translate(-589.786 -464.921)"/><path class="f" d="M930.378,674.456a1.51,1.51,0,1,0-1.506-1.506,1.516,1.516,0,0,0,1.506,1.506Z" transform="translate(-610.594 -444.098)"/><path class="f" d="M1026.908,706.653a1.51,1.51,0,1,0-1.514-1.514,1.516,1.516,0,0,0,1.514,1.514Z" transform="translate(-673.019 -464.921)"/><path class="f" d="M994.726,674.456a1.51,1.51,0,1,0-1.506-1.506,1.511,1.511,0,0,0,1.506,1.506Z" transform="translate(-652.211 -444.098)"/><path class="f" d="M962.552,738.827a1.51,1.51,0,1,0-1.506-1.514,1.513,1.513,0,0,0,1.506,1.514Z" transform="translate(-631.402 -485.73)"/><path class="f" d="M898.2,738.827a1.51,1.51,0,1,0-1.506-1.514,1.511,1.511,0,0,0,1.506,1.514Z" transform="translate(-589.786 -485.73)"/><path class="f" d="M801.668,674.456a1.51,1.51,0,1,0-1.514-1.506,1.509,1.509,0,0,0,1.514,1.506Z" transform="translate(-527.346 -444.098)"/><path class="f" d="M769.486,674.456a1.51,1.51,0,1,0-1.506-1.506,1.511,1.511,0,0,0,1.506,1.506Z" transform="translate(-506.538 -444.098)"/><path class="f" d="M737.312,674.456a1.51,1.51,0,1,0-1.506-1.506,1.511,1.511,0,0,0,1.506,1.506Z" transform="translate(-485.73 -444.098)"/><path class="f" d="M769.486,771a1.51,1.51,0,1,0-1.506-1.514A1.513,1.513,0,0,0,769.486,771Z" transform="translate(-506.538 -506.538)"/><path class="f" d="M801.668,803.175a1.51,1.51,0,1,0-1.514-1.506,1.509,1.509,0,0,0,1.514,1.506Z" transform="translate(-527.346 -527.346)"/><path class="f" d="M737.312,803.175a1.51,1.51,0,1,0-1.506-1.506,1.511,1.511,0,0,0,1.506,1.506Z" transform="translate(-485.73 -527.346)"/><path class="f" d="M930.378,803.175a1.51,1.51,0,1,0-1.506-1.506,1.516,1.516,0,0,0,1.506,1.506Z" transform="translate(-610.594 -527.346)"/><path class="f" d="M962.552,771a1.51,1.51,0,1,0-1.506-1.514A1.513,1.513,0,0,0,962.552,771Z" transform="translate(-631.402 -506.538)"/><path class="f" d="M672.964,738.827a1.51,1.51,0,1,0-1.506-1.514,1.511,1.511,0,0,0,1.506,1.514Z" transform="translate(-444.113 -485.73)"/><path class="f" d="M672.964,706.653a1.51,1.51,0,1,0-1.506-1.514,1.516,1.516,0,0,0,1.506,1.514Z" transform="translate(-444.113 -464.921)"/><path class="f" d="M640.775,738.827a1.51,1.51,0,1,0-1.514-1.514,1.511,1.511,0,0,0,1.514,1.514Z" transform="translate(-423.29 -485.73)"/><path class="f" d="M608.6,642.282a1.51,1.51,0,1,0-1.514-1.506,1.509,1.509,0,0,0,1.514,1.506Z" transform="translate(-402.481 -423.29)"/><path class="f" d="M640.775,674.456a1.51,1.51,0,1,0-1.514-1.506,1.509,1.509,0,0,0,1.514,1.506Z" transform="translate(-423.29 -444.098)"/><path class="f" d="M1026.908,964.067a1.51,1.51,0,1,0-1.514-1.514,1.511,1.511,0,0,0,1.514,1.514Z" transform="translate(-673.019 -631.402)"/><path class="f" d="M801.668,642.282a1.51,1.51,0,1,0-1.514-1.506,1.509,1.509,0,0,0,1.514,1.506Z" transform="translate(-527.346 -423.29)"/><path class="f" d="M608.6,577.934a1.51,1.51,0,1,0-1.514-1.514,1.511,1.511,0,0,0,1.514,1.514Z" transform="translate(-402.481 -381.673)"/><path class="f" d="M544.245,642.282a1.51,1.51,0,1,0-1.506-1.506,1.511,1.511,0,0,0,1.506,1.506Z" transform="translate(-360.865 -423.29)"/></g><g transform="translate(-0.25 -0.25)"><g transform="translate(79.818 147.666)"><path class="b" d="M361.645,440.745H293.3l-22.739-22.731H225.241v-.706H270.85l22.739,22.731h68.056Z" transform="translate(-225.241 -417.307)"/></g><g transform="translate(113.915 181.763)"><path class="b" d="M492.271,537.267H458.02l-22.731-22.731H378.745l-22.731,22.731H321.763v-.707h33.959l22.731-22.731h57.129l22.731,22.731h33.959Z" transform="translate(-321.763 -513.829)"/></g><g transform="translate(136.654 193.129)"><path class="b" d="M511.163,569.449H488.286L465.555,546.71H431.742l-22.731,22.739H386.133v-.706h22.585L431.45,546h34.4l.1.1,22.628,22.636h22.585Z" transform="translate(-386.133 -546.003)"/></g><g transform="translate(193.482 204.494)"><rect class="b" width="22.739" height="0.707"/></g><g transform="translate(182.116 215.868)"><path class="b" d="M572.019,644.824h-.707V622.239l-11.159-11.159H514.829v-.706h45.617l11.573,11.573Z" transform="translate(-514.829 -610.374)"/></g><g transform="translate(102.299 204.598)"><path class="b" d="M380.064,601.813H311.716l-.1-.1L288.881,578.97l.5-.5,22.628,22.636h68.055Z" transform="translate(-288.881 -578.47)"/></g><g transform="translate(182.116 136.3)"><path class="b" d="M594.4,419.937H571.519l-34.1-34.1H514.829v-.707h22.886l34.1,34.1H594.4Z" transform="translate(-514.829 -385.134)"/></g><g transform="translate(147.77 124.927)"><path class="b" d="M519.9,387.644l-33.993-34H440.728L418.1,376.279l-.5-.5,22.835-22.843H486.2l34.2,34.209Z" transform="translate(-417.6 -352.936)"/></g><g transform="translate(159.385 159.032)"><rect class="b" width="45.471" height="0.707"/></g><g transform="translate(182.116 113.561)"><path class="b" d="M605.513,366.836l-45.359-45.367H514.829v-.707h45.617l45.566,45.574Z" transform="translate(-514.829 -320.762)"/></g><g transform="translate(204.856 90.83)"><path class="b" d="M636.381,302.239h-.706V257.121H579.2v-.707h57.181Z" transform="translate(-579.2 -256.415)"/></g><g transform="translate(261.434 45.463)"><path class="b" d="M819.18,287.727H784.937L762,264.789V151.124l-22.636-22.636.5-.5,22.843,22.843V264.5l22.524,22.524h33.95Z" transform="translate(-739.363 -127.989)"/></g><g transform="translate(295.436 45.712)"><path class="b" d="M836.321,242.369h-.707V230.857l11.366-11.366V185.386l22.731-22.731V128.7h.707v34.251l-22.731,22.731v34.105l-11.366,11.366Z" transform="translate(-835.615 -128.696)"/></g><g transform="translate(318.167 91.183)"><path class="b" d="M900.669,359.714h-.707V314.1L934.059,280V257.415h.706v22.877l-34.1,34.1Z" transform="translate(-899.963 -257.415)"/></g><g transform="translate(341.002 136.3)"><path class="b" d="M965.1,419.834l-.5-.5,34.209-34.2h45.609v.707H999.1Z" transform="translate(-964.603 -385.134)"/></g><g transform="translate(329.533 102.299)"><path class="b" d="M943.605,380.314l-11.469-11.469V345.821l34.312-34.312h45.463l22.636-22.628.5.5L1012.2,312.216H966.741l-33.9,33.9v22.439l11.262,11.262Z" transform="translate(-932.136 -288.882)"/></g><g transform="translate(352.617 170.397)"><rect class="b" width="68.202" height="0.707"/></g><g transform="translate(352.617 170.501)"><path class="b" d="M1054.467,505.283H997.484v-.707h56.69l22.636-22.628.5.5Z" transform="translate(-997.484 -481.949)"/></g><g transform="translate(363.991 204.494)"><rect class="b" width="34.097" height="0.707"/></g><g transform="translate(352.617 238.599)"><path class="b" d="M1076.81,698.056l-22.636-22.628h-56.69v-.707h56.983l22.843,22.835Z" transform="translate(-997.484 -674.722)"/></g><g transform="translate(363.991 249.965)"><rect class="b" width="34.097" height="0.707"/></g><g transform="translate(341.251 261.33)"><path class="b" d="M1044.628,762.412,1022,739.776H965.31v-.707h56.982l22.835,22.843Z" transform="translate(-965.31 -739.07)"/></g><g transform="translate(329.533 284.423)"><path class="b" d="M1012.057,872.988H955.074L932.136,850.05V804.441h.706v45.317l22.524,22.524h56.69Z" transform="translate(-932.136 -804.441)"/></g><g transform="translate(306.801 238.952)"><path class="b" d="M868.5,755.289h-.707V721.046l22.731-22.739V675.722h.706V698.6L868.5,721.339Z" transform="translate(-867.789 -675.722)"/></g><g transform="translate(272.696 238.952)"><path class="b" d="M828.433,789.74H816.921L793.983,766.8V709.965l-22.739-22.731V675.722h.706v11.219l22.74,22.731v56.837l22.524,22.524h11.219Z" transform="translate(-771.244 -675.722)"/></g><g transform="translate(284.07 284.423)"><rect class="b" width="0.707" height="90.933"/></g><g transform="translate(215.868 284.423)"><path class="b" d="M611.081,918.105h-.707V883.862l45.463-45.471V804.441h.707v34.243l-45.463,45.471Z" transform="translate(-610.374 -804.441)"/></g><g transform="translate(249.965 227.234)"><path class="b" d="M707.6,722.469H706.9V654.121l11.573-11.573h22.886v.706H718.761L707.6,654.413Z" transform="translate(-706.896 -642.548)"/></g><g transform="translate(215.972 261.684)"><path class="b" d="M611.167,808.521l-.5-.5,22.628-22.628V740.07H634v45.617Z" transform="translate(-610.667 -740.07)"/></g><g transform="translate(204.502 261.434)"><path class="b" d="M578.906,785.083H578.2V762.206l22.835-22.843.5.5L578.906,762.5Z" transform="translate(-578.2 -739.363)"/></g><g transform="translate(159.385 238.703)"><path class="b" d="M496.1,698.349H450.481v-.707h45.324l22.628-22.628.5.5Z" transform="translate(-450.481 -675.015)"/></g><g transform="translate(170.751 227.337)"><path class="b" d="M505.533,666.175H482.655v-.706H505.24l22.636-22.628.5.5Z" transform="translate(-482.655 -642.841)"/></g><g transform="translate(341.002 272.799)"><path class="b" d="M1021.689,794.879H987.446L964.6,772.036l.5-.5,22.636,22.636h33.95Z" transform="translate(-964.603 -771.536)"/></g><g transform="translate(341.002 215.868)"><path class="b" d="M965.1,633.708l-.5-.5,22.843-22.835h34.389l22.835,22.835-.5.5-22.628-22.628h-33.8Z" transform="translate(-964.603 -610.374)"/></g><g transform="translate(375.107 125.03)"><path class="b" d="M1061.647,387.834l-.5-.5,11.469-11.469h45.471l22.628-22.636.5.5-22.835,22.843h-45.47Z" transform="translate(-1061.148 -353.229)"/></g><g transform="translate(386.722 159.032)"><path class="b" d="M1196.328,472.919H1173.45l-22.731-22.731h-56.69v-.707h56.983l22.732,22.731h22.585Z" transform="translate(-1094.029 -449.481)"/></g><g transform="translate(409.453 181.617)"><path class="b" d="M1249.311,537h-34.243l-22.585-22.585L1169.89,537h-11.512v-.707H1169.6l22.885-22.878,22.878,22.878h33.95Z" transform="translate(-1158.378 -513.415)"/></g><g transform="translate(420.819 204.598)"><path class="b" d="M1202.071,590.447h-11.52v-.707h11.227l11.262-11.27.5.5Z" transform="translate(-1190.551 -578.47)"/></g><g transform="translate(432.193 215.868)"><path class="b" d="M1245.625,622.446h-22.878v-.706h22.585l11.366-11.366h22.877v.706h-22.585Z" transform="translate(-1222.748 -610.374)"/></g><g transform="translate(443.308 227.337)"><path class="b" d="M1254.714,666.072l-.5-.5,11.469-11.469h11.365l11.262-11.262.5.5-11.469,11.469h-11.366Z" transform="translate(-1254.214 -642.841)"/></g><g transform="translate(431.943 261.33)"><path class="b" d="M1370.052,785.247h-34.243l-45.471-45.471h-45.17l-22.628,22.636-.5-.5,22.835-22.843h45.755L1336.1,784.54h33.951Z" transform="translate(-1222.041 -739.07)"/></g><g transform="translate(443.308 272.696)"><path class="b" d="M1322.416,794.586l-22.636-22.636h-22.439l-22.628,22.636-.5-.5,22.835-22.843h23.024l22.843,22.843Z" transform="translate(-1254.214 -771.244)"/></g><g transform="translate(466.29 284.07)"><path class="b" d="M1387.472,826.878h-34.251l-22.731-22.731H1319.27v-.706h11.512l22.731,22.731h33.959Z" transform="translate(-1319.27 -803.441)"/></g><g transform="translate(341.002 295.539)"><path class="b" d="M1044.421,859.242H987.446L964.6,836.407l.5-.5,22.636,22.628h56.682Z" transform="translate(-964.603 -835.908)"/></g><g transform="translate(375.356 306.801)"><path class="b" d="M1141.173,891.123l-22.628-22.628h-56.69v-.706h56.983l22.835,22.835Z" transform="translate(-1061.855 -867.788)"/></g><g transform="translate(454.674 306.904)"><path class="b" d="M1377.322,914.044l-22.628-22.628h-45.471l-22.835-22.835.5-.5,22.628,22.628h45.471l22.835,22.835Z" transform="translate(-1286.389 -868.081)"/></g><g transform="translate(466.04 295.539)"><path class="b" d="M1432.477,881.973h-11.512l-22.731-22.732H1341.4l-22.835-22.835.5-.5,22.628,22.628h56.836l22.731,22.732h11.22Z" transform="translate(-1318.563 -835.908)"/></g><g transform="translate(545.607 329.636)"><path class="b" d="M1578.15,955.764h-11.512L1543.8,932.93l.5-.5,22.628,22.628h11.22Z" transform="translate(-1543.803 -932.43)"/></g><g transform="translate(557.223 318.167)"><rect class="b" width="22.732" height="0.707"/></g><g transform="translate(341.002 318.27)"><path class="b" d="M1055.544,934.852l-22.636-22.628H976.072L964.6,900.755l.5-.5,11.262,11.262H1033.2l22.843,22.835Z" transform="translate(-964.603 -900.255)"/></g><g transform="translate(363.991 340.898)"><rect class="b" width="45.463" height="0.707"/></g><g transform="translate(431.943 329.636)"><path class="b" d="M1279.119,944.4H1233.51l-11.469-11.469.5-.5,11.262,11.262h45.316Z" transform="translate(-1222.041 -932.43)"/></g><g transform="translate(500.386 340.898)"><rect class="b" width="22.739" height="0.707"/></g><g transform="translate(443.558 352.264)"><path class="b" d="M1357.22,1019.931h-22.877l-22.74-22.74h-56.682v-.707H1311.9l22.739,22.74h22.585Z" transform="translate(-1254.922 -996.485)"/></g><g transform="translate(522.876 352.367)"><path class="b" d="M1513.8,1008.754h-22.878l-11.469-11.477.5-.5,11.262,11.27H1513.8Z" transform="translate(-1479.456 -996.778)"/></g><g transform="translate(568.588 363.637)"><rect class="b" width="11.366" height="0.707"/></g><g transform="translate(557.223 375.003)"><rect class="b" width="22.732" height="0.707"/></g><g transform="translate(409.204 363.741)"><path class="b" d="M1181.013,1086.052h-.707V1052.1l-22.635-22.628.5-.5,22.842,22.835Z" transform="translate(-1157.671 -1028.974)"/></g><g transform="translate(432.193 363.637)"><path class="b" d="M1290.941,1052.119h-22.877l-22.731-22.731h-22.585v-.707h22.878l22.731,22.731h22.585Z" transform="translate(-1222.748 -1028.681)"/></g><g transform="translate(443.308 375.107)"><path class="b" d="M1277.549,1106.861h-.707v-22.585l-22.628-22.628.5-.5,22.835,22.835Z" transform="translate(-1254.214 -1061.149)"/></g><g transform="translate(443.308 386.472)"><path class="b" d="M1266.183,1127.669h-.707v-22.585l-11.262-11.262.5-.5,11.469,11.469Z" transform="translate(-1254.214 -1093.323)"/></g><g transform="translate(443.205 398.087)"><rect class="b" width="0.707" height="22.731"/></g><g transform="translate(477.406 397.838)"><rect class="b" width="0.706" height="32.147" transform="matrix(0.707, -0.707, 0.707, 0.707, 0, 0.5)"/></g><g transform="translate(477.302 409.453)"><rect class="b" width="0.707" height="11.366"/></g><g transform="translate(489.021 386.369)"><path class="b" d="M1417.869,1105.1h-34.251v-.707h33.959l11.366-11.365h34.389L1474.8,1104.5l-.5.5-11.262-11.262h-33.8Z" transform="translate(-1383.618 -1093.03)"/></g><g transform="translate(545.857 397.734)"><path class="b" d="M1578.358,1137.172,1567.1,1125.91H1544.51v-.707h22.878l11.469,11.469Z" transform="translate(-1544.51 -1125.203)"/></g><g transform="translate(511.76 409.1)"><path class="b" d="M1493.2,1169.346l-11.262-11.262h-33.95v-.707h34.243l11.469,11.469Z" transform="translate(-1447.989 -1157.377)"/></g><g transform="translate(557.223 409.1)"><rect class="b" width="11.366" height="0.707"/></g><g transform="translate(466.29 363.637)"><rect class="b" width="34.097" height="0.707"/></g><g transform="translate(477.655 375.003)"><path class="b" d="M1396.665,1072.824l-11.262-11.262h-33.959v-.707H1385.7l11.469,11.469Z" transform="translate(-1351.444 -1060.856)"/></g><g transform="translate(363.991 272.696)"><path class="b" d="M1097.883,794.689H1075l-22.732-22.74h-22.585v-.706h22.877l22.732,22.739h22.593Z" transform="translate(-1029.681 -771.244)"/></g><g transform="translate(454.924 215.868)"><path class="b" d="M1366.81,645.178H1287.1v-.706h79.421l34.1-34.1h11.512v.706h-11.22Z" transform="translate(-1287.096 -610.374)"/></g><g transform="translate(511.76 261.33)"><rect class="b" width="68.194" height="0.707"/></g><g transform="translate(556.973 227.337)"><rect class="b" width="32.147" height="0.706" transform="translate(0 22.732) rotate(-45.002)"/></g><g transform="translate(568.588 249.965)"><rect class="b" width="11.366" height="0.707"/></g><g transform="translate(534.491 272.696)"><path class="b" d="M1557.549,783.22l-11.262-11.27h-33.951v-.706h34.243l11.469,11.477Z" transform="translate(-1512.336 -771.244)"/></g><g transform="translate(545.857 284.07)"><path class="b" d="M1578.358,815.409,1567.1,804.147H1544.51v-.706h22.878l11.469,11.469Z" transform="translate(-1544.51 -803.441)"/></g><g transform="translate(545.857 295.435)"><rect class="b" width="22.731" height="0.707"/></g><g transform="translate(477.406 170.501)"><path class="b" d="M1351.237,550.65l-.5-.5,34.209-34.209h34.1l33.994-33.993.5.5-34.2,34.2h-34.1Z" transform="translate(-1350.737 -481.949)"/></g><g transform="translate(556.973 193.129)"><path class="b" d="M1576.477,557.972l-.5-.5L1587.446,546h11.512v.706h-11.22Z" transform="translate(-1575.977 -546.003)"/></g><g transform="translate(489.021 215.868)"><path class="b" d="M1395.13,633.812h-11.512v-.707h11.219l22.739-22.731h34.243v.706h-33.95Z" transform="translate(-1383.618 -610.374)"/></g><g transform="translate(522.876 227.234)"><path class="b" d="M1479.955,654.517l-.5-.5,11.469-11.469h11.512v.706h-11.219Z" transform="translate(-1479.456 -642.548)"/></g><g transform="translate(215.868 272.799)"><path class="b" d="M611.081,805.891h-.707V783.014l11.469-11.477.5.5-11.262,11.27Z" transform="translate(-610.374 -771.536)"/></g><g transform="translate(454.674 102.195)"><path class="b" d="M1286.889,334.662l-.5-.5,22.835-22.843h68.2l22.731-22.731h11.512v.707h-11.219l-22.731,22.731h-68.2Z" transform="translate(-1286.389 -288.589)"/></g><g transform="translate(477.406 136.3)"><path class="b" d="M1453.286,408.571h-22.878l-22.731-22.731H1362.5L1351.237,397.1l-.5-.5,11.469-11.469h45.763l22.731,22.731h22.585Z" transform="translate(-1350.737 -385.134)"/></g><g transform="translate(466.29 147.666)"><path class="b" d="M1410.2,440.745h-11.512l-22.731-22.731h-22.447l-11.365,11.366H1319.27v-.707h22.585l11.365-11.366h23.032l22.731,22.731H1410.2Z" transform="translate(-1319.27 -417.307)"/></g><g transform="translate(500.386 159.032)"><path class="b" d="M1461.012,472.816l-11.262-11.262h-11.365l-11.366-11.366h-11.228v-.707h11.52l11.366,11.366h11.366l11.469,11.469Z" transform="translate(-1415.792 -449.481)"/></g><g transform="translate(477.655 170.397)"><path class="b" d="M1419.646,505.093h-22.878l-22.74-22.731h-22.585v-.707h22.877l22.74,22.731h22.585Z" transform="translate(-1351.444 -481.656)"/></g><g transform="translate(545.857 136.3)"><rect class="b" width="34.097" height="0.707"/></g><g transform="translate(557.223 124.927)"><rect class="b" width="22.732" height="0.707"/></g><g transform="translate(568.588 147.666)"><rect class="b" width="11.366" height="0.707"/></g><g transform="translate(431.943 102.195)"><path class="b" d="M1222.54,311.923l-.5-.5,22.835-22.835H1302l11.469,11.469-.5.5L1301.712,289.3h-56.544Z" transform="translate(-1222.041 -288.589)"/></g><g transform="translate(466.29 113.561)"><rect class="b" width="34.097" height="0.707"/></g><g transform="translate(534.491 79.568)"><path class="b" d="M1535.214,247.868h-22.877v-.706h22.585l22.628-22.628.5.5Z" transform="translate(-1512.336 -224.534)"/></g><g transform="translate(488.771 68.098)"><path class="b" d="M1440.143,215.5h-34.39l-22.843-22.835.5-.5,22.636,22.628h33.8l22.731-22.731h11.512v.706h-11.22Z" transform="translate(-1382.911 -192.067)"/></g><g transform="translate(523.126 45.463)"><path class="b" d="M1503.04,162.7h-22.877v-.707h22.585l33.994-34,.5.5Z" transform="translate(-1480.163 -127.989)"/></g><g transform="translate(363.991 79.464)"><path class="b" d="M1063.924,259.044h-34.243v-.706h33.95l22.732-22.731h45.47l11.366-11.366h11.512v.706h-11.219l-11.366,11.366h-45.471Z" transform="translate(-1029.681 -224.241)"/></g><g transform="translate(477.655 90.83)"><rect class="b" width="22.731" height="0.707"/></g><g transform="translate(363.991 79.464)"><path class="b" d="M1052.559,247.678h-22.877v-.706h22.585L1075,224.241h22.885v.706H1075.29Z" transform="translate(-1029.681 -224.241)"/></g><g transform="translate(443.558 68.202)"><path class="b" d="M1277.8,204.328h-22.878v-.707h22.585l11.262-11.262.5.5Z" transform="translate(-1254.922 -192.36)"/></g><g transform="translate(318.167 68.452)"><path class="b" d="M900.669,249.895h-.707V238.383l22.731-22.731V193.067h.706v22.878l-22.731,22.731Z" transform="translate(-899.963 -193.067)"/></g><g transform="translate(352.367)"><path class="b" d="M997.276,79.36l-.5-.5,22.636-22.628v-34.1L1042.248-.707l.5.5L1020.119,22.42V56.525l-.1.1Z" transform="translate(-996.777 0.707)"/></g><g transform="translate(352.367)"><path class="b" d="M997.276,56.629l-.5-.5,11.27-11.27v-34.1L1019.516-.707l.5.5-11.262,11.262v34.1Z" transform="translate(-996.777 0.707)"/></g><g transform="translate(340.898 0.25)"><path class="b" d="M965.017,56.836h-.707V45.316L975.676,33.95V0h.707V34.243L965.017,45.609Z" transform="translate(-964.31 0)"/></g><g transform="translate(375.107 22.731)"><path class="b" d="M1061.647,132.342l-.5-.5,22.628-22.628V86.476l22.835-22.835.5.5-22.628,22.628v22.739Z" transform="translate(-1061.148 -63.641)"/></g><g transform="translate(386.369 0.25)"><path class="b" d="M1093.735,56.836h-.707V33.95l22.731-22.731V0h.707V11.512l-22.731,22.731Z" transform="translate(-1093.029 0)"/></g><g transform="translate(409.204 0.25)"><path class="b" d="M1158.17,68.452l-.5-.5,22.635-22.636V22.878l-11.374-11.366V0h.707V11.219l11.373,11.366V45.609Z" transform="translate(-1157.671 0)"/></g><g transform="translate(409.1 34.097)"><path class="b" d="M1158.084,118.8h-.707v-11.52l11.469-11.469.5.5-11.262,11.262Z" transform="translate(-1157.377 -95.815)"/></g><g transform="translate(432.193 45.359)"><path class="b" d="M1245.625,151.142h-22.878v-.707h22.585l22.731-22.739h23.024l22.843,22.843-.5.5L1290.8,128.4h-22.438Z" transform="translate(-1222.748 -127.696)"/></g><g transform="translate(477.655 56.733)"><path class="b" d="M1385.3,171.862,1374.029,160.6h-22.585v-.706h22.877l11.477,11.469Z" transform="translate(-1351.444 -159.893)"/></g><g transform="translate(534.242 33.993)"><path class="b" d="M1512.129,130.23l-.5-.5,34.2-34.209h11.512v.706h-11.22Z" transform="translate(-1511.63 -95.522)"/></g><g transform="translate(511.511)"><path class="b" d="M1515.725,22.627h-45.609L1447.282-.208l.5-.5,22.628,22.628h45.316Z" transform="translate(-1447.282 0.707)"/></g><g transform="translate(534.491)"><path class="b" d="M1535.214,11.262h-22.877v-.707h22.585L1546.184-.707l.5.5Z" transform="translate(-1512.336 0.707)"/></g><g transform="translate(522.876 33.993)"><path class="b" d="M1479.955,118.864l-.5-.5,22.835-22.843H1513.8v.706h-11.219Z" transform="translate(-1479.456 -95.522)"/></g><g transform="translate(477.302 0.25)"><path class="b" d="M1396.268,34.45h-22.886l-22.938-22.938V0h.707v11.22l22.524,22.524h22.593Z" transform="translate(-1350.444 0)"/></g><g transform="translate(488.771)"><path class="b" d="M1428.381,33.889l-11.262-11.262h-11.366L1382.911-.208l.5-.5,22.636,22.628h11.366l11.469,11.469Z" transform="translate(-1382.911 0.707)"/></g><g transform="translate(443.308 0.25)"><path class="b" d="M1254.714,57.086l-.5-.5,22.628-22.636V0h.707V34.243Z" transform="translate(-1254.214 0)"/></g><g transform="translate(477.405 22.731)"><rect class="b" width="0.706" height="16.073" transform="translate(0 0.5) rotate(-45)"/></g><g transform="translate(443.205 0.25)"><path class="b" d="M1254.628,45.462h-.707V22.585l11.366-11.366V0h.707V11.512l-11.366,11.366Z" transform="translate(-1253.922 0)"/></g><g transform="translate(454.571 22.981)"><rect class="b" width="0.707" height="11.366"/></g><g transform="translate(431.839 0.25)"><rect class="b" width="0.707" height="11.366" transform="translate(0 0)"/></g><g transform="translate(0.25 113.561)"><path class="b" d="M147.52,389.567,124.884,366.94H79.421L33.951,321.469H0v-.707H34.243l45.471,45.471h45.463l22.843,22.835Z" transform="translate(0 -320.762)"/></g><g transform="translate(45.713 113.561)"><path class="b" d="M196.9,344.208H185.386l-.1-.1-22.628-22.636H128.7v-.707h34.251l.1.1L185.679,343.5H196.9Z" transform="translate(-128.696 -320.762)"/></g><g transform="translate(34.097 68.202)"><path class="b" d="M186.748,238.322,164.12,215.694H118.658L95.815,192.859l.5-.5,22.636,22.628h45.463l22.835,22.835Z" transform="translate(-95.815 -192.36)"/></g><g transform="translate(0.25 79.464)"><path class="b" d="M113.415,270.306,90.787,247.678H33.951L11.219,224.947H0v-.706H11.512l22.731,22.731H91.08l22.835,22.835Z" transform="translate(0 -224.241)"/></g><g transform="translate(0.25 68.098)"><path class="b" d="M33.847,215.4,11.219,192.773H0v-.706H11.512L34.347,214.9Z" transform="translate(0 -192.067)"/></g><g transform="translate(0.25 102.195)"><rect class="b" width="22.731" height="0.707" transform="translate(0)"/></g><g transform="translate(91.183 79.464)"><path class="b" d="M336.732,258.94l-33.993-33.993H257.415v-.706h45.617l34.2,34.2Z" transform="translate(-257.415 -224.241)"/></g><g transform="translate(57.086 79.464)"><rect class="b" width="22.731" height="0.707"/></g><g transform="translate(34.347 45.359)"><path class="b" d="M198.829,151.142H141.846l-.1-.1L119.115,128.4H96.522V127.7h22.886l.1.1,22.628,22.636h56.69Z" transform="translate(-96.522 -127.696)"/></g><g transform="translate(22.981 56.733)"><path class="b" d="M98.2,171.862,86.933,160.6H64.348v-.706H87.225L98.7,171.362Z" transform="translate(-64.348 -159.893)"/></g><g transform="translate(0.25 56.733)"><rect class="b" width="11.366" height="0.707" transform="translate(0)"/></g><g transform="translate(0.25 45.359)"><rect class="b" width="22.731" height="0.707" transform="translate(0)"/></g><g transform="translate(79.818 33.993)"><path class="b" d="M293.443,118.968H270.557l-.1-.1L247.826,96.228H225.241v-.706h22.878l.1.1,22.628,22.636h22.593Z" transform="translate(-225.241 -95.522)"/></g><g transform="translate(113.561 0.25)"><path class="b" d="M343.606,45.712,320.763,22.878V0h.707V22.585l22.636,22.628Z" transform="translate(-320.763 0)"/></g><g transform="translate(124.927 0.25)"><path class="b" d="M364.414,34.347,352.937,22.878V0h.707V22.585l11.27,11.262Z" transform="translate(-352.937 0)"/></g><g transform="translate(136.301 0.25)"><rect class="b" width="0.707" height="22.731" transform="translate(0 0)"/></g><g transform="translate(79.568 0)"><rect class="b" width="0.706" height="32.147" transform="translate(0 0.5) rotate(-45)"/></g><g transform="translate(102.196 0.25)"><rect class="b" width="0.707" height="11.366" transform="translate(0 0)"/></g><g transform="translate(0 22.628)"><path class="b" d="M45.152,75.42H10.762L-.707,63.951l.5-.5L11.055,74.714h33.8L56.233,63.348H90.476v.707H56.525Z" transform="translate(0.707 -63.348)"/></g><g transform="translate(0 11.366)"><path class="b" d="M33.64,43.436H10.762L-.707,31.967l.5-.5L11.055,42.729H33.64Z" transform="translate(0.707 -31.467)"/></g><g transform="translate(22.732)"><path class="b" d="M109.361,11.262H75.11L63.641-.208l.5-.5L75.4,10.555h33.959Z" transform="translate(-63.641 0.707)"/></g><g transform="translate(11.616 11.262)"><rect class="b" width="11.366" height="0.707"/></g><g transform="translate(79.818 56.733)"><rect class="b" width="34.097" height="0.707"/></g><g transform="translate(56.837 34.097)"><path class="b" d="M205.9,107.784H171.655L160.186,96.314l.5-.5,11.262,11.262H205.9Z" transform="translate(-160.186 -95.815)"/></g><g transform="translate(0.25 159.032)"><rect class="b" width="68.202" height="0.707" transform="translate(0)"/></g><g transform="translate(0 136.404)"><path class="b" d="M45.005,397.4H10.762L-.707,385.926l.5-.5,11.262,11.262H45.005Z" transform="translate(0.707 -385.427)"/></g><g transform="translate(0 125.03)"><path class="b" d="M33.639,365.206H10.762L-.707,353.729l.5-.5L11.055,364.5H33.639Z" transform="translate(0.707 -353.229)"/></g><g transform="translate(11.616 124.927)"><rect class="b" width="22.731" height="0.707"/></g><g transform="translate(102.299 181.763)"><path class="b" d="M322.986,525.8l-11.27-11.262H300.643L289.381,525.8l-.5-.5,11.469-11.469h11.658L323.486,525.3Z" transform="translate(-288.881 -513.829)"/></g><g transform="translate(0.25 170.397)"><path class="b" d="M11.512,516.459H0v-.707H11.219l34.1-34.1H125.03v.707H45.609Z" transform="translate(0 -481.656)"/></g><g transform="translate(0 170.501)"><rect class="b" width="32.147" height="0.706" transform="translate(0 22.73) rotate(-44.998)"/></g><g transform="translate(0.25 170.397)"><rect class="b" width="11.366" height="0.707" transform="translate(0)"/></g><g transform="translate(0 181.866)"><path class="b" d="M-.207,582.824l-.5-.5,34.2-34.2H67.6l33.994-34,.5.5-34.2,34.209h-34.1Z" transform="translate(0.707 -514.122)"/></g><g transform="translate(0.25 215.971)"><path class="b" d="M11.512,622.636H0v-.706H11.219l11.262-11.262.5.5Z" transform="translate(0 -610.667)"/></g><g transform="translate(22.981 181.763)"><path class="b" d="M98.6,537.267H64.348v-.707H98.306l22.731-22.731H132.55v.707H121.33Z" transform="translate(-64.348 -513.829)"/></g><g transform="translate(34.347 181.866)"><path class="b" d="M108.034,526.091H96.522v-.706h11.219l11.27-11.262.5.5Z" transform="translate(-96.522 -514.122)"/></g><g transform="translate(0.25 261.434)"><path class="b" d="M11.512,796.8H0V796.1H11.219l22.731-22.731h68.2l34-34,.5.5-34.209,34.209h-68.2Z" transform="translate(0 -739.363)"/></g><g transform="translate(0.25 261.33)"><path class="b" d="M91.08,762.516H45.316l-.1-.1L22.585,739.776H0v-.707H22.878l.1.1,22.628,22.636H90.787l11.262-11.27.5.5Z" transform="translate(0 -739.07)"/></g><g transform="translate(22.981 249.965)"><path class="b" d="M121.33,730.334H98.306L75.567,707.6H64.348V706.9H75.86L98.6,729.627h22.439L132.4,718.261h34.243v.706H132.7Z" transform="translate(-64.348 -706.896)"/></g><g transform="translate(34.097 238.703)"><path class="b" d="M141.535,698.349H130.023l-11.366-11.366H107.284L95.815,675.515l.5-.5,11.262,11.262H118.95l11.366,11.366h11.219Z" transform="translate(-95.815 -675.015)"/></g><g transform="translate(34.347 227.234)"><path class="b" d="M176.09,665.986H141.846l-22.731-22.731H96.522v-.706h22.886l22.731,22.731H176.09Z" transform="translate(-96.522 -642.548)"/></g><g transform="translate(0.25 284.07)"><rect class="b" width="34.097" height="0.707" transform="translate(0)"/></g><g transform="translate(0.25 295.435)"><rect class="b" width="22.731" height="0.707" transform="translate(0)"/></g><g transform="translate(0.25 272.696)"><rect class="b" width="11.366" height="0.707" transform="translate(0)"/></g><g transform="translate(79.818 272.799)"><path class="b" d="M259.484,806.245H225.241v-.707h33.951l22.739-22.731h22.731l11.262-11.27.5.5-11.469,11.477H282.223Z" transform="translate(-225.241 -771.536)"/></g><g transform="translate(0 318.167)"><path class="b" d="M-.207,923.3l-.5-.5,22.835-22.835H56.379v.706H22.42Z" transform="translate(0.707 -899.962)"/></g><g transform="translate(0.25 329.532)"><path class="b" d="M11.512,955.575H0v-.706H11.219l22.731-22.731h34.4l22.835,22.835-.5.5L68.056,932.844H34.243Z" transform="translate(0 -932.137)"/></g><g transform="translate(0 340.898)"><path class="b" d="M-.207,999.019l-.5-.5,34.2-34.209H67.745v.707H33.786Z" transform="translate(0.707 -964.311)"/></g><g transform="translate(34.347 306.801)"><path class="b" d="M164.724,891.226H141.846l-22.731-22.732H96.522v-.706h22.886l22.731,22.732h22.585Z" transform="translate(-96.522 -867.788)"/></g><g transform="translate(102.299 340.898)"><path class="b" d="M289.381,976.279l-.5-.5,11.469-11.469h22.886v.707H300.643Z" transform="translate(-288.881 -964.311)"/></g><g transform="translate(68.202 363.637)"><path class="b" d="M192.859,1040.65l-.5-.5,11.469-11.469h22.877v.707H204.121Z" transform="translate(-192.36 -1028.681)"/></g><g transform="translate(0.25 352.367)"><path class="b" d="M11.512,1031.486H0v-.707H11.219l33.993-34,.5.5Z" transform="translate(0 -996.778)"/></g><g transform="translate(0.25 397.734)"><path class="b" d="M67.952,1148.538,45.316,1125.91H0v-.707H45.609l22.843,22.835Z" transform="translate(0 -1125.203)"/></g><g transform="translate(11.366 409.1)"><path class="b" d="M31.966,1169.346l-.5-.5,11.469-11.469H65.814v.707H43.229Z" transform="translate(-31.467 -1157.377)"/></g><g transform="translate(22.981 352.264)"><path class="b" d="M75.86,1031.3H64.348v-.707h11.22l34.1-34.105h11.512v.707H109.965Z" transform="translate(-64.348 -996.485)"/></g><g transform="translate(57.086 386.369)"><path class="b" d="M206.708,1127.479H206V1116.26l-22.524-22.524H160.893v-.706H183.77l22.938,22.938Z" transform="translate(-160.893 -1093.03)"/></g><g transform="translate(45.463 386.472)"><path class="b" d="M173.46,1127.919l-22.628-22.628H139.466l-11.477-11.469.5-.5,11.27,11.262h11.366l22.835,22.835Z" transform="translate(-127.989 -1093.323)"/></g><g transform="translate(102.301 363.739)"><rect class="b" width="48.226" height="0.706" transform="translate(0 34.101) rotate(-45)"/></g><g transform="translate(90.934 375.106)"><rect class="b" width="16.073" height="0.706" transform="translate(0 11.366) rotate(-45.002)"/></g><g transform="translate(124.927 375.356)"><path class="b" d="M353.643,1107.318h-.707v-11.512l11.374-11.365v-22.585h.707v22.877L353.643,1096.1Z" transform="translate(-352.937 -1061.856)"/></g><g transform="translate(113.665 397.838)"><rect class="b" width="16.073" height="0.706" transform="translate(0 11.365) rotate(-44.998)"/></g><g transform="translate(113.665 329.636)"><path class="b" d="M321.555,967.034l-.5-.5,11.469-11.477h22.739l22.628-22.628.5.5-22.835,22.835H332.817Z" transform="translate(-321.055 -932.43)"/></g><g transform="translate(159.032 0.25)"><path class="b" d="M506.671,102.652H483.785L472.212,91.079v-34.1L449.481,34.243V0h.707V33.95L472.919,56.69v34.1l11.159,11.159h22.593Z" transform="translate(-449.481 0)"/></g><g transform="translate(227.587 102.195)"><path class="b" d="M666.633,311.673h-.707V300.454L654.767,289.3H643.548v-.707H655.06l11.573,11.573Z" transform="translate(-643.548 -288.589)"/></g><g transform="translate(238.599)"><path class="b" d="M709.525,124.573h-.707V90.622L697.453,79.256V67.891L674.722,45.152V10.762L686.191-.707l.5.5L675.428,11.055v33.8L698.16,67.6V78.964L709.525,90.33Z" transform="translate(-674.722 0.707)"/></g><g transform="translate(193.232 45.463)"><path class="b" d="M603.132,162.594,580.5,139.966H557.773L546.3,128.489l.5-.5,11.27,11.27H580.8l22.835,22.835Z" transform="translate(-546.296 -127.989)"/></g><g transform="translate(204.606 68.202)"><path class="b" d="M612.839,204.328H589.962l-11.469-11.469.5-.5,11.262,11.262h22.585Z" transform="translate(-578.493 -192.36)"/></g><g transform="translate(181.763 34.347)"><path class="b" d="M525.9,141.992h-.707V119.408l-11.366-11.374V96.522h.707v11.219L525.9,119.115Z" transform="translate(-513.829 -96.522)"/></g><g transform="translate(170.501 0.25)"><path class="b" d="M482.448,22.981l-.5-.5L493.21,11.219V0h.706V11.512Z" transform="translate(-481.948 0)"/></g><g transform="translate(193.129 0.25)"><path class="b" d="M568.846,45.712,546,22.878V0h.706V22.585l22.636,22.628Z" transform="translate(-546.003 0)"/></g><g transform="translate(227.234 0.25)"><rect class="b" width="0.707" height="45.463" transform="translate(0 0)"/></g><g transform="translate(215.868 0.25)"><rect class="b" width="0.707" height="22.731" transform="translate(0 0)"/></g><g transform="translate(125.03 90.933)"><path class="b" d="M387.584,280.042H376.072L353.23,257.207l.5-.5,22.636,22.628h11.219Z" transform="translate(-353.23 -256.708)"/></g><g transform="translate(136.654 124.927)"><rect class="b" width="22.731" height="0.707"/></g><g transform="translate(125.03 125.03)"><path class="b" d="M376.219,365.206H364.707L353.23,353.729l.5-.5L365,364.5h11.219Z" transform="translate(-353.23 -353.229)"/></g><g transform="translate(147.77 68.202)"><rect class="b" width="0.706" height="32.147" transform="translate(0 0.5) rotate(-45)"/></g><g transform="translate(147.666 11.616)"><path class="b" d="M429.379,89.01h-.706V66.417L417.307,55.052V32.174h.707V54.759l11.366,11.366Z" transform="translate(-417.307 -32.174)"/></g><g transform="translate(79.568 215.971)"><path class="b" d="M292.736,656.629,270.1,634H247.368l-22.835-22.835.5-.5,22.628,22.628h22.731l22.843,22.835Z" transform="translate(-224.534 -610.667)"/></g><g transform="translate(90.933 204.598)"><rect class="b" width="0.706" height="32.153" transform="matrix(0.707, -0.707, 0.707, 0.707, 0, 0.499)"/></g><g transform="translate(148.019 238.599)"><rect class="b" width="45.463" height="0.707"/></g><g transform="translate(113.665 284.173)"><path class="b" d="M321.555,849.7l-.5-.5L343.9,826.361H366.63l22.628-22.628.5.5-22.835,22.835H344.191Z" transform="translate(-321.056 -803.734)"/></g><g transform="translate(136.654 295.435)"><rect class="b" width="22.731" height="0.707"/></g><g transform="translate(147.77 306.801)"><path class="b" d="M418.1,891.123l-.5-.5,22.835-22.835h23.024l11.477,11.469-.5.5-11.27-11.262H440.728Z" transform="translate(-417.6 -867.788)"/></g><g transform="translate(181.867 318.27)"><path class="b" d="M537.111,912.224h-11.52l-11.469-11.469.5-.5,11.262,11.262h11.227Z" transform="translate(-514.122 -900.255)"/></g><g transform="translate(170.751 329.636)"><path class="b" d="M528.272,944.4H482.655v-.707H527.98l11.262-11.262.5.5Z" transform="translate(-482.655 -932.43)"/></g><g transform="translate(147.77 352.264)"><path class="b" d="M418.1,1019.827l-.5-.5,22.835-22.843h23.024l11.477,11.477-.5.5-11.27-11.27H440.728Z" transform="translate(-417.6 -996.485)"/></g><g transform="translate(136.404 363.637)"><path class="b" d="M385.926,1086.112l-.5-.5,11.262-11.262V1051.62l22.938-22.938h11.512v.707H419.919L397.4,1051.912v22.731Z" transform="translate(-385.426 -1028.681)"/></g><g transform="translate(159.032 386.722)"><rect class="b" width="0.707" height="22.731"/></g><g transform="translate(170.398 375.356)"><path class="b" d="M505.227,1107.572l-23.572-22.835v-22.881h.707v22.581l23.357,22.627Z" transform="translate(-481.655 -1061.856)"/></g><g transform="translate(170.398 409.453)"><rect class="b" width="0.707" height="11.366"/></g><g transform="translate(193.129 363.99)"><path class="b" d="M557.48,1075.394,546,1063.924v-34.243h.706v33.951l11.27,11.262Z" transform="translate(-546.003 -1029.681)"/></g><g transform="translate(204.502 375.356)"><rect class="b" width="0.707" height="22.731"/></g><g transform="translate(181.866 272.8)"><rect class="b" width="32.158" height="0.706" transform="translate(0 22.739) rotate(-44.999)"/></g><g transform="translate(238.599 341.251)"><path class="b" d="M675.428,1044.878h-.707V1022l22.731-22.731V965.311h.706v34.251l-22.731,22.731Z" transform="translate(-674.722 -965.311)"/></g><g transform="translate(215.972 295.789)"><path class="b" d="M611.167,961.894l-.5-.5,11.262-11.262V927.4l22.731-22.732V881.931L667.392,859.2V836.615h.707v22.877l-22.731,22.732v22.739l-22.731,22.732v22.731Z" transform="translate(-610.667 -836.615)"/></g><g transform="translate(272.696 341.251)"><path class="b" d="M794.69,1044.878h-.707v-11.219l-22.739-22.731V965.311h.706v45.324l22.74,22.731Z" transform="translate(-771.244 -965.311)"/></g><g transform="translate(249.965 397.734)"><path class="b" d="M741.707,1148.288H741v-11.219l-11.167-11.159H718.761L707.6,1137.069v11.219H706.9v-11.512l11.573-11.573h11.658l11.581,11.573Z" transform="translate(-706.896 -1125.203)"/></g><g transform="translate(272.696 409.453)"><rect class="b" width="0.707" height="11.366"/></g><g transform="translate(295.539 352.367)"><path class="b" d="M870,1065.479l-11.469-11.469v-34.1l-22.628-22.636.5-.5,22.835,22.843v34.1L870.5,1064.98Z" transform="translate(-835.908 -996.778)"/></g><g transform="translate(295.436 363.99)"><path class="b" d="M847.687,1086.509h-.707v-22.585l-11.366-11.366v-22.878h.707v22.585l11.366,11.366Z" transform="translate(-835.615 -1029.681)"/></g><g transform="translate(306.801 375.356)"><rect class="b" width="0.707" height="11.366"/></g><g transform="translate(318.167 307.154)"><path class="b" d="M911.432,903.135l-11.469-11.469V868.788h.707v22.585l11.262,11.262Z" transform="translate(-899.963 -868.788)"/></g><g transform="translate(329.886 363.637)"><path class="b" d="M1023.82,1063.381l-11.262-11.262H989.826L967.1,1029.388H933.136v-.707h34.251l22.731,22.731h22.732l11.469,11.469Z" transform="translate(-933.136 -1028.681)"/></g><g transform="translate(375.356 363.637)"><path class="b" d="M1095.7,1040.65l-11.262-11.262h-22.585v-.707h22.877l11.469,11.469Z" transform="translate(-1061.855 -1028.681)"/></g><g transform="translate(329.636 375.107)"><path class="b" d="M955.764,1106.861h-.707v-22.585l-22.628-22.628.5-.5,22.835,22.835Z" transform="translate(-932.429 -1061.149)"/></g><g transform="translate(352.367 375.107)"><path class="b" d="M1020.119,1106.861h-.706v-11.219l-11.366-11.365V1072.91l-11.27-11.262.5-.5,11.477,11.469v11.366l11.366,11.365Z" transform="translate(-996.777 -1061.149)"/></g><g transform="translate(375.107 386.472)"><path class="b" d="M1073.117,1116.3h-.706v-11.219l-11.262-11.262.5-.5,11.469,11.469Z" transform="translate(-1061.148 -1093.323)"/></g><g transform="translate(397.734 397.588)"><path class="b" d="M1148.641,1148.02h-.706V1136.8l-11.013-11.012-11.013,11.012v11.22h-.707v-11.512l11.719-11.719,11.719,11.719Z" transform="translate(-1125.203 -1124.789)"/></g><g transform="translate(329.636 397.838)"><rect class="b" width="0.706" height="16.073" transform="translate(0 0.5) rotate(-45)"/></g><g transform="translate(295.436 22.731)"><path class="b" d="M836.321,154.824h-.707V120.581l11.366-11.366V75.11l11.469-11.469.5.5L847.687,75.4v34.105l-11.366,11.366Z" transform="translate(-835.615 -63.641)"/></g><g transform="translate(306.905 45.712)"><path class="b" d="M868.581,174.416l-.5-.5,11.262-11.262V128.7h.707v34.251Z" transform="translate(-868.082 -128.696)"/></g><g transform="translate(329.636 0.25)"><path class="b" d="M932.929,34.346l-.5-.5,11.262-11.262V0h.706V22.877Z" transform="translate(-932.429 0)"/></g><g transform="translate(318.167 0.25)"><path class="b" d="M911.432,22.981,899.963,11.512V0h.707v11.22l11.262,11.262Z" transform="translate(-899.963 0)"/></g><g transform="translate(261.331)"><path class="b" d="M762.309,22.627H739.07V-.457h.706V21.921h22.24L784.644-.707l.5.5Z" transform="translate(-739.07 0.707)"/></g><g transform="translate(272.696 0.25)"><rect class="b" width="0.707" height="11.366" transform="translate(0 0)"/></g><g transform="translate(284.07 0.25)"><rect class="b" width="0.707" height="11.366" transform="translate(0 0)"/></g><g transform="translate(272.8 34.097)"><path class="b" d="M794.879,130.17h-.707V118.95L771.537,96.314l.5-.5,22.843,22.843Z" transform="translate(-771.537 -95.815)"/></g><g transform="translate(295.436 11.616)"><path class="b" d="M836.321,66.271h-.707V54.759L846.98,43.393V32.174h.707V43.686L836.321,55.052Z" transform="translate(-835.615 -32.174)"/></g><g transform="translate(249.965 11.616)"><rect class="b" width="0.707" height="22.731" transform="translate(0 0)"/></g><g transform="translate(352.617 181.763)"><rect class="b" width="45.471" height="0.707"/></g><g transform="translate(306.801 159.385)"><rect class="b" width="0.707" height="22.731"/></g><g transform="translate(250.318 181.763)"><path class="b" d="M753.72,548.288h-.707V537.06l-22.532-22.524H707.9v-.707h22.878l22.946,22.938Z" transform="translate(-707.896 -513.829)"/></g><g transform="translate(261.331 238.952)"><path class="b" d="M750.539,710.069,739.07,698.6V675.722h.706v22.585l11.262,11.262Z" transform="translate(-739.07 -675.722)"/></g><g transform="translate(284.173 238.703)"><path class="b" d="M838.08,698.349H826.568l-22.835-22.835.5-.5,22.628,22.628H838.08Z" transform="translate(-803.733 -675.015)"/></g><g transform="translate(306.801 204.598)"><path class="b" d="M879.258,624.44l-11.469-11.469V589.74h34.3l11.262-11.27.5.5-11.469,11.477H868.5v22.232l11.262,11.262Z" transform="translate(-867.789 -578.47)"/></g><g transform="translate(318.52 227.234)"><rect class="b" width="22.731" height="0.707"/></g></g></g></g></g><text class="g" transform="translate(949 774)"><tspan x="0" y="0">Smarter</tspan><tspan class="h" y="0">BizCard</tspan></text></g></svg>