<?xml version="1.0" encoding="UTF-8"?>
<svg xmlns="http://www.w3.org/2000/svg" version="1.1" width="300" height="300" viewBox="0 0 300 300"><rect x="0" y="0" width="300" height="300" fill="#ffffff"/><g transform="scale(9.091)"><g transform="translate(0,0)"><path fill-rule="evenodd" d="M8 0L8 1L9 1L9 2L8 2L8 5L9 5L9 4L11 4L11 5L10 5L10 10L9 10L9 8L8 8L8 9L7 9L7 8L6 8L6 9L7 9L7 10L6 10L6 11L7 11L7 10L8 10L8 11L9 11L9 12L8 12L8 13L11 13L11 14L8 14L8 15L10 15L10 16L12 16L12 17L13 17L13 16L12 16L12 14L13 14L13 15L14 15L14 18L13 18L13 21L15 21L15 19L16 19L16 24L15 24L15 22L14 22L14 23L10 23L10 24L8 24L8 23L7 23L7 22L5 22L5 21L4 21L4 20L5 20L5 19L8 19L8 18L5 18L5 19L4 19L4 16L5 16L5 15L7 15L7 14L6 14L6 13L7 13L7 12L6 12L6 13L5 13L5 9L4 9L4 8L0 8L0 9L2 9L2 10L3 10L3 11L2 11L2 12L1 12L1 14L2 14L2 15L3 15L3 16L2 16L2 17L1 17L1 15L0 15L0 17L1 17L1 18L3 18L3 19L2 19L2 20L3 20L3 21L2 21L2 23L1 23L1 24L0 24L0 25L1 25L1 24L2 24L2 25L3 25L3 24L2 24L2 23L4 23L4 24L5 24L5 25L8 25L8 26L10 26L10 24L11 24L11 26L12 26L12 28L9 28L9 29L8 29L8 33L9 33L9 32L10 32L10 33L14 33L14 32L13 32L13 30L14 30L14 29L12 29L12 28L14 28L14 27L15 27L15 31L16 31L16 28L17 28L17 29L23 29L23 30L24 30L24 32L25 32L25 33L26 33L26 32L25 32L25 31L27 31L27 32L28 32L28 33L29 33L29 32L28 32L28 31L27 31L27 30L26 30L26 29L32 29L32 30L33 30L33 27L31 27L31 25L30 25L30 26L29 26L29 24L30 24L30 21L31 21L31 24L32 24L32 25L33 25L33 24L32 24L32 23L33 23L33 21L31 21L31 20L30 20L30 21L29 21L29 24L28 24L28 23L27 23L27 21L26 21L26 20L27 20L27 19L28 19L28 20L29 20L29 19L30 19L30 18L31 18L31 19L32 19L32 20L33 20L33 19L32 19L32 18L33 18L33 16L31 16L31 14L32 14L32 13L30 13L30 14L29 14L29 15L28 15L28 13L29 13L29 11L31 11L31 12L32 12L32 11L33 11L33 8L32 8L32 9L31 9L31 8L28 8L28 9L31 9L31 10L27 10L27 9L26 9L26 8L24 8L24 9L22 9L22 8L23 8L23 5L22 5L22 4L23 4L23 2L24 2L24 3L25 3L25 2L24 2L24 0L23 0L23 2L22 2L22 0L20 0L20 1L21 1L21 2L20 2L20 3L19 3L19 2L18 2L18 1L19 1L19 0L18 0L18 1L16 1L16 0L12 0L12 1L11 1L11 0L10 0L10 1L9 1L9 0ZM14 1L14 2L11 2L11 4L12 4L12 3L13 3L13 5L12 5L12 6L11 6L11 8L12 8L12 6L13 6L13 8L14 8L14 9L15 9L15 7L16 7L16 6L15 6L15 5L16 5L16 4L17 4L17 3L18 3L18 6L17 6L17 7L18 7L18 8L20 8L20 9L21 9L21 10L22 10L22 11L20 11L20 10L18 10L18 11L17 11L17 12L16 12L16 10L17 10L17 8L16 8L16 10L14 10L14 11L11 11L11 13L12 13L12 12L13 12L13 14L14 14L14 15L15 15L15 16L16 16L16 17L15 17L15 18L16 18L16 19L20 19L20 16L21 16L21 15L19 15L19 14L18 14L18 15L17 15L17 16L16 16L16 15L15 15L15 14L16 14L16 13L17 13L17 12L18 12L18 13L20 13L20 14L21 14L21 13L22 13L22 15L23 15L23 17L21 17L21 20L20 20L20 21L21 21L21 25L20 25L20 22L19 22L19 20L18 20L18 21L17 21L17 24L16 24L16 25L17 25L17 24L19 24L19 25L20 25L20 26L21 26L21 27L22 27L22 26L23 26L23 25L22 25L22 24L23 24L23 23L22 23L22 22L23 22L23 21L24 21L24 22L25 22L25 23L26 23L26 24L27 24L27 23L26 23L26 22L25 22L25 21L24 21L24 20L26 20L26 15L24 15L24 12L25 12L25 13L26 13L26 14L27 14L27 13L28 13L28 11L26 11L26 12L25 12L25 11L23 11L23 10L22 10L22 9L21 9L21 8L22 8L22 5L20 5L20 6L19 6L19 3L18 3L18 2L17 2L17 3L16 3L16 1ZM21 2L21 3L20 3L20 4L22 4L22 2ZM14 3L14 5L13 5L13 6L14 6L14 7L15 7L15 6L14 6L14 5L15 5L15 4L16 4L16 3ZM24 4L24 5L25 5L25 4ZM8 6L8 7L9 7L9 6ZM18 6L18 7L19 7L19 6ZM20 6L20 7L21 7L21 6ZM24 6L24 7L25 7L25 6ZM3 9L3 10L4 10L4 9ZM11 9L11 10L12 10L12 9ZM24 9L24 10L25 10L25 9ZM31 10L31 11L32 11L32 10ZM3 11L3 13L4 13L4 11ZM18 11L18 12L19 12L19 11ZM22 11L22 12L23 12L23 11ZM14 12L14 14L15 14L15 13L16 13L16 12ZM20 12L20 13L21 13L21 12ZM18 15L18 16L19 16L19 15ZM27 15L27 17L28 17L28 15ZM29 15L29 16L30 16L30 15ZM6 16L6 17L8 17L8 16ZM9 17L9 18L10 18L10 17ZM16 17L16 18L17 18L17 17ZM23 17L23 18L25 18L25 17ZM31 17L31 18L32 18L32 17ZM28 18L28 19L29 19L29 18ZM0 19L0 20L1 20L1 19ZM3 19L3 20L4 20L4 19ZM10 19L10 20L12 20L12 19ZM22 19L22 20L21 20L21 21L22 21L22 20L23 20L23 19ZM6 20L6 21L7 21L7 20ZM0 21L0 22L1 22L1 21ZM8 21L8 22L11 22L11 21ZM4 22L4 23L5 23L5 24L7 24L7 23L5 23L5 22ZM12 24L12 26L13 26L13 27L14 27L14 26L15 26L15 27L17 27L17 28L18 28L18 27L19 27L19 28L20 28L20 27L19 27L19 26L15 26L15 24ZM13 25L13 26L14 26L14 25ZM25 25L25 28L28 28L28 25ZM26 26L26 27L27 27L27 26ZM23 27L23 28L24 28L24 27ZM10 29L10 32L12 32L12 31L11 31L11 30L12 30L12 29ZM24 29L24 30L25 30L25 29ZM18 30L18 31L17 31L17 32L15 32L15 33L22 33L22 32L19 32L19 30ZM29 30L29 31L30 31L30 30ZM32 31L32 32L33 32L33 31ZM30 32L30 33L31 33L31 32ZM0 0L0 7L7 7L7 0ZM1 1L1 6L6 6L6 1ZM2 2L2 5L5 5L5 2ZM26 0L26 7L33 7L33 0ZM27 1L27 6L32 6L32 1ZM28 2L28 5L31 5L31 2ZM0 26L0 33L7 33L7 26ZM1 27L1 32L6 32L6 27ZM2 28L2 31L5 31L5 28Z" fill="#000000"/></g></g></svg>
